<svg width="25" height="26" viewBox="0 0 25 26" fill="none" xmlns="http://www.w3.org/2000/svg">
<path d="M12.4999 0.5C15.8091 0.5 18.8029 1.89262 20.978 4.15419H4.02169C6.19683 1.89262 9.19058 0.5 12.4999 0.5ZM20.9781 4.15428C23.1532 6.41693 24.5 9.54682 24.5 12.9998C24.5 16.4602 23.1532 19.583 20.978 21.8458C18.8029 24.1076 15.8092 25.5 12.4999 25.5C9.19052 25.5 6.19675 24.1075 4.02162 21.8457C1.84647 19.583 0.5 16.4602 0.5 12.9998C0.5 9.54679 1.84656 6.41691 4.02161 4.15428H20.9781Z" stroke="#F3F4ED"/>
<path fill-rule="evenodd" clip-rule="evenodd" d="M19.3995 9.37934C19.2127 9.23553 18.5414 9.23553 17.877 9.23553C17.1986 9.2499 16.5202 9.2499 16.3609 9.31475C16.216 9.37218 15.8906 10.1929 15.4685 11.0348C14.9836 11.9854 14.3957 12.9066 14.0217 12.8917C13.5304 12.8917 13.6483 11.3298 13.6828 10.1713C13.6895 9.41524 13.5719 9.17037 13.4681 9.10604C13.212 8.91865 12.5062 8.73914 12.5062 8.73914C12.5062 8.73914 10.3879 8.57324 10.0906 9.52341C10.4988 9.58109 11.191 9.45109 10.9211 12.3951C10.9004 12.5394 10.5957 13.7485 9.61282 12.1144C9.36361 11.7044 8.42264 9.24985 8.09032 9.23553C7.00321 9.21374 5.92396 9.16347 5.55047 9.37934C5.1972 9.59547 6.02083 11.2796 7.41214 13.5401C8.53997 15.397 9.73753 16.8368 11.8139 17.1966C12.2083 17.2401 13.2191 17.2827 13.5445 17.1248C13.7587 17.0165 13.4887 15.4188 14.2295 15.2601C14.5549 15.1956 15.821 16.9305 16.2985 17.1248C16.5899 17.247 17.2264 17.2973 17.8769 17.2684C18.583 17.247 19.3854 17.3407 19.4616 16.8368C19.6349 15.7355 17.3235 14.2954 17.2609 13.6191C17.2055 13.1296 18.1055 12.23 18.562 11.5388C19.1293 10.7038 19.7528 9.69622 19.3995 9.37934Z" fill="#F3F4ED"/>
</svg>
