<svg id="Capa_1" enable-background="new 0 0 512 512" height="512" viewBox="0 0 512 512" width="512" xmlns="http://www.w3.org/2000/svg"><g><path d="m512 15c0-8.284-6.716-15-15-15h-482c-8.284 0-15 6.716-15 15v482c0 8.284 6.716 15 15 15h482c8.284 0 15-6.716 15-15 0-20.549 0-461.464 0-482z" fill="#704c55"/><path d="m512 15v482c0 8.28-6.72 15-15 15h-241v-512h241c8.28 0 15 6.72 15 15z" fill="#5a344b"/><path d="m30 30h452v212h-452z" fill="#916a67"/><path d="m256 30h226v212h-226z" fill="#704c55"/><path d="m482 482h-285.57l-45.445-15-45.385 15h-75.6v-210h452z" fill="#916a67"/><path d="m256 272h226v210h-226z" fill="#704c55"/><path d="m135.95 242h-60v-100.667c0-5.523 4.477-10 10-10h40c5.523 0 10 4.477 10 10z" fill="#ffe887"/><path d="m196.05 242h-60v-156c0-5.523 4.477-10 10-10h40c5.523 0 10 4.477 10 10z" fill="#ff6c72"/><path d="m255.95 242h-60v-128.333c0-5.523 4.477-10 10-10h40c5.523 0 10 4.477 10 10z" fill="#fff3e1"/><path d="m315.95 242h-60v-100.667c0-5.523 4.477-10 10-10h40c5.523 0 10 4.477 10 10z" fill="#ffca6d"/><path d="m375.95 242h-60v-142.167c0-5.523 4.477-10 10-10h40c5.523 0 10 4.477 10 10z" fill="#5cb4ff"/><path d="m316.05 482h-60v-170c0-5.523 4.477-10 10-10h40c5.523 0 10 4.477 10 10z" fill="#ffe887"/><path d="m376.15 482h-60v-110c0-5.523 4.477-10 10-10h40c5.523 0 10 4.477 10 10z" fill="#f13c5b"/><path d="m436.05 482h-60v-140c0-5.523 4.477-10 10-10h40c5.523 0 10 4.477 10 10z" fill="#489cff"/><path d="m210.92 332v25c0 19.3-15.71 35-35 35h-9.92v20.02c-9.65 0-20.34.01-30 0v-50.07h-9.95c-19.3 0-35-15.7-35-35v-9.9c0-8.28 6.72-15 15-15s15 6.72 15 15v9.9c0 2.76 2.24 5 5 5h9.95v-14.95c0-8.28 6.72-15 15-15s15 6.72 15 15v45h9.92c2.75 0 5-2.24 5-5v-25c0-8.28 6.71-15 15-15 8.28 0 15 6.72 15 15z" fill="#99e176"/><path d="m210.55 425.66-14.12 56.34h-90.83l-14.14-56.31c-2.38-9.45 4.77-18.65 14.54-18.66.29 0 89.82-.01 90-.01 9.74 0 16.92 9.17 14.55 18.64z" fill="#5a344b"/></g></svg>