<svg width="255" height="148" viewBox="0 0 255 148" fill="none" xmlns="http://www.w3.org/2000/svg">
<rect width="255" height="148" fill="#0029FF"/>
<path d="M89.9126 74.8784C89.9212 75.3908 89.8104 75.8983 89.5891 76.3608C89.3742 76.7924 89.0819 77.181 88.7267 77.5076C88.3593 77.8471 87.9446 78.1319 87.4955 78.3531C87.0316 78.5851 86.5459 78.771 86.0455 78.9082C85.0863 79.1726 84.0965 79.3104 83.1014 79.3181C82.1825 79.3203 81.2649 79.2484 80.3577 79.1029C79.4515 78.9531 78.5709 78.6776 77.7412 78.2843C77.585 78.2058 77.4136 78.1621 77.2388 78.1563C77.0872 78.1563 76.9434 78.2413 76.8076 78.4112L76.2783 78.1961L77.7326 74.9354L78.2425 75.1172C78.2063 75.235 78.2 75.36 78.2242 75.4808C78.2555 75.6105 78.3319 75.7249 78.4398 75.8036C78.7449 76.0299 79.083 76.208 79.4424 76.3318C79.8559 76.4803 80.2796 76.599 80.7102 76.6868C81.1537 76.7771 81.5942 76.8467 82.0319 76.8955C82.4195 76.941 82.8092 76.9654 83.1995 76.9686C83.5284 76.9639 83.8569 76.9427 84.1837 76.9051C84.5812 76.8629 84.9732 76.7796 85.3534 76.6566C85.7084 76.5461 86.038 76.367 86.3237 76.1295C86.4559 76.0221 86.5616 75.8858 86.6329 75.7312C86.7041 75.5766 86.7388 75.4078 86.7344 75.2377C86.7344 74.8131 86.4577 74.4675 85.9043 74.2007C85.3509 73.9339 84.5093 73.77 83.3795 73.709C82.9289 73.6972 82.4588 73.6789 81.9662 73.6552C81.4735 73.6316 80.9819 73.5821 80.4892 73.5089C80.0062 73.4387 79.5304 73.326 79.0672 73.1722C78.6234 73.0276 78.2072 72.8094 77.8361 72.5268C77.4471 72.2388 77.142 71.8526 76.9521 71.408C76.7582 70.9377 76.6621 70.433 76.6696 69.9245C76.6647 69.2973 76.8194 68.6792 77.1192 68.1279C77.4263 67.5713 77.8602 67.0944 78.3859 66.7359C78.9866 66.33 79.6518 66.0284 80.3534 65.8441C81.1824 65.6215 82.038 65.513 82.8965 65.5213C83.7097 65.5247 84.5211 65.5967 85.3222 65.7365C86.2302 65.9032 87.1158 66.1743 87.9613 66.5444C88.195 66.6707 88.4471 66.76 88.7084 66.809C88.8787 66.8277 89.0674 66.7578 89.2744 66.5993L89.6937 66.8144L88.0529 69.9654L87.5602 69.7287C87.5615 69.4773 87.4631 69.2356 87.2864 69.0563C87.0137 68.8017 86.6994 68.5954 86.3571 68.4464C85.9849 68.2821 85.5993 68.1497 85.2047 68.0505C84.8095 67.9492 84.4074 67.8773 84.0015 67.8353C83.6321 67.7944 83.2607 67.7732 82.889 67.7719C82.5811 67.7758 82.2738 67.7969 81.9683 67.8353C81.6037 67.8758 81.2455 67.9614 80.9021 68.0903C80.58 68.2062 80.283 68.3822 80.0267 68.6088C79.9067 68.7159 79.8117 68.848 79.7485 68.9958C79.6854 69.1436 79.6556 69.3035 79.6613 69.464C79.6491 69.7556 79.7467 70.0412 79.9351 70.2644C80.1211 70.4734 80.3517 70.6381 80.6099 70.7464C80.8807 70.8622 81.1656 70.9418 81.4573 70.983C81.7559 71.0261 82.0254 71.053 82.2691 71.0648C83.1567 71.1265 83.9954 71.1781 84.7853 71.2197C85.571 71.261 86.3487 71.3983 87.101 71.6285C87.4755 71.7605 87.8365 71.928 88.179 72.1287C88.5095 72.3214 88.8105 72.5605 89.0728 72.8387C89.3273 73.1115 89.5336 73.4255 89.6829 73.7671C89.836 74.1176 89.9142 74.4961 89.9126 74.8784ZM104.845 74.8784C104.854 75.3909 104.743 75.8985 104.521 76.3608C104.309 76.7921 104.019 77.1808 103.665 77.5076C103.298 77.8469 102.883 78.1317 102.434 78.3531C101.97 78.5851 101.485 78.771 100.984 78.9082C100.025 79.1726 99.0352 79.3104 98.0401 79.3181C97.1209 79.3204 96.2029 79.2484 95.2953 79.1029C94.3892 78.953 93.5086 78.6774 92.6789 78.2843C92.5231 78.2057 92.352 78.162 92.1776 78.1563C92.0252 78.1563 91.8815 78.2413 91.7464 78.4112L91.217 78.1961L92.6649 74.9354L93.1759 75.1172C93.1392 75.235 93.1329 75.36 93.1575 75.4808C93.1888 75.6105 93.2652 75.7249 93.3732 75.8036C93.6783 76.0299 94.0164 76.208 94.3758 76.3318C94.7892 76.4805 95.2129 76.5991 95.6436 76.6868C96.087 76.7771 96.5276 76.8467 96.9653 76.8955C97.3525 76.941 97.7419 76.9654 98.1317 76.9686C98.461 76.9639 98.7899 76.9427 99.1171 76.9051C99.5145 76.8627 99.9065 76.7795 100.287 76.6566C100.644 76.5465 100.975 76.3674 101.262 76.1295C101.395 76.0221 101.5 75.8858 101.572 75.7312C101.643 75.5766 101.678 75.4078 101.673 75.2377C101.673 74.8131 101.396 74.4675 100.843 74.2007C100.29 73.9339 99.4477 73.77 98.3172 73.709C97.868 73.6976 97.3972 73.6796 96.9049 73.6552C96.4126 73.6309 95.9203 73.5821 95.4279 73.5089C94.9446 73.4387 94.4684 73.326 94.0049 73.1722C93.5615 73.0274 93.1457 72.8092 92.7748 72.5268C92.3855 72.2391 92.0803 71.8528 91.8908 71.408C91.6966 70.9377 91.6002 70.433 91.6073 69.9245C91.6005 69.296 91.7545 68.6762 92.0547 68.1236C92.3618 67.567 92.7957 67.0901 93.3214 66.7316C93.9199 66.3265 94.5824 66.025 95.2813 65.8398C96.1107 65.6172 96.9667 65.5087 97.8256 65.517C98.6384 65.5204 99.4495 65.5923 100.25 65.7322C101.16 65.9 102.048 66.1725 102.895 66.5444C103.128 66.6707 103.38 66.76 103.642 66.809C103.812 66.8277 104 66.7578 104.207 66.5993L104.626 66.8144L102.985 69.9654L102.494 69.7287C102.495 69.4773 102.396 69.2356 102.22 69.0563C101.947 68.8015 101.632 68.5952 101.289 68.4464C100.919 68.2821 100.535 68.1497 100.141 68.0505C99.7457 67.9491 99.3432 67.8772 98.937 67.8353C98.568 67.7945 98.1969 67.7733 97.8256 67.7719C97.5177 67.7758 97.2104 67.7969 96.9049 67.8353C96.5399 67.8759 96.1814 67.9615 95.8376 68.0903C95.5157 68.2065 95.2186 68.3824 94.9622 68.6088C94.8425 68.7161 94.7479 68.8483 94.6849 68.9961C94.622 69.1438 94.5922 69.3036 94.5978 69.464C94.5856 69.7556 94.6833 70.0412 94.8717 70.2644C95.0577 70.4734 95.2883 70.6381 95.5465 70.7464C95.8173 70.8622 96.1022 70.9418 96.3939 70.983C96.6914 71.0261 96.962 71.0533 97.2057 71.0648C98.0926 71.1265 98.9313 71.1781 99.7219 71.2197C100.508 71.261 101.285 71.3983 102.038 71.6285C102.412 71.7605 102.773 71.928 103.116 72.1287C103.446 72.3211 103.747 72.5602 104.008 72.8387C104.264 73.1112 104.47 73.4252 104.62 73.7671C104.771 74.1179 104.848 74.4964 104.845 74.8784ZM121.016 72.3858C121.014 73.1963 120.895 74.0022 120.661 74.7784C120.421 75.5773 119.992 76.3073 119.412 76.9073C118.815 77.5291 118.011 78.0354 116.998 78.4263C115.985 78.8172 114.706 79.0111 113.16 79.0083H106.34V78.5532C106.518 78.5192 106.684 78.4411 106.823 78.3262C106.915 78.2348 106.96 78.0627 106.96 77.8077V67.036C106.96 66.7814 106.918 66.6057 106.833 66.5089C106.748 66.4121 106.584 66.3404 106.34 66.2937V65.8355H113.348C114.818 65.8355 116.046 66.0266 117.03 66.4089C118.015 66.7911 118.802 67.2931 119.392 67.9149C119.967 68.5102 120.397 69.2289 120.65 70.0159C120.894 70.7823 121.019 71.5817 121.018 72.3858H121.016ZM118.026 72.3858C118.026 70.8798 117.607 69.7681 116.768 69.0509C115.93 68.3338 114.762 67.9752 113.267 67.9752H109.86V76.7965H113.269C114.144 76.7965 114.886 76.6843 115.494 76.4598C116.05 76.2678 116.553 75.9466 116.961 75.5228C117.334 75.1191 117.611 74.6372 117.773 74.1124C117.946 73.5532 118.032 72.971 118.028 72.3858H118.026ZM141.182 75.3152C141.182 76.0553 141.015 76.6649 140.681 77.144C140.351 77.6181 139.911 78.0047 139.398 78.2703C138.848 78.552 138.257 78.7455 137.647 78.8437C137.015 78.9515 136.374 79.0062 135.732 79.0072H127.582V78.5522C127.764 78.5215 127.934 78.4432 128.075 78.3252C128.159 78.2337 128.202 78.0616 128.202 77.8066V67.0177C128.202 66.7757 128.159 66.609 128.075 66.5175C127.934 66.3995 127.764 66.3212 127.582 66.2905V65.8355H135.824C136.382 65.8355 136.938 65.8929 137.483 66.0065C138.017 66.1127 138.531 66.303 139.005 66.5702C139.457 66.8258 139.841 67.1841 140.127 67.6159C140.419 68.0526 140.565 68.5988 140.564 69.2543C140.575 69.8058 140.443 70.3508 140.182 70.8367C139.89 71.3344 139.467 71.7435 138.96 72.0201V72.1277C139.268 72.2283 139.559 72.3756 139.823 72.5644C140.096 72.7579 140.337 72.9944 140.534 73.2647C140.74 73.5476 140.899 73.8608 141.007 74.1931C141.127 74.5551 141.187 74.9341 141.184 75.3152H141.182ZM137.624 69.4382C137.613 68.8645 137.406 68.4883 137.005 68.3097C136.603 68.1312 136.025 68.0401 135.272 68.0365H131.097V71.0207H135.783C136.378 71.0207 136.84 70.8995 137.168 70.6571C137.497 70.4147 137.65 70.0084 137.629 69.4382H137.624ZM137.989 75.0236C138.001 74.6234 137.932 74.3018 137.78 74.0554C137.631 73.8156 137.42 73.6205 137.168 73.4907C136.899 73.3531 136.607 73.2639 136.306 73.2271C135.989 73.1853 135.669 73.1641 135.349 73.1636H131.1V76.7664H134.948C135.289 76.7657 135.629 76.7474 135.969 76.7115C136.302 76.6807 136.629 76.6009 136.939 76.4748C137.221 76.3607 137.472 76.1798 137.669 75.9477C137.874 75.6828 137.988 75.3586 137.993 75.0236H137.989ZM157.208 66.2905C157.026 66.3209 156.856 66.3993 156.715 66.5175C156.63 66.609 156.588 66.7757 156.588 67.0177V74.205C156.588 75.1502 156.463 75.9567 156.214 76.6244C155.983 77.2668 155.575 77.8312 155.037 78.2531C154.503 78.6712 153.807 78.9746 152.95 79.1632C151.933 79.3666 150.897 79.461 149.859 79.445C148.68 79.445 147.671 79.345 146.832 79.1449C145.994 78.9448 145.304 78.6325 144.763 78.2079C144.224 77.7858 143.813 77.2217 143.578 76.5792C143.329 75.9187 143.204 75.1273 143.203 74.205V67.0177C143.203 66.7757 143.165 66.6057 143.085 66.5089C143.005 66.4121 142.846 66.3389 142.602 66.2937V65.8355H146.742V66.2905C146.498 66.3389 146.337 66.4121 146.258 66.5057C146.178 66.5993 146.139 66.7725 146.139 67.0145V74.0199C146.128 74.5377 146.201 75.0539 146.355 75.5486C146.479 75.9373 146.709 76.2838 147.02 76.5491C147.361 76.8218 147.76 77.0119 148.187 77.1042C148.744 77.2279 149.313 77.2857 149.883 77.2763C151.22 77.2763 152.183 77.0156 152.772 76.4942C153.362 75.9728 153.657 75.1237 153.657 73.9468V67.0177C153.657 66.7757 153.618 66.6057 153.539 66.5089C153.46 66.4121 153.298 66.3389 153.056 66.2937V65.8355H157.213L157.208 66.2905ZM163.137 79.0083H158.998V78.5532C159.176 78.5192 159.342 78.4411 159.481 78.3262C159.573 78.2348 159.618 78.0681 159.618 77.826V67.0177C159.618 66.7757 159.575 66.609 159.491 66.5175C159.35 66.3993 159.18 66.3209 158.998 66.2905V65.8355H163.137V66.2905C162.953 66.323 162.781 66.401 162.636 66.5175C162.545 66.609 162.499 66.7757 162.499 67.0177V77.826C162.499 78.0681 162.545 78.2348 162.636 78.3262C162.781 78.4427 162.953 78.5208 163.137 78.5532V79.0083ZM175.9 79.445H175.445C175.422 79.3032 175.345 79.1758 175.23 79.09C175.068 79.0235 174.893 78.9956 174.719 79.0083H165.016V78.5532C165.193 78.5192 165.36 78.4411 165.499 78.3262C165.591 78.2348 165.636 78.0681 165.636 77.826V67.036C165.636 66.7943 165.584 66.6247 165.482 66.5272C165.347 66.4131 165.188 66.3321 165.016 66.2905V65.8355H169.173V66.2905C168.93 66.3508 168.772 66.4271 168.7 66.5175C168.627 66.6079 168.592 66.7811 168.592 67.036V76.6566H174.719C174.962 76.6566 175.131 76.6082 175.23 76.5114C175.346 76.3706 175.42 76.2004 175.445 76.0198H175.9V79.445ZM191.909 72.3858C191.908 73.1964 191.788 74.0023 191.554 74.7784C191.314 75.5774 190.886 76.3075 190.305 76.9073C189.709 77.5312 188.903 78.0376 187.889 78.4263C186.875 78.815 185.596 79.009 184.051 79.0083H177.232V78.5532C177.409 78.5192 177.575 78.4411 177.714 78.3262C177.806 78.2348 177.851 78.0627 177.851 77.8077V67.036C177.851 66.7811 177.808 66.6057 177.724 66.5089C177.64 66.4121 177.474 66.3389 177.232 66.2937V65.8355H184.234C185.704 65.8355 186.932 66.0266 187.916 66.4089C188.901 66.7911 189.688 67.2931 190.277 67.9149C190.853 68.5096 191.283 69.2285 191.535 70.0159C191.782 70.7818 191.908 71.5813 191.909 72.3858ZM188.919 72.3858C188.919 70.8798 188.499 69.7681 187.661 69.0509C186.822 68.3338 185.655 67.9752 184.16 67.9752H180.75V76.7965H184.16C185.036 76.7965 185.777 76.6843 186.385 76.4598C186.942 76.2678 187.445 75.9466 187.853 75.5228C188.225 75.1191 188.503 74.6372 188.664 74.1124C188.835 73.5528 188.919 72.9707 188.915 72.3858H188.919ZM197.744 79.0083H193.605V78.5532C193.783 78.5192 193.949 78.4411 194.088 78.3262C194.18 78.2348 194.225 78.0681 194.225 77.826V67.0177C194.225 66.7757 194.182 66.609 194.098 66.5175C193.957 66.3995 193.787 66.3212 193.605 66.2905V65.8355H197.744V66.2905C197.56 66.323 197.388 66.401 197.243 66.5175C197.152 66.609 197.106 66.7757 197.106 67.0177V77.826C197.106 78.0681 197.152 78.2348 197.243 78.3262C197.388 78.4427 197.56 78.5208 197.744 78.5532V79.0083ZM214.154 79.0083H210.198V78.5532C210.254 78.5545 210.31 78.5439 210.362 78.522C210.414 78.5001 210.46 78.4675 210.498 78.4263C210.525 78.3919 210.544 78.3521 210.553 78.3097C210.563 78.2673 210.563 78.2234 210.553 78.181C210.527 78.0729 210.481 77.9707 210.417 77.8798C210.344 77.7719 210.265 77.6688 210.179 77.5711L202.795 69.9331V77.8303C202.795 78.0605 202.828 78.2187 202.895 78.3036C202.962 78.3886 203.129 78.4736 203.396 78.5575V79.0126H199.623V78.5575C199.902 78.4973 200.076 78.4155 200.143 78.3123C200.22 78.1639 200.255 77.9971 200.243 77.8303V67.0177C200.243 66.7757 200.203 66.609 200.124 66.5175C200.046 66.4261 199.878 66.3508 199.623 66.2905V65.8355H204.017V66.2905C203.971 66.2939 203.925 66.3065 203.884 66.3276C203.842 66.3488 203.805 66.378 203.775 66.4136C203.745 66.4491 203.722 66.4904 203.708 66.5348C203.694 66.5793 203.689 66.6261 203.694 66.6724C203.693 66.7864 203.724 66.8982 203.784 66.9952C203.843 67.0905 203.916 67.1765 204 67.2501L211.015 74.6417V67.0177C211.027 66.8616 210.999 66.7048 210.933 66.5627C210.878 66.4788 210.698 66.3873 210.394 66.2905V65.8355H214.15V66.2905C213.87 66.3755 213.7 66.4659 213.639 66.5627C213.569 66.7037 213.538 66.8607 213.548 67.0177V77.826C213.548 78.0562 213.587 78.2197 213.667 78.3166C213.747 78.4134 213.906 78.493 214.15 78.5532L214.154 79.0083ZM227.428 73.8951H224.894C224.713 73.8906 224.533 73.9029 224.355 73.9317C224.238 73.9565 224.139 74.0834 224.054 74.3147H223.635V71.2391H224.072C224.12 71.4542 224.208 71.5844 224.336 71.621C224.519 71.6635 224.706 71.682 224.893 71.6758H231V72.1309C230.783 72.1464 230.574 72.2151 230.39 72.331C230.226 72.4385 230.144 72.6537 230.144 72.9678V76.1338C230.144 76.6308 230.357 76.8793 230.782 76.8793V77.3892C230.298 77.7416 229.774 78.0376 229.222 78.2714C228.634 78.5241 228.028 78.734 227.409 78.8996C226.777 79.0688 226.134 79.1964 225.485 79.2815C224.859 79.3641 224.229 79.4065 223.598 79.4085C222.607 79.4131 221.621 79.2565 220.681 78.9448C219.785 78.6508 218.953 78.191 218.228 77.5893C217.512 76.9883 216.934 76.2406 216.532 75.3969C216.113 74.5298 215.903 73.5383 215.903 72.4224C215.903 71.3065 216.125 70.3146 216.569 69.4468C216.996 68.5996 217.602 67.8549 218.346 67.2641C219.107 66.6649 219.972 66.2112 220.899 65.9258C221.866 65.6209 222.875 65.4667 223.89 65.4686C224.79 65.4726 225.687 65.5809 226.562 65.7914C227.467 66.0065 228.327 66.2461 229.141 66.51C229.278 66.5678 229.429 66.5802 229.573 66.5455C229.672 66.5124 229.758 66.4488 229.818 66.3637L230.274 66.5638L228.634 69.748L228.214 69.548C228.233 69.4476 228.225 69.3443 228.194 69.2474C228.162 69.1504 228.106 69.063 228.032 68.9929C227.867 68.824 227.683 68.6745 227.484 68.5475C226.909 68.2227 226.284 67.9951 225.634 67.8741C224.995 67.7543 224.345 67.6934 223.694 67.6923C223.038 67.6857 222.386 67.7999 221.771 68.029C221.197 68.2446 220.673 68.574 220.23 68.9972C219.788 69.422 219.44 69.9352 219.209 70.5032C218.959 71.1247 218.835 71.7894 218.844 72.459C218.833 73.1393 218.983 73.8126 219.281 74.4244C219.563 74.9924 219.959 75.496 220.445 75.9036C220.937 76.3133 221.499 76.6307 222.104 76.8406C222.719 77.0582 223.366 77.1692 224.018 77.1687C224.63 77.172 225.239 77.0998 225.833 76.9536C226.391 76.8152 226.928 76.6009 227.428 76.3167V73.8951ZM42.0702 58.9409V75.0936L28.0554 83.5201C27.8826 83.6242 27.6853 83.6809 27.4835 83.6844C27.2817 83.688 27.0825 83.6384 26.9061 83.5405L23.1448 81.4675C23.0904 81.4377 23.0476 81.3907 23.023 81.3339C22.9983 81.2771 22.9934 81.2138 23.0088 81.1539C23.0242 81.094 23.0592 81.0409 23.1083 81.003C23.1573 80.9651 23.2175 80.9446 23.2795 80.9447L24.4924 80.8371L37.9854 72.7301V56.9034L37.662 56.4375C37.6257 56.3854 37.6083 56.3224 37.6128 56.259C37.6173 56.1957 37.6433 56.1358 37.6866 56.0892C37.7299 56.0426 37.7878 56.0122 37.8508 56.003C37.9137 55.9937 37.978 56.0062 38.0329 56.0384L41.4773 57.9382C41.6567 58.0374 41.8063 58.1827 41.9106 58.359C42.0148 58.5353 42.0699 58.7362 42.0702 58.9409ZM43.1935 77.0364L29.045 85.5447C28.8755 85.6467 28.7352 85.7908 28.6379 85.9629C28.5407 86.135 28.4896 86.3292 28.4898 86.5268V90.7858C28.4898 90.8446 28.5084 90.9018 28.543 90.9494C28.5776 90.997 28.6263 91.0324 28.6823 91.0507C28.7382 91.0689 28.7986 91.0691 28.8546 91.0511C28.9107 91.0331 28.9596 90.9978 28.9944 90.9504L29.4816 90.2877L43.1935 82.042L56.7772 90.2178L57.3938 91.0042C57.4297 91.0499 57.4789 91.0833 57.5347 91.0997C57.5904 91.1162 57.65 91.1148 57.7049 91.0959C57.7599 91.0769 57.8076 91.0413 57.8413 90.994C57.875 90.9467 57.8931 90.8901 57.893 90.8321V86.529C57.8929 86.3313 57.8417 86.137 57.7442 85.9649C57.6468 85.7928 57.5064 85.6488 57.3367 85.5468L43.1935 77.0364ZM61.8937 80.8414L48.4071 72.7301V56.9034L48.696 56.4472C48.729 56.395 48.7437 56.3332 48.7377 56.2718C48.7317 56.2103 48.7054 56.1525 48.663 56.1076C48.6205 56.0626 48.5643 56.033 48.5031 56.0234C48.442 56.0138 48.3794 56.0248 48.3251 56.0546L44.9098 57.9382C44.7302 58.0375 44.5805 58.1829 44.4763 58.3594C44.372 58.5359 44.317 58.7371 44.3169 58.9419V75.0936L58.3317 83.5211C58.5044 83.6249 58.7014 83.6815 58.9029 83.6853C59.1044 83.689 59.3034 83.6398 59.4799 83.5427L63.2434 81.4826C63.2981 81.4526 63.3411 81.4052 63.3657 81.348C63.3903 81.2908 63.3949 81.227 63.3789 81.1668C63.3629 81.1067 63.3272 81.0536 63.2774 81.016C63.2276 80.9785 63.1667 80.9587 63.1043 80.9597L61.8937 80.8414Z" fill="white"/>
</svg>
