<svg width="181" height="59" viewBox="0 0 181 59" fill="none" xmlns="http://www.w3.org/2000/svg">
<path d="M47.848 26.688C47.848 27.136 48.072 27.488 48.52 27.744C48.9893 28 49.7147 28.2773 50.696 28.576C51.8693 28.96 52.8293 29.3333 53.576 29.696C54.344 30.0587 55.0053 30.624 55.56 31.392C56.136 32.16 56.424 33.1627 56.424 34.4C56.424 38.368 53.8427 40.352 48.68 40.352C47.8267 40.352 46.7813 40.2773 45.544 40.128C44.328 39.9787 43.2187 39.7867 42.216 39.552C42.2587 39.104 42.344 38.4533 42.472 37.6C42.6213 36.7253 42.76 36.0747 42.888 35.648C43.6347 35.7547 44.7547 35.8827 46.248 36.032C47.7627 36.1813 48.904 36.256 49.672 36.256C50.12 36.256 50.3867 36.224 50.472 36.16C50.6 36.0747 50.696 35.936 50.76 35.744C50.8453 35.5307 50.888 35.3493 50.888 35.2C50.888 34.7733 50.6853 34.4533 50.28 34.24C49.8747 34.0053 49.1813 33.728 48.2 33.408C47.0267 33.0453 46.056 32.672 45.288 32.288C44.52 31.904 43.848 31.3067 43.272 30.496C42.696 29.6853 42.408 28.6187 42.408 27.296C42.408 26.3573 42.6213 25.44 43.048 24.544C43.4747 23.6267 43.912 23.008 44.36 22.688C44.7013 22.4533 45.4053 22.2293 46.472 22.016C47.5387 21.8027 48.5413 21.696 49.48 21.696C51.8693 21.696 53.8213 21.92 55.336 22.368C55.3147 22.7947 55.24 23.3813 55.112 24.128C55.0053 24.8747 54.888 25.5573 54.76 26.176L54.024 26.144C51.2507 25.952 49.48 25.856 48.712 25.856C48.392 25.856 48.2107 25.8667 48.168 25.888C48.0827 25.9307 48.008 26.0267 47.944 26.176C47.88 26.3253 47.848 26.496 47.848 26.688ZM65.076 33.952C65.076 34.336 65.0867 34.7413 65.108 35.168C65.1293 35.5733 65.1933 35.8293 65.3 35.936C65.4493 36.0853 65.972 36.16 66.868 36.16L67.956 36.128C68.148 37.152 68.244 38.336 68.244 39.68C67.8387 39.8293 67.2413 39.968 66.452 40.096C65.684 40.224 64.948 40.288 64.244 40.288C62.772 40.288 61.6307 39.968 60.82 39.328C60.0307 38.6667 59.636 37.6533 59.636 36.288V28.416H57.236V25.504L59.636 25.28L61.076 21.76L65.076 21.536V25.28H68.468V28.416H65.076V33.952ZM79.7045 24.96C79.9818 24.96 80.2698 24.992 80.5685 25.056C80.8885 25.12 81.1232 25.1947 81.2725 25.28C81.2725 25.7493 81.2192 26.528 81.1125 27.616C81.0058 28.6827 80.9098 29.44 80.8245 29.888C80.6112 29.8667 80.2165 29.856 79.6405 29.856C78.2965 29.856 77.1018 29.9307 76.0565 30.08V40H70.5845V25.28H75.1605L75.8005 27.648H75.8325C76.4512 26.8373 77.1125 26.1867 77.8165 25.696C78.5205 25.2053 79.1498 24.96 79.7045 24.96ZM90.2935 40.416C87.7335 40.416 85.8135 39.8187 84.5335 38.624C83.2748 37.408 82.6455 35.4987 82.6455 32.896C82.6455 31.4667 82.7735 30.2187 83.0295 29.152C83.3068 28.064 83.6375 27.3067 84.0215 26.88C84.5122 26.3253 85.4082 25.8667 86.7095 25.504C88.0322 25.1413 89.2695 24.96 90.4215 24.96C93.1735 24.96 95.1362 25.5467 96.3095 26.72C97.4828 27.8933 98.0695 29.7707 98.0695 32.352C98.0695 35.1253 97.4402 37.1627 96.1815 38.464C94.9228 39.7653 92.9602 40.416 90.2935 40.416ZM90.3895 36.672C91.2215 36.672 91.7655 36.384 92.0215 35.808C92.2775 35.2107 92.4055 34.1653 92.4055 32.672C92.4055 31.6267 92.3522 30.8267 92.2455 30.272C92.1388 29.696 91.9362 29.28 91.6375 29.024C91.3602 28.7467 90.9228 28.608 90.3255 28.608C89.4722 28.608 88.9815 28.6827 88.8535 28.832C88.6828 28.9813 88.5442 29.4507 88.4375 30.24C88.3308 31.0293 88.2775 31.8507 88.2775 32.704C88.2775 34.1547 88.4162 35.1787 88.6935 35.776C88.9922 36.3733 89.5575 36.672 90.3895 36.672ZM115.87 25.28L112.03 37.6C111.284 39.968 110.612 41.6853 110.014 42.752C109.417 43.84 108.82 44.5973 108.222 45.024C107.881 45.2587 107.337 45.44 106.59 45.568C105.865 45.696 105.076 45.76 104.222 45.76C102.942 45.76 101.918 45.6427 101.15 45.408C101.129 44.896 101.15 44.2667 101.214 43.52C101.278 42.7947 101.364 42.176 101.47 41.664C102.366 41.7067 103.241 41.728 104.094 41.728C104.734 41.728 105.214 41.7173 105.534 41.696C105.854 41.0773 106.153 40.4267 106.43 39.744L104.222 39.616L99.2942 25.28H105.086L107.646 35.584L107.678 36.192H107.774L110.078 25.28H115.87ZM124.306 21.76C126.802 21.76 128.84 21.9947 130.418 22.464C132.018 22.9333 133.256 23.8187 134.13 25.12C135.026 26.4213 135.474 28.288 135.474 30.72C135.474 33.3227 135.005 35.3067 134.066 36.672C133.128 38.016 131.869 38.912 130.29 39.36C128.712 39.7867 126.717 40 124.306 40H117.906V21.76H124.306ZM128.594 35.648C128.85 35.392 129.032 34.7307 129.138 33.664C129.245 32.5973 129.298 31.616 129.298 30.72C129.298 29.5893 129.213 28.6933 129.042 28.032C128.893 27.3493 128.616 26.8053 128.21 26.4C127.57 25.696 126.472 25.344 124.914 25.344C124.637 25.344 124.221 25.3653 123.666 25.408V36.032C124.029 36.0747 124.594 36.096 125.362 36.096C126.152 36.096 126.845 36.064 127.442 36C128.061 35.9147 128.445 35.7973 128.594 35.648ZM145.327 40.416C142.767 40.416 140.847 39.8187 139.567 38.624C138.309 37.408 137.679 35.4987 137.679 32.896C137.679 31.4667 137.807 30.2187 138.063 29.152C138.341 28.064 138.671 27.3067 139.055 26.88C139.546 26.3253 140.442 25.8667 141.743 25.504C143.066 25.1413 144.303 24.96 145.455 24.96C148.207 24.96 150.17 25.5467 151.343 26.72C152.517 27.8933 153.103 29.7707 153.103 32.352C153.103 35.1253 152.474 37.1627 151.215 38.464C149.957 39.7653 147.994 40.416 145.327 40.416ZM145.423 36.672C146.255 36.672 146.799 36.384 147.055 35.808C147.311 35.2107 147.439 34.1653 147.439 32.672C147.439 31.6267 147.386 30.8267 147.279 30.272C147.173 29.696 146.97 29.28 146.671 29.024C146.394 28.7467 145.957 28.608 145.359 28.608C144.506 28.608 144.015 28.6827 143.887 28.832C143.717 28.9813 143.578 29.4507 143.471 30.24C143.365 31.0293 143.311 31.8507 143.311 32.704C143.311 34.1547 143.45 35.1787 143.727 35.776C144.026 36.3733 144.591 36.672 145.423 36.672ZM178.68 26.304C179.021 26.816 179.192 28.8 179.192 32.256V40H173.72V32.8V31.072C173.72 30.2827 173.645 29.8133 173.496 29.664C173.325 29.4933 172.963 29.408 172.408 29.408L172.024 29.44C171.363 29.4827 170.733 29.632 170.136 29.888C170.157 30.336 170.168 31.1253 170.168 32.256V40H164.696V32.8V30.88C164.696 30.2187 164.621 29.8133 164.472 29.664C164.301 29.4933 163.939 29.408 163.384 29.408L163 29.44C162.403 29.4613 161.784 29.6 161.144 29.856V40H155.672V25.28H160.12L160.696 27.68C161.4 26.7413 162.211 26.0587 163.128 25.632C164.045 25.184 164.973 24.96 165.912 24.96C166.701 24.96 167.448 25.0773 168.152 25.312C168.877 25.5467 169.379 25.8773 169.656 26.304C169.784 26.496 169.891 26.848 169.976 27.36C170.659 26.528 171.437 25.92 172.312 25.536C173.187 25.152 174.061 24.96 174.936 24.96C175.725 24.96 176.472 25.0773 177.176 25.312C177.901 25.5467 178.403 25.8773 178.68 26.304Z" fill="#E7BF9D"/>
<g clip-path="url(#clip0_10_9)">
<path fill-rule="evenodd" clip-rule="evenodd" d="M43.3179 19.7969V20.4092V22.2461H39.644V40.6152H20.6626V22.2461H13.9272V19.3376L20.6626 15.3271L23.7547 17.164L32.0208 11.2246L43.3179 19.3683V19.7969Z" fill="#58595B"/>
<path fill-rule="evenodd" clip-rule="evenodd" d="M15.1519 40.6152H26.1733V20.0112L20.6626 16.7354L15.1519 20.0112V40.6152Z" fill="#E7BF9D"/>
<path d="M42.0933 21.0215H27.3979V40.5846H42.0933V21.0215Z" fill="#E7BF9D"/>
<path fill-rule="evenodd" clip-rule="evenodd" d="M21.1831 28.6753H16.9888V21.0215H24.3364V28.6753H21.1831Z" fill="#D1D3D4"/>
<path d="M23.1118 25.0015H18.2134V27.4507H23.1118V25.0015Z" fill="#00AEEF"/>
<path d="M23.1118 22.2461H18.2134V23.7769H23.1118V22.2461Z" fill="#00AEEF"/>
<path fill-rule="evenodd" clip-rule="evenodd" d="M21.1831 37.8599H16.9888V30.2061H24.3364V37.8599H21.1831Z" fill="#D1D3D4"/>
<path d="M23.1118 34.186H18.2134V36.6353H23.1118V34.186Z" fill="#00AEEF"/>
<path d="M23.1118 31.4307H18.2134V32.9614H23.1118V31.4307Z" fill="#00AEEF"/>
<path fill-rule="evenodd" clip-rule="evenodd" d="M31.4085 30.2062H28.6226V22.583H33.521V30.2062H31.4085Z" fill="#D1D3D4"/>
<path d="M32.2964 26.5322H29.8472V28.9814H32.2964V26.5322Z" fill="#00AEEF"/>
<path d="M32.2964 23.8076H29.8472V25.3384H32.2964V23.8076Z" fill="#00AEEF"/>
<path fill-rule="evenodd" clip-rule="evenodd" d="M31.4085 39.3908H28.6226V31.7676H33.521V39.3908H31.4085Z" fill="#D1D3D4"/>
<path d="M32.2964 35.7168H29.8472V38.166H32.2964V35.7168Z" fill="#00AEEF"/>
<path d="M32.2964 32.9922H29.8472V34.5229H32.2964V32.9922Z" fill="#00AEEF"/>
<path fill-rule="evenodd" clip-rule="evenodd" d="M38.2357 30.2062H34.7456V22.583H40.8687V30.2062H38.2357Z" fill="#D1D3D4"/>
<path d="M39.644 26.5322H35.9702V28.9814H39.644V26.5322Z" fill="#00AEEF"/>
<path d="M39.644 23.8076H35.9702V25.3384H39.644V23.8076Z" fill="#00AEEF"/>
<path fill-rule="evenodd" clip-rule="evenodd" d="M38.2357 39.3908H34.7456V31.7676H40.8687V39.3908H38.2357Z" fill="#D1D3D4"/>
<path d="M39.644 35.7168H35.9702V38.166H39.644V35.7168Z" fill="#00AEEF"/>
<path d="M39.644 32.9922H35.9702V34.5229H39.644V32.9922Z" fill="#00AEEF"/>
<path fill-rule="evenodd" clip-rule="evenodd" d="M30.4595 14.5312H31.6841V15.7559H30.4595V14.5312ZM30.4595 16.9805H31.6841V18.2051H30.4595V16.9805ZM32.9087 16.9805H34.1333V18.2051H32.9087V16.9805ZM32.9087 14.5312H34.1333V15.7559H32.9087V14.5312Z" fill="#D1D3D4"/>
</g>
<g clip-path="url(#clip1_10_9)">
<g filter="url(#filter0_d_10_9)">
<path fill-rule="evenodd" clip-rule="evenodd" d="M17.4662 27.7659L21.397 32.389L21.2649 32.48C20.8979 32.7921 20.4614 33.1634 20.096 33.474C20.027 33.5327 19.9677 33.5985 19.9219 33.672L15.6288 28.6228L17.4662 27.7659Z" fill="#333333"/>
<path fill-rule="evenodd" clip-rule="evenodd" d="M17.4661 27.7661L17.9381 28.3212L17.806 28.4125C17.439 28.7243 17.0025 29.0957 16.6371 29.4063C16.5681 29.465 16.5088 29.5307 16.4629 29.6042L15.6286 28.623L17.4661 27.7661Z" fill="#262626"/>
<path fill-rule="evenodd" clip-rule="evenodd" d="M20.4122 33.2042L21.3866 32.3757L21.3977 32.3887L21.2656 32.4802L20.4122 33.2042ZM16.0183 28.4398L20.2132 33.3734L20.096 33.473C20.0272 33.5315 19.9681 33.5977 19.9223 33.6719L15.6296 28.6213L16.0183 28.4398Z" fill="#666666"/>
<path fill-rule="evenodd" clip-rule="evenodd" d="M16.8745 27.9606L17.4669 27.7661L21.3977 32.3891L21.2655 32.4806C20.8975 32.7919 20.4622 33.1637 20.096 33.4734C20.0272 33.5319 19.9681 33.5981 19.9223 33.6724L19.524 33.202L20.4501 32.4146L20.5822 32.3231L16.8745 27.9606Z" fill="#262626"/>
<path fill-rule="evenodd" clip-rule="evenodd" d="M11.2558 31.5671C11.2181 31.6368 11.1367 31.6706 11.0608 31.6472C10.985 31.624 10.9361 31.5504 10.9441 31.4716C11.1098 30.273 11.6464 28.2594 13.3827 26.8142C15.8638 24.7494 16.118 24.8879 16.118 24.8879C16.118 24.8879 17.2383 22.9265 18.0983 22.2339C18.2403 22.1458 18.4252 22.1753 18.5328 22.3028C19.0079 22.8602 20.2154 24.2902 20.7219 24.8899C20.7835 24.9629 20.8115 25.0584 20.7993 25.153C20.787 25.2478 20.7354 25.333 20.6572 25.3876C20.1698 25.7366 19.195 26.3819 18.5547 26.3925C17.9427 26.4024 17.6049 27.9135 17.6049 27.9135L16.1425 29.1385C16.1425 29.1385 13.3038 27.7887 11.2558 31.5671Z" fill="#9E9E9E"/>
<path fill-rule="evenodd" clip-rule="evenodd" d="M12.0728 30.3547C11.7933 30.6836 11.5185 31.0839 11.256 31.5666C11.2192 31.6363 11.1369 31.6695 11.0607 31.6477C10.9847 31.6243 10.9369 31.5511 10.9451 31.4721C11.1096 30.2733 11.6466 28.2595 13.3827 26.8138C15.865 24.7497 16.1188 24.888 16.1188 24.888C16.1188 24.888 17.2386 22.9266 18.0981 22.2343C18.2404 22.1453 18.4251 22.1741 18.5342 22.3024C18.5895 22.3675 18.6542 22.4455 18.7286 22.5312C17.916 23.3503 16.9979 24.9592 16.9979 24.9592C16.9979 24.9592 16.7424 24.8207 14.2619 26.885C13.0196 27.9204 12.3912 29.2445 12.0728 30.3547Z" fill="#B6B6B6"/>
<path fill-rule="evenodd" clip-rule="evenodd" d="M15.3706 28.9332L16.6784 27.8373C16.6784 27.8373 17.0153 26.3268 17.6291 26.3176C18.2689 26.3071 19.2442 25.6605 19.7313 25.312C19.8084 25.2576 19.8604 25.1718 19.8732 25.0775C19.8843 24.9832 19.8575 24.8875 19.7958 24.815C19.3549 24.2927 18.3831 23.1422 17.8249 22.4857C17.9193 22.3895 18.011 22.3051 18.0981 22.2343C18.2404 22.1453 18.4251 22.1741 18.5342 22.3024C19.0085 22.8603 20.2158 24.2897 20.7231 24.89C20.7847 24.9626 20.8116 25.0582 20.8005 25.1526C20.7877 25.2468 20.7357 25.3327 20.6569 25.3869C20.1698 25.7354 19.1962 26.3821 18.5546 26.3925C17.9426 26.4019 17.6057 27.9123 17.6057 27.9123L16.1437 29.1378C16.1437 29.1378 15.8435 28.9957 15.3706 28.9332ZM14.7318 28.9092C13.7332 28.9669 12.3757 29.4995 11.256 31.5666C11.2192 31.6363 11.1369 31.6695 11.0607 31.6477C10.9847 31.6243 10.9369 31.5511 10.9451 31.4721C10.9954 31.1074 11.0793 30.6691 11.2215 30.1958C12.5574 28.6882 14.0021 28.7463 14.7318 28.9092Z" fill="#767676"/>
<path fill-rule="evenodd" clip-rule="evenodd" d="M22.702 32.5964C22.3368 32.1669 21.695 32.1149 21.2655 32.4802C20.8974 32.7915 20.4621 33.1632 20.0959 33.473C19.6719 33.8335 19.6154 34.4679 19.9702 34.8984C21.2173 36.4141 23.9181 39.6942 24.5598 40.4734C24.6528 40.5866 24.7387 40.7027 24.8189 40.8252C25.1706 41.3575 26.2071 42.9289 26.7346 43.7283C26.8149 43.8491 26.9434 43.9305 27.0872 43.9508C27.231 43.9711 27.3764 43.9292 27.4878 43.836C28.0569 43.3522 28.8472 42.6802 29.1746 42.4002C29.2731 42.3181 29.3347 42.1984 29.345 42.0711C29.3776 41.6685 29.4505 40.7671 29.4872 40.3146C29.5005 40.1494 29.427 39.9877 29.2931 39.8885C29.0857 39.7332 28.7705 39.4981 28.5355 39.3215C28.3264 39.1661 28.1366 38.9862 27.9673 38.789C27.0741 37.7366 24.0507 34.1827 22.702 32.5964ZM26.5957 40.9724C26.6261 40.5974 26.9553 40.3175 27.332 40.348C27.7071 40.3783 27.9869 40.7075 27.9566 41.0826C27.9262 41.4576 27.5969 41.7392 27.2219 41.7088C26.8451 41.6783 26.5654 41.3475 26.5957 40.9724Z" fill="#F47632"/>
<path fill-rule="evenodd" clip-rule="evenodd" d="M27.538 43.7933L27.5363 43.7932C27.0088 42.9938 25.974 41.4226 25.6205 40.89C25.5404 40.7675 25.4546 40.6515 25.3616 40.5383C24.7198 39.7591 22.0207 36.4791 20.7719 34.9633C20.4188 34.5329 20.4753 33.8985 20.8993 33.538C21.2638 33.2281 21.7008 32.8565 22.0672 32.5451C22.1695 32.4581 22.2837 32.3946 22.403 32.354C22.0442 32.1657 21.5928 32.2019 21.2655 32.4802C20.8974 32.7915 20.4621 33.1632 20.0959 33.473C19.6719 33.8335 19.6154 34.4679 19.9702 34.8984C21.2173 36.4141 23.9181 39.6942 24.5598 40.4734C24.6528 40.5866 24.7387 40.7027 24.8189 40.8252C25.1706 41.3575 26.2071 42.9289 26.7346 43.7283C26.8149 43.8491 26.9434 43.9305 27.0872 43.9508C27.231 43.9711 27.3764 43.9292 27.4878 43.836L27.538 43.7933Z" fill="#F79865"/>
<path fill-rule="evenodd" clip-rule="evenodd" d="M21.4794 32.3399C21.5466 32.3869 21.6111 32.4458 21.6663 32.5126C23.0167 34.099 26.0383 37.6527 26.9333 38.7053C27.1009 38.9024 27.2924 39.0824 27.5015 39.2378C27.7365 39.4144 28.0517 39.6495 28.2591 39.8048C28.3913 39.9038 28.4648 40.0656 28.4514 40.2308C28.4148 40.6832 28.3419 41.5847 28.3093 41.9873C28.299 42.1146 28.2391 42.2344 28.1406 42.3165L26.6436 43.5893L26.7346 43.7283C26.8148 43.8491 26.9433 43.9305 27.0872 43.9508C27.231 43.9711 27.3763 43.9292 27.4878 43.836C28.0568 43.3522 28.8472 42.6802 29.1746 42.4002C29.273 42.3181 29.3347 42.1984 29.345 42.0711C29.3775 41.6685 29.4505 40.7671 29.4871 40.3146C29.5005 40.1494 29.427 39.9877 29.293 39.8885C29.0857 39.7332 28.7705 39.4981 28.5354 39.3215C28.3264 39.1661 28.1366 38.9862 27.9672 38.789C27.074 37.7366 24.0507 34.1827 22.702 32.5964C22.3936 32.2338 21.8869 32.1408 21.4794 32.3399Z" fill="#B75825"/>
</g>
</g>
<defs>
<filter id="filter0_d_10_9" x="6.94336" y="18.1826" width="26.5454" height="29.7734" filterUnits="userSpaceOnUse" color-interpolation-filters="sRGB">
<feFlood flood-opacity="0" result="BackgroundImageFix"/>
<feColorMatrix in="SourceAlpha" type="matrix" values="0 0 0 0 0 0 0 0 0 0 0 0 0 0 0 0 0 0 127 0" result="hardAlpha"/>
<feOffset/>
<feGaussianBlur stdDeviation="2"/>
<feComposite in2="hardAlpha" operator="out"/>
<feColorMatrix type="matrix" values="0 0 0 0 0 0 0 0 0 0 0 0 0 0 0 0 0 0 0.5 0"/>
<feBlend mode="normal" in2="BackgroundImageFix" result="effect1_dropShadow_10_9"/>
<feBlend mode="normal" in="SourceGraphic" in2="effect1_dropShadow_10_9" result="shape"/>
</filter>
<clipPath id="clip0_10_9">
<rect width="29.3906" height="29.3906" fill="white" transform="translate(13.8047 11.1328)"/>
</clipPath>
<clipPath id="clip1_10_9">
<rect width="22.2656" height="22.2656" fill="white" transform="translate(8.46094 43.1226) rotate(-85.3732)"/>
</clipPath>
</defs>
</svg>
