<svg width="20" height="22" viewBox="0 0 20 22" fill="none" xmlns="http://www.w3.org/2000/svg">
<g filter="url(#filter0_d_10_4)">
<path d="M9.99977 4L9.229 5.43333L9.99977 6.60739C11.448 6.60739 12.6262 7.78561 12.6262 9.23381C12.6262 10.682 11.448 11.8602 9.99977 11.8602L9.42837 14.7653L9.99977 18C10.4599 18 10.9201 17.8211 11.2661 17.4633C12.8151 15.8618 15.2336 12.7916 15.2336 9.23384C15.2336 6.34325 12.8903 4 9.99977 4Z" fill="#E7BF9D"/>
</g>
<g filter="url(#filter1_d_10_4)">
<path d="M7.37348 9.23381C7.37348 7.78563 8.55166 6.60739 9.9999 6.60739V4C7.10934 4 4.76611 6.34325 4.76611 9.23378C4.76611 12.7916 7.18459 15.8617 8.73353 17.4632C9.07959 17.8211 9.53976 17.9999 9.9999 17.9999V11.8602C8.55166 11.8602 7.37348 10.682 7.37348 9.23381Z" fill="#F79865"/>
</g>
<defs>
<filter id="filter0_d_10_4" x="5.229" y="0" width="14.0046" height="22" filterUnits="userSpaceOnUse" color-interpolation-filters="sRGB">
<feFlood flood-opacity="0" result="BackgroundImageFix"/>
<feColorMatrix in="SourceAlpha" type="matrix" values="0 0 0 0 0 0 0 0 0 0 0 0 0 0 0 0 0 0 127 0" result="hardAlpha"/>
<feOffset/>
<feGaussianBlur stdDeviation="2"/>
<feComposite in2="hardAlpha" operator="out"/>
<feColorMatrix type="matrix" values="0 0 0 0 0 0 0 0 0 0 0 0 0 0 0 0 0 0 0.25 0"/>
<feBlend mode="normal" in2="BackgroundImageFix" result="effect1_dropShadow_10_4"/>
<feBlend mode="normal" in="SourceGraphic" in2="effect1_dropShadow_10_4" result="shape"/>
</filter>
<filter id="filter1_d_10_4" x="0.766113" y="0" width="13.2339" height="22" filterUnits="userSpaceOnUse" color-interpolation-filters="sRGB">
<feFlood flood-opacity="0" result="BackgroundImageFix"/>
<feColorMatrix in="SourceAlpha" type="matrix" values="0 0 0 0 0 0 0 0 0 0 0 0 0 0 0 0 0 0 127 0" result="hardAlpha"/>
<feOffset/>
<feGaussianBlur stdDeviation="2"/>
<feComposite in2="hardAlpha" operator="out"/>
<feColorMatrix type="matrix" values="0 0 0 0 0 0 0 0 0 0 0 0 0 0 0 0 0 0 0.25 0"/>
<feBlend mode="normal" in2="BackgroundImageFix" result="effect1_dropShadow_10_4"/>
<feBlend mode="normal" in="SourceGraphic" in2="effect1_dropShadow_10_4" result="shape"/>
</filter>
</defs>
</svg>
