<svg width="35" height="35" viewBox="0 0 35 35" fill="none" xmlns="http://www.w3.org/2000/svg">
<ellipse cx="17.3989" cy="17.4177" rx="16.5825" ry="16.5825" fill="white"/>
<path d="M34.7712 17.2897C34.7219 13.2467 33.2558 9.34903 30.6283 6.2758C28.0008 3.20258 24.3783 1.14855 20.3921 0.471533C16.4058 -0.205481 12.3084 0.537436 8.81356 2.57086C5.31873 4.60429 2.64804 7.79934 1.26673 11.5994C-0.114575 15.3995 -0.118945 19.5637 1.25438 23.3667C2.62771 27.1697 5.29169 30.3703 8.78224 32.4111C12.2728 34.4518 16.3687 35.2033 20.3563 34.5347C24.344 33.866 27.9707 31.8196 30.6047 28.7519C30.7104 28.629 30.7909 28.4864 30.8415 28.3324C30.8921 28.1784 30.9119 28.0159 30.8998 27.8542C30.8876 27.6926 30.8437 27.5349 30.7706 27.3902C30.6975 27.2454 30.5966 27.1166 30.4736 27.0108C30.3507 26.9051 30.2082 26.8247 30.0542 26.774C29.9001 26.7234 29.7376 26.7036 29.576 26.7158C29.4143 26.7279 29.2566 26.7718 29.1119 26.845C28.9672 26.9181 28.8383 27.019 28.7326 27.1419C26.3478 29.9227 23.0138 31.717 19.3792 32.1757C15.7447 32.6344 12.0695 31.7247 9.06853 29.6235C6.06761 27.5224 3.95559 24.3801 3.14335 20.8079C2.33111 17.2357 2.87673 13.489 4.67407 10.2969C6.47141 7.10471 9.39193 4.69526 12.8675 3.53728C16.343 2.37929 20.1251 2.55558 23.4778 4.03183C26.8306 5.50808 29.5144 8.17874 31.007 11.5243C32.4996 14.8698 32.6943 18.6509 31.5533 22.1321C31.5027 22.2863 31.483 22.4489 31.4952 22.6107C31.5075 22.7726 31.5515 22.9304 31.6247 23.0752C31.698 23.22 31.799 23.349 31.9221 23.4548C32.0452 23.5606 32.1879 23.6411 32.3421 23.6917C32.4963 23.7423 32.6589 23.762 32.8208 23.7498C32.9826 23.7375 33.1404 23.6935 33.2853 23.6203C33.4301 23.5471 33.5591 23.446 33.6648 23.3229C33.7706 23.1998 33.8511 23.0571 33.9017 22.9029C34.4971 21.0921 34.7908 19.1958 34.7712 17.2897Z" fill="#F47632"/>
<path d="M27.2094 17.3898C27.2051 17.0626 27.0709 16.7506 26.8365 16.5223C26.6021 16.294 26.2866 16.1682 25.9594 16.1726L14.8567 16.3198C14.5295 16.3242 14.2174 16.4583 13.9892 16.6927C13.7609 16.9271 13.6351 17.2426 13.6394 17.5698C13.6437 17.897 13.7779 18.2091 14.0123 18.4373C14.2467 18.6656 14.5622 18.7914 14.8894 18.7871L25.9921 18.6398C26.3193 18.6355 26.6314 18.5014 26.8597 18.2669C27.0879 18.0325 27.2138 17.717 27.2094 17.3898Z" fill="#E7BF9D"/>
<path d="M15.5572 22.7821C15.556 22.6198 15.5228 22.4592 15.4594 22.3097C15.396 22.1603 15.3037 22.0247 15.1879 21.911L10.7691 17.6079L15.0722 13.1892C15.3006 12.9546 15.4265 12.639 15.4221 12.3116C15.4178 11.9842 15.2836 11.672 15.049 11.4436C14.8145 11.2152 14.4988 11.0893 14.1714 11.0936C13.8441 11.098 13.5319 11.2322 13.3034 11.4668L8.13611 16.773C7.90941 17.0072 7.78459 17.3216 7.78892 17.6475C7.79324 17.9734 7.92635 18.2843 8.15918 18.5124L13.4654 23.6797C13.5815 23.7929 13.7188 23.8821 13.8694 23.9422C14.02 24.0023 14.1809 24.0321 14.343 24.03C14.5052 24.0278 14.6653 23.9937 14.8142 23.9297C14.9631 23.8656 15.098 23.7728 15.211 23.6566C15.4374 23.4222 15.5618 23.1079 15.5572 22.7821Z" fill="#E7BF9D"/>
</svg>
