<svg width="240" height="49" viewBox="0 0 240 49" fill="none" xmlns="http://www.w3.org/2000/svg">
<path d="M17.2115 25.4156L7.08755 21.0439L11.1642 19.2836L21.2881 23.6553L17.2115 25.4156Z" fill="#FFBF8E"/>
<path d="M5.00696 21.9424L15.1309 26.3141L11.1642 28.027L1.04026 23.6553L5.00696 21.9424Z" fill="#FFBF8E"/>
<path d="M12.0945 29.422L22.3284 25.0029V34.148L12.0945 38.5671V29.422Z" fill="#F48A4E"/>
<path d="M10.2336 29.422V38.5671L-0.000187874 34.148V25.0029L10.2336 29.422Z" fill="#E79165"/>
<g clip-path="url(#clip0_36_469)">
<path d="M19.2836 27.403V40.597H68V31.4627H37.5522V15.7313C37.5522 15.0584 37.2849 14.413 36.8091 13.9372C36.3332 13.4614 35.6879 13.194 35.0149 13.194H26.1445C25.6215 13.1935 25.1112 13.3553 24.684 13.6571C24.2568 13.9588 23.9337 14.3857 23.7594 14.8788L23.2722 16.2388L19.2836 27.403Z" fill="#F48A4E"/>
<path d="M19.2837 27.403H34.5076V16.2388H23.2723L19.2837 27.403Z" fill="#A4D2FF"/>
<path d="M37.5522 3.0448H68V31.4627H37.5522V3.0448Z" fill="#FFBF8E"/>
<path d="M49.7312 3.0448V8.11943L51.2536 6.90152L52.776 8.11943L54.2984 6.90152L55.8208 8.11943V3.0448H49.7312Z" fill="#E79165"/>
<path d="M19.7911 32.4776H19.2836V36.5373H19.7911C20.1949 36.5373 20.5821 36.3769 20.8676 36.0914C21.1531 35.8059 21.3135 35.4187 21.3135 35.0149V34C21.3135 33.5962 21.1531 33.209 20.8676 32.9235C20.5821 32.638 20.1949 32.4776 19.7911 32.4776Z" fill="#FFDE76"/>
<path d="M27.4029 45.6717C24.6003 45.6717 22.3283 43.3997 22.3283 40.597C22.3283 37.7944 24.6003 35.5224 27.4029 35.5224C30.2056 35.5224 32.4775 37.7944 32.4775 40.597C32.4775 43.3997 30.2056 45.6717 27.4029 45.6717Z" fill="#3B506D"/>
<path d="M27.403 42.6268C26.282 42.6268 25.3732 41.718 25.3732 40.597C25.3732 39.4759 26.282 38.5671 27.403 38.5671C28.5241 38.5671 29.4329 39.4759 29.4329 40.597C29.4329 41.718 28.5241 42.6268 27.403 42.6268Z" fill="#C6C3D8"/>
<path d="M59.8807 45.6717C57.0781 45.6717 54.8061 43.3997 54.8061 40.597C54.8061 37.7944 57.0781 35.5224 59.8807 35.5224C62.6833 35.5224 64.9553 37.7944 64.9553 40.597C64.9553 43.3997 62.6833 45.6717 59.8807 45.6717Z" fill="#3B506D"/>
<path d="M59.8805 42.6268C58.7595 42.6268 57.8507 41.718 57.8507 40.597C57.8507 39.4759 58.7595 38.5671 59.8805 38.5671C61.0016 38.5671 61.9104 39.4759 61.9104 40.597C61.9104 41.718 61.0016 42.6268 59.8805 42.6268Z" fill="#C6C3D8"/>
<path d="M60.8954 23.3433H63.9402V28.4179H60.8954V23.3433Z" fill="#687D94"/>
<path d="M58.886 23.3433H65.9905L62.4382 20.2985L58.886 23.3433Z" fill="#687D94"/>
</g>
<g filter="url(#filter0_d_36_469)">
<path d="M61.8815 29L60.7091 25.1673H54.8473L53.6749 29H50L55.6815 12.8349H59.8524L65.5564 29H61.8815ZM58.7251 18.5615C58.6499 18.3059 58.5522 17.9828 58.432 17.592C58.3118 17.2012 58.1915 16.8029 58.0713 16.3971C57.951 15.9913 57.8533 15.6381 57.7782 15.3375C57.703 15.6381 57.5978 16.0138 57.4625 16.4647C57.3423 16.9006 57.2221 17.3215 57.1018 17.7273C56.9966 18.1181 56.9139 18.3961 56.8538 18.5615L55.704 22.304H59.8975L58.7251 18.5615Z" fill="#3B506D"/>
<path d="M80.6941 23.3185C80.6941 24.4308 80.4461 25.4378 79.9501 26.3396C79.4691 27.2264 78.7326 27.9328 77.7406 28.4589C76.7636 28.9699 75.5236 29.2255 74.0206 29.2255C71.8863 29.2255 70.263 28.6844 69.1508 27.6022C68.0385 26.505 67.4824 25.0621 67.4824 23.2735V12.9025H70.8868V22.7549C70.8868 24.0776 71.1573 25.0095 71.6984 25.5505C72.2395 26.0916 73.0436 26.3622 74.1108 26.3622C74.8623 26.3622 75.471 26.2344 75.937 25.9789C76.4029 25.7234 76.7411 25.3251 76.9515 24.784C77.177 24.2429 77.2897 23.559 77.2897 22.7324V12.9025H80.6941V23.3185ZM90.8363 29H87.432V15.7433H83.0582V12.9025H95.2102V15.7433H90.8363V29ZM111.862 20.9287C111.862 22.1762 111.704 23.311 111.388 24.3331C111.087 25.3401 110.622 26.2119 109.99 26.9484C109.374 27.6848 108.577 28.2485 107.6 28.6393C106.639 29.0301 105.504 29.2255 104.196 29.2255C102.888 29.2255 101.746 29.0301 100.769 28.6393C99.8073 28.2335 99.0106 27.6698 98.3794 26.9484C97.7631 26.2119 97.2972 25.3326 96.9816 24.3105C96.681 23.2885 96.5306 22.1537 96.5306 20.9062C96.5306 19.2378 96.8012 17.7874 97.3423 16.5549C97.8984 15.3224 98.7401 14.368 99.8674 13.6916C101.01 13.0002 102.46 12.6545 104.219 12.6545C105.962 12.6545 107.398 13.0002 108.525 13.6916C109.652 14.368 110.486 15.3299 111.027 16.5775C111.583 17.8099 111.862 19.2604 111.862 20.9287ZM100.115 20.9287C100.115 22.056 100.258 23.0255 100.544 23.8371C100.829 24.6487 101.273 25.2725 101.874 25.7084C102.475 26.1442 103.249 26.3622 104.196 26.3622C105.173 26.3622 105.955 26.1442 106.541 25.7084C107.142 25.2725 107.578 24.6487 107.848 23.8371C108.134 23.0255 108.277 22.056 108.277 20.9287C108.277 19.2303 107.961 17.9001 107.33 16.9382C106.699 15.9762 105.662 15.4953 104.219 15.4953C103.257 15.4953 102.475 15.7132 101.874 16.1491C101.273 16.585 100.829 17.2087 100.544 18.0204C100.258 18.832 100.115 19.8015 100.115 20.9287ZM120.713 29H117.309V15.7433H112.935V12.9025H125.087V15.7433H120.713V29ZM132.259 12.9025C133.717 12.9025 134.919 13.0829 135.866 13.4436C136.813 13.7893 137.52 14.3229 137.986 15.0444C138.452 15.7508 138.684 16.6451 138.684 17.7273C138.684 18.4638 138.542 19.1101 138.256 19.6662C137.986 20.2073 137.617 20.6732 137.151 21.064C136.7 21.4398 136.212 21.7479 135.686 21.9884L140.42 29H136.633L132.8 22.8225H130.974V29H127.57V12.9025H132.259ZM132.011 15.6982H130.974V20.0495H132.079C132.83 20.0495 133.439 19.9668 133.905 19.8015C134.371 19.6361 134.709 19.3881 134.919 19.0575C135.13 18.7118 135.235 18.2984 135.235 17.8175C135.235 17.3064 135.115 16.9006 134.874 16.6C134.649 16.2844 134.296 16.0589 133.815 15.9236C133.349 15.7733 132.748 15.6982 132.011 15.6982ZM152.305 29L151.133 25.1673H145.271L144.099 29H140.424L146.105 12.8349H150.276L155.98 29H152.305ZM149.149 18.5615C149.074 18.3059 148.976 17.9828 148.856 17.592C148.736 17.2012 148.616 16.8029 148.495 16.3971C148.375 15.9913 148.277 15.6381 148.202 15.3375C148.127 15.6381 148.022 16.0138 147.887 16.4647C147.766 16.9006 147.646 17.3215 147.526 17.7273C147.421 18.1181 147.338 18.3961 147.278 18.5615L146.128 22.304H150.321L149.149 18.5615ZM167.511 24.536C167.511 25.4829 167.278 26.3096 166.812 27.016C166.346 27.7224 165.67 28.271 164.783 28.6618C163.911 29.0376 162.844 29.2255 161.581 29.2255C161.025 29.2255 160.477 29.1879 159.936 29.1127C159.409 29.0376 158.898 28.9324 158.402 28.7971C157.921 28.6468 157.463 28.4664 157.027 28.256V25.0771C157.794 25.4078 158.583 25.7159 159.394 26.0015C160.221 26.272 161.04 26.4073 161.852 26.4073C162.408 26.4073 162.851 26.3321 163.182 26.1818C163.528 26.0315 163.776 25.8286 163.926 25.5731C164.091 25.3176 164.174 25.0245 164.174 24.6938C164.174 24.288 164.031 23.9423 163.746 23.6567C163.475 23.3712 163.107 23.1081 162.641 22.8676C162.175 22.6121 161.641 22.3416 161.04 22.056C160.664 21.8756 160.259 21.6652 159.823 21.4247C159.387 21.1692 158.966 20.8611 158.56 20.5004C158.169 20.1246 157.846 19.6737 157.591 19.1476C157.335 18.6216 157.208 17.9903 157.208 17.2538C157.208 16.2919 157.425 15.4727 157.861 14.7964C158.312 14.105 158.944 13.5789 159.755 13.2182C160.582 12.8575 161.551 12.6771 162.664 12.6771C163.505 12.6771 164.302 12.7748 165.053 12.9702C165.82 13.1656 166.616 13.4436 167.443 13.8044L166.338 16.4647C165.602 16.1641 164.941 15.9312 164.354 15.7658C163.768 15.6005 163.167 15.5178 162.551 15.5178C162.13 15.5178 161.769 15.5855 161.469 15.7207C161.168 15.856 160.935 16.0439 160.77 16.2844C160.619 16.5248 160.544 16.8104 160.544 17.1411C160.544 17.5168 160.657 17.84 160.882 18.1105C161.108 18.3661 161.446 18.6141 161.897 18.8545C162.348 19.095 162.912 19.3806 163.588 19.7113C164.415 20.1021 165.113 20.5079 165.685 20.9287C166.271 21.3496 166.722 21.8456 167.037 22.4167C167.353 22.9879 167.511 23.6943 167.511 24.536ZM175.577 12.9025C177.651 12.9025 179.162 13.3535 180.109 14.2553C181.071 15.1421 181.552 16.367 181.552 17.9302C181.552 18.6366 181.446 19.313 181.236 19.9593C181.026 20.5905 180.672 21.1617 180.176 21.6727C179.695 22.1687 179.057 22.5595 178.26 22.8451C177.463 23.1307 176.479 23.2735 175.307 23.2735H173.841V29H170.437V12.9025H175.577ZM175.397 15.6982H173.841V20.4778H174.968C175.615 20.4778 176.171 20.3952 176.637 20.2298C177.103 20.0645 177.463 19.8015 177.719 19.4407C177.974 19.08 178.102 18.6141 178.102 18.0429C178.102 17.2463 177.884 16.6601 177.448 16.2844C177.013 15.8936 176.329 15.6982 175.397 15.6982ZM199.203 20.9287C199.203 22.1762 199.045 23.311 198.73 24.3331C198.429 25.3401 197.963 26.2119 197.332 26.9484C196.716 27.6848 195.919 28.2485 194.942 28.6393C193.98 29.0301 192.845 29.2255 191.538 29.2255C190.23 29.2255 189.088 29.0301 188.111 28.6393C187.149 28.2335 186.352 27.6698 185.721 26.9484C185.105 26.2119 184.639 25.3326 184.323 24.3105C184.023 23.2885 183.872 22.1537 183.872 20.9062C183.872 19.2378 184.143 17.7874 184.684 16.5549C185.24 15.3224 186.082 14.368 187.209 13.6916C188.351 13.0002 189.802 12.6545 191.56 12.6545C193.304 12.6545 194.739 13.0002 195.866 13.6916C196.994 14.368 197.828 15.3299 198.369 16.5775C198.925 17.8099 199.203 19.2604 199.203 20.9287ZM187.457 20.9287C187.457 22.056 187.6 23.0255 187.885 23.8371C188.171 24.6487 188.614 25.2725 189.216 25.7084C189.817 26.1442 190.591 26.3622 191.538 26.3622C192.515 26.3622 193.296 26.1442 193.882 25.7084C194.484 25.2725 194.92 24.6487 195.19 23.8371C195.476 23.0255 195.618 22.056 195.618 20.9287C195.618 19.2303 195.303 17.9001 194.672 16.9382C194.04 15.9762 193.003 15.4953 191.56 15.4953C190.598 15.4953 189.817 15.7132 189.216 16.1491C188.614 16.585 188.171 17.2087 187.885 18.0204C187.6 18.832 187.457 19.8015 187.457 20.9287ZM207.227 12.9025C208.685 12.9025 209.887 13.0829 210.834 13.4436C211.781 13.7893 212.488 14.3229 212.954 15.0444C213.42 15.7508 213.653 16.6451 213.653 17.7273C213.653 18.4638 213.51 19.1101 213.224 19.6662C212.954 20.2073 212.585 20.6732 212.119 21.064C211.669 21.4398 211.18 21.7479 210.654 21.9884L215.389 29H211.601L207.768 22.8225H205.942V29H202.538V12.9025H207.227ZM206.979 15.6982H205.942V20.0495H207.047C207.798 20.0495 208.407 19.9668 208.873 19.8015C209.339 19.6361 209.677 19.3881 209.887 19.0575C210.098 18.7118 210.203 18.2984 210.203 17.8175C210.203 17.3064 210.083 16.9006 209.842 16.6C209.617 16.2844 209.264 16.0589 208.783 15.9236C208.317 15.7733 207.716 15.6982 206.979 15.6982ZM223.621 29H220.217V15.7433H215.843V12.9025H227.995V15.7433H223.621V29ZM236.497 29H229.17V27.0611L231.131 26.1593V15.7433L229.17 14.8415V12.9025H236.497V14.8415L234.535 15.7433V26.1593L236.497 27.0611V29Z" fill="#F48A4E"/>
</g>
<defs>
<filter id="filter0_d_36_469" x="47.1818" y="9.83636" width="192.133" height="22.2073" filterUnits="userSpaceOnUse" color-interpolation-filters="sRGB">
<feFlood flood-opacity="0" result="BackgroundImageFix"/>
<feColorMatrix in="SourceAlpha" type="matrix" values="0 0 0 0 0 0 0 0 0 0 0 0 0 0 0 0 0 0 127 0" result="hardAlpha"/>
<feOffset/>
<feGaussianBlur stdDeviation="1.40909"/>
<feComposite in2="hardAlpha" operator="out"/>
<feColorMatrix type="matrix" values="0 0 0 0 1 0 0 0 0 0.74902 0 0 0 0 0.556863 0 0 0 1 0"/>
<feBlend mode="normal" in2="BackgroundImageFix" result="effect1_dropShadow_36_469"/>
<feBlend mode="normal" in="SourceGraphic" in2="effect1_dropShadow_36_469" result="shape"/>
</filter>
<clipPath id="clip0_36_469">
<rect width="48.7164" height="48.7164" fill="white" transform="matrix(-1 0 0 1 68 0)"/>
</clipPath>
</defs>
</svg>
