<svg width="25" height="26" viewBox="0 0 25 26" fill="none" xmlns="http://www.w3.org/2000/svg">
<g clip-path="url(#clip0)">
<path d="M12.4997 6.06665C8.81634 6.06665 5.83301 9.24991 5.83301 13.1759C5.83301 16.3176 7.74301 18.9817 10.3913 19.9211C10.7247 19.988 10.8469 19.7679 10.8469 19.5792C10.8469 19.4104 10.8413 18.9631 10.8386 18.3704C8.98412 18.7991 8.59301 17.4166 8.59301 17.4166C8.28967 16.5961 7.85134 16.3767 7.85134 16.3767C7.24745 15.936 7.89801 15.945 7.89801 15.945C8.56745 15.9944 8.91912 16.6775 8.91912 16.6775C9.51356 17.7645 10.4797 17.4504 10.8608 17.2689C10.9208 16.8089 11.0925 16.496 11.283 16.3182C9.80245 16.1403 8.24634 15.529 8.24634 12.8051C8.24634 12.0292 8.50467 11.395 8.93245 10.8976C8.85745 10.7179 8.63245 9.99508 8.99079 9.01599C8.99079 9.01599 9.54912 8.82547 10.8241 9.74488C11.3575 9.58692 11.9241 9.50855 12.4908 9.50493C13.0575 9.50855 13.6241 9.58692 14.1575 9.74488C15.4241 8.82547 15.9825 9.01599 15.9825 9.01599C16.3408 9.99508 16.1158 10.7179 16.0491 10.8976C16.4741 11.395 16.7325 12.0292 16.7325 12.8051C16.7325 15.5362 15.1741 16.1373 13.6908 16.3122C13.9241 16.5256 14.1408 16.9615 14.1408 17.6277C14.1408 18.579 14.1325 19.3435 14.1325 19.5744C14.1325 19.7607 14.2491 19.9831 14.5908 19.912C17.258 18.9787 19.1663 16.3128 19.1663 13.1759C19.1663 9.24991 16.1813 6.06665 12.4997 6.06665Z" fill="#F3F4ED"/>
</g>
<path d="M12.4999 0.5C15.8091 0.5 18.8029 1.89262 20.978 4.15419H4.02169C6.19683 1.89262 9.19058 0.5 12.4999 0.5ZM20.9781 4.15428C23.1532 6.41693 24.5 9.54682 24.5 12.9998C24.5 16.4602 23.1532 19.583 20.978 21.8458C18.8029 24.1076 15.8092 25.5 12.4999 25.5C9.19052 25.5 6.19675 24.1075 4.02162 21.8457C1.84647 19.583 0.5 16.4602 0.5 12.9998C0.5 9.54679 1.84656 6.41691 4.02161 4.15428H20.9781Z" stroke="#F3F4ED"/>
<defs>
<clipPath id="clip0">
<rect width="13.3333" height="13.8667" fill="white" transform="translate(5.83301 6.06665)"/>
</clipPath>
</defs>
</svg>
