<svg width="25" height="26" viewBox="0 0 25 26" fill="none" xmlns="http://www.w3.org/2000/svg">
<g clip-path="url(#clip0)">
<path d="M11.0648 14.8378L10.8442 18.0642C11.1598 18.0642 11.2964 17.9232 11.4603 17.7539L12.9398 16.2834L16.0053 18.6182C16.5676 18.9441 16.9637 18.7725 17.1153 18.0803L19.1276 8.27429L19.1281 8.27371C19.3064 7.40936 18.8276 7.07136 18.2798 7.2834L6.452 11.9929C5.64477 12.3187 5.657 12.7867 6.31477 12.9988L9.33866 13.977L16.3626 9.40616C16.6931 9.17851 16.9937 9.30447 16.7464 9.53211L11.0648 14.8378Z" fill="#F3F4ED"/>
</g>
<path d="M12.4999 0.5C15.8091 0.5 18.8029 1.89262 20.978 4.15419H4.02169C6.19683 1.89262 9.19058 0.5 12.4999 0.5ZM20.9781 4.15428C23.1532 6.41693 24.5 9.54682 24.5 12.9998C24.5 16.4602 23.1532 19.583 20.978 21.8458C18.8029 24.1076 15.8092 25.5 12.4999 25.5C9.19052 25.5 6.19675 24.1075 4.02162 21.8457C1.84647 19.583 0.5 16.4602 0.5 12.9998C0.5 9.54679 1.84656 6.41691 4.02161 4.15428H20.9781Z" stroke="#F3F4ED"/>
<defs>
<clipPath id="clip0">
<rect width="13.3333" height="13.8667" fill="white" transform="translate(5.83301 6.06665)"/>
</clipPath>
</defs>
</svg>
