<svg width="25" height="26" viewBox="0 0 25 26" fill="none" xmlns="http://www.w3.org/2000/svg">
<path d="M10.1773 18.2061C14.8945 18.2061 17.4741 14.1417 17.4741 10.6173C17.4741 10.5019 17.4718 10.3869 17.4669 10.2726C17.9676 9.89607 18.4028 9.42622 18.7461 8.89142C18.2866 9.10392 17.7921 9.24679 17.2734 9.31142C17.8028 8.98109 18.2094 8.45877 18.4011 7.83612C17.9056 8.14164 17.3568 8.36361 16.7726 8.4835C16.3046 7.96507 15.6383 7.64087 14.9005 7.64087C13.4843 7.64087 12.3358 8.83529 12.3358 10.3076C12.3358 10.5171 12.3583 10.7206 12.4023 10.9158C10.2708 10.8043 8.38069 9.74303 7.11594 8.12916C6.89578 8.52325 6.76874 8.98117 6.76874 9.46979C6.76874 10.395 7.22151 11.212 7.90995 11.6898C7.48921 11.6764 7.094 11.5563 6.74848 11.3563C6.7481 11.3675 6.7481 11.3784 6.7481 11.3904C6.7481 12.6821 7.63208 13.7606 8.80571 14.005C8.59015 14.066 8.36334 14.0988 8.12942 14.0988C7.96446 14.0988 7.80362 14.0819 7.64737 14.0507C7.97386 15.1104 8.92069 15.8816 10.0432 15.9032C9.16538 16.6187 8.05963 17.0449 6.85787 17.0449C6.65117 17.0449 6.44683 17.0326 6.24609 17.008C7.38112 17.7646 8.72889 18.2061 10.1773 18.2061" fill="#F3F4ED"/>
<path d="M12.4999 0.5C15.8091 0.5 18.8029 1.89262 20.978 4.15419H4.02169C6.19683 1.89262 9.19058 0.5 12.4999 0.5ZM20.9781 4.15428C23.1532 6.41693 24.5 9.54682 24.5 12.9998C24.5 16.4602 23.1532 19.583 20.978 21.8458C18.8029 24.1076 15.8092 25.5 12.4999 25.5C9.19052 25.5 6.19675 24.1075 4.02162 21.8457C1.84647 19.583 0.5 16.4602 0.5 12.9998C0.5 9.54679 1.84656 6.41691 4.02161 4.15428H20.9781Z" stroke="#F3F4ED"/>
</svg>
