<svg width="25" height="26" viewBox="0 0 25 26" fill="none" xmlns="http://www.w3.org/2000/svg">
<path d="M18.4856 9.75067C18.3416 9.19375 17.9193 8.75472 17.3839 8.60476C16.4057 8.32642 12.493 8.32642 12.493 8.32642C12.493 8.32642 8.58043 8.32642 7.60226 8.59421C7.07713 8.74401 6.64462 9.19382 6.50058 9.75067C6.24316 10.7679 6.24316 12.8775 6.24316 12.8775C6.24316 12.8775 6.24316 14.9977 6.50058 16.0042C6.64478 16.5611 7.06683 17.0001 7.60234 17.1501C8.59073 17.4285 12.4932 17.4285 12.4932 17.4285C12.4932 17.4285 16.4057 17.4285 17.3839 17.1607C17.9194 17.0108 18.3416 16.5718 18.4857 16.0149C18.7431 14.9977 18.7431 12.8882 18.7431 12.8882C18.7431 12.8882 18.7534 10.7679 18.4856 9.75067ZM11.2473 14.8263V10.9286L14.5009 12.8775L11.2473 14.8263Z" fill="#C06014"/>
<path d="M12.4999 0.5C15.8091 0.5 18.8029 1.89262 20.978 4.15419H4.02169C6.19683 1.89262 9.19058 0.5 12.4999 0.5ZM20.9781 4.15428C23.1532 6.41693 24.5 9.54682 24.5 12.9998C24.5 16.4602 23.1532 19.583 20.978 21.8458C18.8029 24.1076 15.8092 25.5 12.4999 25.5C9.19052 25.5 6.19675 24.1075 4.02162 21.8457C1.84647 19.583 0.5 16.4602 0.5 12.9998C0.5 9.54679 1.84656 6.41691 4.02161 4.15428H20.9781Z" stroke="#C06014"/>
</svg>
