<svg width="259" height="298" viewBox="0 0 259 298" fill="none" xmlns="http://www.w3.org/2000/svg">
<path d="M254.762 182.044H116.027C114.919 182.043 113.857 181.613 113.073 180.847C112.29 180.082 111.849 179.045 111.848 177.963V132.248C111.849 131.166 112.29 130.129 113.073 129.364C113.857 128.598 114.919 128.168 116.027 128.167H254.762C255.87 128.168 256.932 128.598 257.715 129.364C258.499 130.129 258.939 131.166 258.941 132.248V177.963C258.939 179.045 258.499 180.082 257.715 180.847C256.932 181.613 255.87 182.043 254.762 182.044Z" fill="#F1F1F1"/>
<path d="M170.351 140.412H133.577V144.493H170.351V140.412Z" fill="#FF7171"/>
<path d="M218.824 145.31C220.209 145.31 221.332 144.213 221.332 142.861C221.332 141.508 220.209 140.412 218.824 140.412C217.44 140.412 216.317 141.508 216.317 142.861C216.317 144.213 217.44 145.31 218.824 145.31Z" fill="#FF7171"/>
<path d="M227.182 145.31C228.567 145.31 229.689 144.213 229.689 142.861C229.689 141.508 228.567 140.412 227.182 140.412C225.797 140.412 224.675 141.508 224.675 142.861C224.675 144.213 225.797 145.31 227.182 145.31Z" fill="#FF7171"/>
<path d="M235.539 145.31C236.924 145.31 238.047 144.213 238.047 142.861C238.047 141.508 236.924 140.412 235.539 140.412C234.155 140.412 233.032 141.508 233.032 142.861C233.032 144.213 234.155 145.31 235.539 145.31Z" fill="#FF7171"/>
<path d="M254.762 240.004H116.027C114.919 240.002 113.857 239.572 113.073 238.807C112.29 238.042 111.849 237.004 111.848 235.922V190.208C111.849 189.125 112.29 188.088 113.073 187.323C113.857 186.558 114.919 186.127 116.027 186.126H254.762C255.87 186.127 256.932 186.558 257.715 187.323C258.499 188.088 258.939 189.125 258.941 190.208V235.922C258.939 237.004 258.499 238.042 257.715 238.807C256.932 239.572 255.87 240.002 254.762 240.004Z" fill="#F1F1F1"/>
<path d="M170.351 198.371H133.577V202.453H170.351V198.371Z" fill="#FF7171"/>
<path d="M218.824 203.269C220.209 203.269 221.332 202.173 221.332 200.82C221.332 199.468 220.209 198.371 218.824 198.371C217.44 198.371 216.317 199.468 216.317 200.82C216.317 202.173 217.44 203.269 218.824 203.269Z" fill="#FF7171"/>
<path d="M227.182 203.269C228.567 203.269 229.689 202.173 229.689 200.82C229.689 199.468 228.567 198.371 227.182 198.371C225.797 198.371 224.675 199.468 224.675 200.82C224.675 202.173 225.797 203.269 227.182 203.269Z" fill="#FF7171"/>
<path d="M235.539 203.269C236.924 203.269 238.047 202.173 238.047 200.82C238.047 199.468 236.924 198.371 235.539 198.371C234.155 198.371 233.032 199.468 233.032 200.82C233.032 202.173 234.155 203.269 235.539 203.269Z" fill="#FF7171"/>
<path d="M254.762 297.963H116.027C114.919 297.962 113.857 297.531 113.073 296.766C112.29 296.001 111.849 294.963 111.848 293.881V248.167C111.849 247.085 112.29 246.047 113.073 245.282C113.857 244.517 114.919 244.086 116.027 244.085H254.762C255.87 244.086 256.932 244.517 257.715 245.282C258.499 246.047 258.939 247.085 258.941 248.167V293.881C258.939 294.963 258.499 296.001 257.715 296.766C256.932 297.531 255.87 297.962 254.762 297.963Z" fill="#F1F1F1"/>
<path d="M170.351 256.33H133.577V260.412H170.351V256.33Z" fill="#FF7171"/>
<path d="M218.824 261.228C220.209 261.228 221.332 260.132 221.332 258.779C221.332 257.427 220.209 256.33 218.824 256.33C217.44 256.33 216.317 257.427 216.317 258.779C216.317 260.132 217.44 261.228 218.824 261.228Z" fill="#FF7171"/>
<path d="M227.182 261.228C228.567 261.228 229.689 260.132 229.689 258.779C229.689 257.427 228.567 256.33 227.182 256.33C225.797 256.33 224.675 257.427 224.675 258.779C224.675 260.132 225.797 261.228 227.182 261.228Z" fill="#FF7171"/>
<path d="M235.539 261.228C236.924 261.228 238.047 260.132 238.047 258.779C238.047 257.427 236.924 256.33 235.539 256.33C234.155 256.33 233.032 257.427 233.032 258.779C233.032 260.132 234.155 261.228 235.539 261.228Z" fill="#FF7171"/>
<path d="M202.46 83.5272L202.307 83.4165L202.303 83.4138C202.105 83.2702 201.88 83.1661 201.641 83.1075C201.402 83.0488 201.153 83.0367 200.91 83.0719C200.666 83.1071 200.431 83.1888 200.22 83.3125C200.008 83.4361 199.824 83.5993 199.677 83.7926L168.449 124.86H165.014V124.072C165.014 123.877 164.935 123.691 164.794 123.553C164.653 123.416 164.462 123.338 164.263 123.338H162.213C162.014 123.338 161.823 123.416 161.682 123.553C161.541 123.691 161.462 123.877 161.462 124.072V124.86H160.276V124.072C160.276 123.877 160.197 123.691 160.056 123.553C159.915 123.416 159.724 123.338 159.525 123.338H157.475C157.276 123.338 157.085 123.416 156.944 123.553C156.804 123.691 156.724 123.877 156.724 124.072V124.86H155.542V124.072C155.542 123.877 155.463 123.691 155.322 123.553C155.181 123.416 154.99 123.338 154.791 123.338H152.741C152.542 123.338 152.351 123.416 152.21 123.553C152.07 123.691 151.991 123.877 151.991 124.072V124.86H150.804V124.072C150.804 123.877 150.725 123.691 150.584 123.553C150.443 123.416 150.252 123.338 150.053 123.338H148.004C147.804 123.338 147.613 123.416 147.473 123.553C147.332 123.691 147.253 123.877 147.253 124.072V124.86H146.07V124.072C146.07 123.877 145.991 123.691 145.85 123.553C145.709 123.416 145.518 123.338 145.319 123.338H143.27C143.171 123.338 143.073 123.357 142.982 123.394C142.891 123.431 142.808 123.485 142.739 123.553C142.669 123.621 142.614 123.702 142.576 123.791C142.538 123.88 142.519 123.975 142.519 124.072V124.86H141.332V124.072C141.332 123.877 141.253 123.691 141.112 123.553C140.972 123.416 140.781 123.338 140.582 123.338H138.532C138.333 123.338 138.142 123.416 138.001 123.553C137.86 123.691 137.781 123.877 137.781 124.072V124.86H136.595V124.072C136.595 123.877 136.515 123.691 136.375 123.553C136.234 123.416 136.043 123.338 135.844 123.338H133.794C133.595 123.338 133.404 123.416 133.263 123.553C133.122 123.691 133.043 123.877 133.043 124.072V124.86H131.861V124.072C131.861 123.877 131.781 123.691 131.641 123.553C131.5 123.416 131.309 123.338 131.11 123.338H129.06C128.861 123.338 128.67 123.416 128.529 123.553C128.388 123.691 128.309 123.877 128.309 124.072V124.86H127.123V124.072C127.123 123.877 127.044 123.691 126.903 123.553C126.762 123.416 126.571 123.338 126.372 123.338H124.322C124.123 123.338 123.932 123.416 123.791 123.553C123.65 123.691 123.571 123.877 123.571 124.072V124.86H122.389V124.072C122.389 123.877 122.31 123.691 122.169 123.553C122.028 123.416 121.837 123.338 121.638 123.338H119.588C119.389 123.338 119.198 123.416 119.057 123.553C118.916 123.691 118.837 123.877 118.837 124.072V124.86H117.351C117.104 124.86 116.86 124.908 116.632 125C116.405 125.092 116.198 125.227 116.023 125.397C115.849 125.567 115.711 125.77 115.617 125.992C115.522 126.214 115.474 126.453 115.474 126.694V128.443C115.474 128.684 115.522 128.922 115.617 129.144C115.711 129.367 115.849 129.569 116.023 129.739C116.198 129.909 116.405 130.045 116.632 130.137C116.86 130.229 117.104 130.276 117.351 130.276H168.138C168.781 130.276 169.404 130.06 169.903 129.663C170.402 129.266 170.746 128.714 170.876 128.099L170.896 128.113L202.845 86.0959L202.848 86.0923C203.145 85.7019 203.271 85.2123 203.198 84.7313C203.125 84.2503 202.86 83.8172 202.46 83.5272Z" fill="#3F3D56"/>
<path d="M5.10571 282.39L11.4141 285.543L26.8678 263.277L17.5577 258.623L5.10571 282.39Z" fill="#FFB7B7"/>
<path d="M4.55048 279.574L16.974 285.784L16.9745 285.784C19.0742 286.834 20.6609 288.655 21.3858 290.848C22.1106 293.04 21.9142 295.424 20.8397 297.475L20.7081 297.726L0.367188 287.559L4.55048 279.574Z" fill="#2F2E41"/>
<path d="M77.9642 291.017H85.051L88.4222 264.318H77.9631L77.9642 291.017Z" fill="#FFB7B7"/>
<path d="M76.1567 288.757L90.1126 288.756H90.1131C92.4718 288.756 94.7339 289.672 96.4018 291.301C98.0696 292.93 99.0067 295.139 99.0069 297.443V297.726L76.1572 297.726L76.1567 288.757Z" fill="#2F2E41"/>
<path d="M44.8167 73.2461C44.8167 73.2461 40.0713 69.6949 40.0713 78.3691L39.322 107.034L47.689 134.113L52.5593 125.33L50.5612 106.302L44.8167 73.2461Z" fill="#2F2E41"/>
<path d="M95.5791 151.649C95.5791 151.649 101.082 177.825 94.1116 199.306L90.2597 281.901L76.1358 280.826L71.1833 219.552L66.4142 189.094L56.5091 216.864L23.8591 275.63L8.81812 264.163C8.81812 264.163 25.486 219.741 37.7996 210.414L43.9753 141.711L95.5791 151.649Z" fill="#2F2E41"/>
<path d="M92.968 30.0643C97.2342 22.4415 94.366 12.884 86.5618 8.71701C78.7576 4.55002 68.9726 7.35153 64.7065 14.9743C60.4403 22.5971 63.3085 32.1546 71.1127 36.3216C78.9169 40.4886 88.7018 37.6871 92.968 30.0643Z" fill="#FFB7B7"/>
<path d="M77.6976 25.8557C79.6281 26.1011 81.0843 24.1718 81.7597 22.3884C82.4352 20.605 82.9498 18.5287 84.6282 17.5653C86.9213 16.2492 89.8552 17.8322 92.4775 17.3979C95.4389 16.9075 97.3643 13.842 97.5152 10.9119C97.666 7.98184 96.4723 5.16371 95.301 2.46219L94.892 5.81957C94.9467 4.68167 94.7016 3.5491 94.18 2.53018C93.6585 1.51127 92.8781 0.640099 91.9133 0L92.4404 4.92643C92.3282 4.24675 92.0798 3.59541 91.7092 3.00977C91.3387 2.42413 90.8534 1.91572 90.2812 1.51374C89.709 1.11175 89.0612 0.824087 88.3749 0.667267C87.6886 0.510447 86.9773 0.487553 86.2819 0.599898L86.365 3.53525C82.9446 3.13799 79.4943 2.74017 76.0638 3.04282C72.6333 3.34547 69.1788 4.40563 66.5788 6.61236C62.6896 9.9133 61.2691 15.3487 61.746 20.3597C62.2229 25.3707 64.3407 30.0782 66.5478 34.6257C67.1032 35.7698 67.8713 37.0609 69.159 37.2067C70.3161 37.3376 71.3748 36.3929 71.7345 35.3108C72.0116 34.2005 72.0009 33.0403 71.7032 31.9351C71.3778 30.246 70.9676 28.5196 71.2735 26.8271C71.5795 25.1346 72.8261 23.4621 74.5728 23.2547C76.3195 23.0473 78.1068 24.9974 77.267 26.5078L77.6976 25.8557Z" fill="#2F2E41"/>
<path d="M96.5755 158.649L42.8191 155.261L46.8653 138.888L95.9971 149.616L96.5755 158.649Z" fill="#CBCBCB"/>
<path d="M63.4238 43.9718L66.7955 39.3994C66.7955 39.3994 70.5642 40.6504 80.6572 45.5575L81.3703 49.8414L98.8897 155.093L67.0453 153.751L58.3735 153.571L55.5356 147.357L52.0362 153.439L43.5679 153.263L34.9512 148.384L43.443 123.013L46.1904 99.8373L41.9444 78.0034C41.9444 78.0034 36.6016 57.9538 57.1798 47.1432L63.4238 43.9718Z" fill="#2F2E41"/>
<path d="M135.199 123.648C134.419 123.841 133.605 123.865 132.815 123.719C132.024 123.572 131.277 123.257 130.624 122.798C129.971 122.338 129.43 121.744 129.038 121.058C128.646 120.371 128.412 119.61 128.354 118.826L109.461 113.883L117.062 107.292L133.837 112.996C135.192 112.988 136.502 113.465 137.521 114.338C138.539 115.211 139.194 116.418 139.362 117.731C139.53 119.044 139.199 120.371 138.431 121.462C137.664 122.552 136.514 123.33 135.199 123.648V123.648Z" fill="#FFB7B7"/>
<path d="M126.737 120.857C126.34 121.069 125.901 121.196 125.45 121.231C124.999 121.266 124.546 121.208 124.12 121.06L93.0405 109.539C85.4584 106.913 79.1107 101.687 75.1781 94.8329L62.2176 72.2505C61.3076 71.2582 60.6067 70.1004 60.1553 68.8433C59.7039 67.5861 59.5106 66.2544 59.5867 64.9242C59.6628 63.5941 60.0066 62.2917 60.5986 61.0915C61.1906 59.8913 62.019 58.8169 63.0366 57.9298C64.0541 57.0427 65.2408 56.3602 66.5286 55.9215C67.8165 55.4829 69.1802 55.2966 70.5419 55.3733C71.9036 55.45 73.2364 55.7882 74.4641 56.3685C75.6917 56.9489 76.7902 57.7601 77.6966 58.7556L100.129 93.4844L128.36 109.651C128.914 110.006 129.342 110.518 129.588 111.118C129.833 111.718 129.885 112.378 129.734 113.007L128.33 118.818C128.179 119.441 127.838 120.004 127.351 120.433C127.164 120.597 126.958 120.74 126.737 120.857Z" fill="#2F2E41"/>
</svg>
