<svg width="141" height="104" viewBox="0 0 141 104" fill="none" xmlns="http://www.w3.org/2000/svg">
<path d="M121.506 90.1355L108.711 79.902C118.651 78.8054 122.735 84.2264 124.406 88.5171C132.172 85.2926 140.625 89.5184 140.625 89.5184L115.025 98.8122C116.316 95.3626 118.565 92.3528 121.506 90.1355Z" fill="#333333"/>
<path d="M104.922 10.3767L92.1274 0.143313C102.067 -0.953307 106.151 4.46763 107.823 8.75832C115.588 5.53387 124.042 9.75966 124.042 9.75966L98.4414 19.0534C99.7329 15.6039 101.981 12.594 104.922 10.3767Z" fill="#333333"/>
<path d="M12.7948 94.3293L0 84.0959C9.93975 82.9993 14.0238 88.4202 15.6953 92.7109C23.4606 89.4864 31.9141 93.7123 31.9141 93.7123L6.31396 103.006C7.60545 99.5565 9.85358 96.5466 12.7948 94.3293Z" fill="#333333"/>
</svg>
