<svg width="141" height="104" viewBox="0 0 141 104" fill="none" xmlns="http://www.w3.org/2000/svg">
<path d="M19.4942 90.1355L32.2891 79.902C22.3493 78.8054 18.2653 84.2264 16.5938 88.5171C8.82849 85.2926 0.375 89.5184 0.375 89.5184L25.9751 98.8122C24.6836 95.3626 22.4355 92.3528 19.4942 90.1355Z" fill="#333333"/>
<path d="M36.0778 10.3767L48.8726 0.143313C38.9328 -0.953307 34.8488 4.46763 33.1773 8.75832C25.412 5.53387 16.9585 9.75966 16.9585 9.75966L42.5586 19.0534C41.2671 15.6039 39.019 12.594 36.0778 10.3767Z" fill="#333333"/>
<path d="M128.205 94.3293L141 84.0959C131.06 82.9993 126.976 88.4202 125.305 92.7109C117.539 89.4864 109.086 93.7123 109.086 93.7123L134.686 103.006C133.395 99.5565 131.146 96.5466 128.205 94.3293Z" fill="#333333"/>
</svg>
