<svg width="30" height="30" viewBox="0 0 30 30" fill="none" xmlns="http://www.w3.org/2000/svg">
<path d="M15 29.3379C21.8086 29.3379 27.3457 23.8008 27.3457 16.9922V6.23437C27.3457 5.94727 27.1699 5.68359 26.9063 5.57227L15.2754 0.720703C15.0996 0.644531 14.9004 0.644531 14.7246 0.720703L3.09375 5.57227C2.82422 5.68359 2.6543 5.94727 2.6543 6.23437V16.9922C2.6543 23.7949 8.19141 29.3379 15 29.3379ZM4.08984 6.71484L15 2.16211L25.9102 6.71484V16.9922C25.9102 23.0098 21.0176 27.9023 15 27.9023C8.98242 27.9023 4.08984 23.0039 4.08984 16.9922V6.71484Z" fill="black"/>
<path d="M11.5957 21H18.4043C19.2715 21 19.9746 20.2969 19.9746 19.4297V15.6152C19.9746 14.8066 19.3652 14.1445 18.5801 14.0508V12.5391C18.5801 10.5645 16.9746 8.95312 14.9941 8.95312C13.0195 8.95312 11.4082 10.5586 11.4082 12.5391V14.0508C10.623 14.1387 10.0137 14.8066 10.0137 15.6152V19.4297C10.0254 20.291 10.7285 21 11.5957 21ZM18.5391 19.4238C18.5391 19.5 18.4746 19.5586 18.4043 19.5586H11.5957C11.5195 19.5586 11.4609 19.4941 11.4609 19.4238V15.6094C11.4609 15.5332 11.5254 15.4746 11.5957 15.4746H18.4043C18.4805 15.4746 18.5391 15.5391 18.5391 15.6094V19.4238ZM15 10.3945C16.1836 10.3945 17.1504 11.3555 17.1504 12.5449V14.0449H12.8555V12.5391C12.8496 11.3555 13.8164 10.3945 15 10.3945Z" fill="black"/>
</svg>
