<svg width="411" height="176" viewBox="0 0 411 176" fill="none" xmlns="http://www.w3.org/2000/svg">
<g clip-path="url(#clip0)">
<path d="M90.2119 98.1862C90.2156 97.6461 90.108 97.1109 89.8956 96.6142C89.6832 96.1174 89.3706 95.6698 88.9774 95.2993C88.5842 94.9287 88.1189 94.6432 87.6103 94.4605C87.1018 94.2778 86.5611 94.2019 86.0219 94.2376C85.4828 94.2732 84.9567 94.4195 84.4767 94.6675C83.9966 94.9154 83.5728 95.2597 83.2318 95.6787C82.8908 96.0977 82.6398 96.5826 82.4946 97.1029C82.3495 97.6232 82.3131 98.1679 82.3879 98.7029L71.0941 113.489C70.6121 114.452 70.4252 115.537 70.5569 116.606C70.6885 117.675 71.1328 118.682 71.8341 119.5L72.7201 120.533L76.785 119.72L81.3921 115.656L80.85 111.05L86.5411 102.11L86.5337 102.103C87.5299 102.04 88.4646 101.6 89.1478 100.872C89.831 100.145 90.2114 99.1842 90.2119 98.1862Z" fill="#FFB9B9"/>
<path d="M12.1109 170.473L10.2673 163.627L35.7993 153.262L38.5201 163.364L12.1109 170.473Z" fill="#FFB8B8"/>
<path d="M5.94401 174.005L0 151.934L0.279235 151.859C2.5582 151.245 4.98754 151.562 7.03291 152.739C9.07827 153.917 10.5721 155.858 11.1859 158.136L11.1861 158.137L14.8164 171.617L5.94401 174.005Z" fill="#2F2E41"/>
<path d="M47.28 169.379L41.5457 165.21L54.9023 141.113L63.3659 147.266L47.28 169.379Z" fill="#FFB8B8"/>
<path d="M44.7002 176L26.2095 162.556L26.3795 162.322C27.7677 160.414 29.8572 159.135 32.1884 158.767C34.5196 158.399 36.9016 158.972 38.8104 160.359L38.8109 160.36L50.1044 168.571L44.7002 176Z" fill="#2F2E41"/>
<path d="M96.0261 135.705L81.5955 121.691C80.3361 120.468 78.6773 119.74 76.9242 119.642C75.1711 119.544 73.4416 120.082 72.0537 121.158L44.8066 151.42L47.2457 155.212L73.2618 137.602L90.877 160.631L107.679 152.232L96.0261 135.705Z" fill="#2F2E41"/>
<path d="M89.7932 138.685L79.224 137.873L71.5699 136.018C71.1376 135.343 70.5095 134.817 69.7698 134.509C69.0301 134.202 68.214 134.127 67.4309 134.296C66.6477 134.465 65.9349 134.869 65.3878 135.454C64.8406 136.039 64.4854 136.778 64.3695 137.57C64.2536 138.363 64.3826 139.172 64.7394 139.889C65.0961 140.606 65.6634 141.197 66.3655 141.583C67.0675 141.969 67.8707 142.131 68.6675 142.048C69.4643 141.965 70.2168 141.641 70.8241 141.118L70.823 141.124L75.4301 143.02L95.2131 149.794L97.6522 147.897L89.7932 138.685Z" fill="#FFB9B9"/>
<path d="M115.267 167.946L109.305 171.739H102.259L69.4679 159.547L21.5005 168.217L20.1455 157.921L64.048 138.686L102.53 151.419L115.267 167.946Z" fill="#2F2E41"/>
<path d="M102.53 102.11C108.367 102.11 113.099 97.379 113.099 91.5434C113.099 85.7078 108.367 80.9771 102.53 80.9771C96.6931 80.9771 91.9612 85.7078 91.9612 91.5434C91.9612 97.379 96.6931 102.11 102.53 102.11Z" fill="#FFB9B9"/>
<path d="M129.877 133.73C129.877 140.107 128.872 146.444 126.899 152.509L126.107 154.942L122.313 172.281L118.248 173.365L115.267 169.572L109.305 165.237L104.969 158.193L101.251 151.999L100.091 150.065L96.0261 129.745L80.579 121.075L75.4299 120.262L76.5139 117.282L81.121 111.051L85.728 110.509L87.083 109.425L88.167 109.967L94.1427 112.268L113.517 104.085L116.351 104.548L126.107 112.676C128.601 119.416 129.878 126.544 129.877 133.73Z" fill="#CCCCCC"/>
<path opacity="0.1" d="M126.92 131.37L116.622 138.143L101.251 151.999L100.091 150.064L96.8391 133.809H97.6523L106.053 118.366L126.92 131.37Z" fill="black"/>
<path d="M106.053 116.74L97.6521 132.183L92.7741 137.602L88.4382 138.686L100.091 151.419L116.622 136.518L126.92 129.745L106.053 116.74Z" fill="#CCCCCC"/>
<path d="M94.3096 83.6869L93.1645 84.1273C92.9907 84.0097 92.8417 83.8589 92.7262 83.6837C92.6106 83.5085 92.5307 83.3122 92.491 83.1061C92.4513 82.9001 92.4526 82.6882 92.4948 82.4826C92.537 82.277 92.6193 82.0817 92.737 81.9079C92.7432 81.8988 92.7495 81.8898 92.7558 81.8808L90.6396 81.7818C91.9981 79.973 93.7252 78.4733 95.7068 77.3817C97.6884 76.2902 99.8792 75.6318 102.134 75.4501C104.39 75.2684 106.658 75.5675 108.788 76.3276C110.919 77.0877 112.864 78.2916 114.495 79.8595C114.591 79.5277 115.642 80.1732 116.071 80.8276C116.215 80.2878 117.199 82.8973 117.548 84.7419C117.709 84.1277 118.329 85.1192 117.786 86.0706C118.13 86.0203 118.285 86.9006 118.019 87.3911C118.395 87.2142 118.332 88.2651 117.924 88.9674C118.461 88.9197 117.878 99.983 109.815 99.1769C109.254 96.5984 109.412 96.7586 108.751 93.4431C108.443 93.1166 108.106 92.8193 107.77 92.5224L105.951 90.917C103.835 89.0502 101.911 86.7462 99.0929 86.0485C97.1562 85.569 95.9317 85.4607 96.9871 83.279C96.0335 83.6768 95.1431 84.2684 94.1809 84.6379C94.1939 84.333 94.3283 83.9919 94.3096 83.6869Z" fill="#2F2E41"/>
<path d="M107.815 94.6593C108.862 94.6593 109.712 93.8102 109.712 92.7627C109.712 91.7153 108.862 90.8662 107.815 90.8662C106.767 90.8662 105.918 91.7153 105.918 92.7627C105.918 93.8102 106.767 94.6593 107.815 94.6593Z" fill="#FFB9B9"/>
<path d="M19.3499 47.9706L18.771 56.6611L27.4637 57.2399L28.0427 48.5494L19.3499 47.9706Z" fill="#FF7171"/>
<path d="M13.7415 52.5854L24.297 53.2882L23.594 63.8409L13.0386 63.1382L13.7415 52.5854ZM23.8075 53.7165L14.1699 53.0748L13.5281 62.7099L23.1657 63.3516L23.8075 53.7165Z" fill="#CCCCCC"/>
<path d="M68.4742 22.2011L59.9565 24.0308L61.7867 32.5461L70.3043 30.7164L68.4742 22.2011Z" fill="#FF7171"/>
<path d="M62.4959 18.0767L64.7182 28.4167L54.3754 30.6385L52.1531 20.2984L62.4959 18.0767ZM64.1719 28.0638L62.1428 18.6228L52.6994 20.6514L54.7285 30.0924L64.1719 28.0638Z" fill="#CCCCCC"/>
<path d="M59.5241 63.0947L53.1658 69.0488L59.1215 75.4055L65.4798 69.4514L59.5241 63.0947Z" fill="#FF7171"/>
<path d="M65.9371 62.2042L58.2163 69.4342L50.9844 61.7154L58.7052 54.4854L65.9371 62.2042ZM58.2375 68.7843L65.287 62.1829L58.684 55.1353L51.6345 61.7366L58.2375 68.7843Z" fill="#CCCCCC"/>
<path d="M388.34 0H130.576C129.645 -1.05856e-06 128.722 0.183461 127.861 0.539912C127.001 0.896363 126.219 1.41882 125.56 2.07746C124.901 2.73609 124.378 3.51801 124.022 4.37856C123.665 5.23911 123.482 6.16144 123.482 7.09289V150.677C123.482 151.608 123.665 152.531 124.022 153.391C124.378 154.252 124.901 155.034 125.56 155.692C126.219 156.351 127.001 156.873 127.861 157.23C128.722 157.586 129.645 157.77 130.576 157.77H388.34C390.222 157.77 392.027 157.022 393.357 155.692C394.688 154.362 395.435 152.558 395.435 150.677V7.09289C395.435 5.21174 394.688 3.40764 393.357 2.07746C392.027 0.747286 390.222 1.06893e-06 388.34 0Z" fill="#3F3D56"/>
<path d="M385.923 12.5352H132.994V155.176H385.923V12.5352Z" fill="white"/>
<path d="M259.242 8.64495C260.675 8.64495 261.836 7.48381 261.836 6.05148C261.836 4.61914 260.675 3.45801 259.242 3.45801C257.809 3.45801 256.648 4.61914 256.648 6.05148C256.648 7.48381 257.809 8.64495 259.242 8.64495Z" fill="white"/>
<path d="M313.589 155.176H132.993V12.5352L313.589 155.176Z" fill="#F0E4D7"/>
<path d="M172.569 144.502C185.997 144.502 196.882 133.62 196.882 120.196C196.882 106.772 185.997 95.8901 172.569 95.8901C159.142 95.8901 148.257 106.772 148.257 120.196C148.257 133.62 159.142 144.502 172.569 144.502Z" fill="#FF7171"/>
<path d="M177.982 138.465C172 138.465 166.153 136.692 161.18 133.369C156.207 130.047 152.331 125.325 150.042 119.801C147.753 114.276 147.154 108.197 148.321 102.332C149.488 96.4671 152.368 91.0799 156.597 86.8515C160.827 82.6232 166.215 79.7436 172.082 78.5771C177.948 77.4105 184.029 78.0092 189.555 80.2976C195.081 82.5859 199.804 86.4611 203.127 91.4332C206.45 96.4052 208.224 102.251 208.224 108.23C208.224 112.201 207.442 116.132 205.922 119.801C204.402 123.469 202.174 126.802 199.366 129.609C196.558 132.417 193.224 134.644 189.555 136.163C185.886 137.683 181.953 138.465 177.982 138.465ZM177.982 78.3913C172.079 78.3913 166.308 80.1413 161.4 83.4201C156.491 86.6989 152.666 91.3591 150.407 96.8115C148.148 102.264 147.557 108.264 148.708 114.052C149.86 119.84 152.703 125.157 156.877 129.33C161.051 133.503 166.369 136.345 172.159 137.496C177.949 138.648 183.95 138.057 189.404 135.798C194.857 133.54 199.519 129.715 202.799 124.808C206.078 119.901 207.829 114.132 207.829 108.23C207.829 104.312 207.057 100.432 205.557 96.8115C204.057 93.1913 201.858 89.9018 199.087 87.131C196.315 84.3602 193.025 82.1622 189.404 80.6627C185.782 79.1631 181.901 78.3913 177.982 78.3913L177.982 78.3913Z" fill="#3F3D56"/>
<path d="M327.371 86.6416H303.744V91.5772H327.371V86.6416Z" fill="#3F3D56"/>
<path d="M349.724 59.9023H281.392V62.0176H349.724V59.9023Z" fill="#3F3D56"/>
<path d="M349.724 68.2129H281.392V70.3281H349.724V68.2129Z" fill="#3F3D56"/>
<path d="M349.724 76.5234H281.392V78.6387H349.724V76.5234Z" fill="#3F3D56"/>
<path d="M368.028 21.0718H358.155V30.9429H368.028V21.0718Z" fill="#FF7171"/>
<path d="M372.613 35.526H360.623V23.5396H372.613V35.526ZM361.144 35.0048H372.091V24.0607H361.144L361.144 35.0048Z" fill="#CCCCCC"/>
<path d="M402.537 152.583H377.852V150.805C377.852 150.758 377.843 150.713 377.826 150.67C377.808 150.627 377.782 150.588 377.749 150.555C377.716 150.523 377.678 150.497 377.635 150.479C377.592 150.461 377.546 150.452 377.5 150.452H369.037C368.99 150.452 368.944 150.461 368.902 150.479C368.859 150.497 368.82 150.523 368.787 150.555C368.754 150.588 368.729 150.627 368.711 150.67C368.693 150.713 368.684 150.758 368.684 150.805V152.583H363.395V150.805C363.395 150.758 363.385 150.713 363.368 150.67C363.35 150.627 363.324 150.588 363.291 150.555C363.258 150.523 363.22 150.497 363.177 150.479C363.134 150.461 363.088 150.452 363.042 150.452H354.579C354.532 150.452 354.487 150.461 354.444 150.479C354.401 150.497 354.362 150.523 354.329 150.555C354.297 150.588 354.271 150.627 354.253 150.67C354.235 150.713 354.226 150.758 354.226 150.805V152.583H348.937V150.805C348.937 150.758 348.927 150.713 348.91 150.67C348.892 150.627 348.866 150.588 348.833 150.555C348.801 150.523 348.762 150.497 348.719 150.479C348.676 150.461 348.63 150.452 348.584 150.452H340.121C340.074 150.452 340.029 150.461 339.986 150.479C339.943 150.497 339.904 150.523 339.871 150.555C339.839 150.588 339.813 150.627 339.795 150.67C339.777 150.713 339.768 150.758 339.768 150.805V152.583H334.479V150.805C334.479 150.758 334.47 150.713 334.452 150.67C334.434 150.627 334.408 150.588 334.375 150.555C334.343 150.523 334.304 150.497 334.261 150.479C334.218 150.461 334.172 150.452 334.126 150.452H325.663C325.617 150.452 325.571 150.461 325.528 150.479C325.485 150.497 325.446 150.523 325.413 150.555C325.381 150.588 325.355 150.627 325.337 150.67C325.319 150.713 325.31 150.758 325.31 150.805V152.583H320.021V150.805C320.021 150.758 320.012 150.713 319.994 150.67C319.976 150.627 319.95 150.588 319.917 150.555C319.885 150.523 319.846 150.497 319.803 150.479C319.76 150.461 319.714 150.452 319.668 150.452H311.205C311.159 150.452 311.113 150.461 311.07 150.479C311.027 150.497 310.988 150.523 310.956 150.555C310.923 150.588 310.897 150.627 310.879 150.67C310.861 150.713 310.852 150.758 310.852 150.805V152.583H305.563V150.805C305.563 150.758 305.554 150.713 305.536 150.67C305.518 150.627 305.492 150.588 305.459 150.555C305.427 150.523 305.388 150.497 305.345 150.479C305.302 150.461 305.256 150.452 305.21 150.452H296.747C296.701 150.452 296.655 150.461 296.612 150.479C296.569 150.497 296.53 150.523 296.498 150.555C296.465 150.588 296.439 150.627 296.421 150.67C296.403 150.713 296.394 150.758 296.394 150.805V152.583H291.105V150.805C291.105 150.758 291.096 150.713 291.078 150.67C291.06 150.627 291.034 150.588 291.002 150.555C290.969 150.523 290.93 150.497 290.887 150.479C290.844 150.461 290.799 150.452 290.752 150.452H224.457C224.411 150.452 224.365 150.461 224.322 150.479C224.279 150.497 224.241 150.523 224.208 150.555C224.175 150.588 224.149 150.627 224.131 150.67C224.114 150.713 224.105 150.758 224.105 150.805V152.583H218.815V150.805C218.815 150.758 218.806 150.713 218.788 150.67C218.771 150.627 218.745 150.588 218.712 150.555C218.679 150.523 218.64 150.497 218.597 150.479C218.555 150.461 218.509 150.452 218.462 150.452H209.999C209.953 150.452 209.907 150.461 209.864 150.479C209.822 150.497 209.783 150.523 209.75 150.555C209.717 150.588 209.691 150.627 209.673 150.67C209.656 150.713 209.647 150.758 209.647 150.805V152.583H204.357V150.805C204.357 150.758 204.348 150.713 204.33 150.67C204.313 150.627 204.287 150.588 204.254 150.555C204.221 150.523 204.182 150.497 204.139 150.479C204.097 150.461 204.051 150.452 204.005 150.452H195.541C195.495 150.452 195.449 150.461 195.406 150.479C195.364 150.497 195.325 150.523 195.292 150.555C195.259 150.588 195.233 150.627 195.216 150.67C195.198 150.713 195.189 150.758 195.189 150.805V152.583H189.899V150.805C189.899 150.758 189.89 150.713 189.872 150.67C189.855 150.627 189.829 150.588 189.796 150.555C189.763 150.523 189.724 150.497 189.682 150.479C189.639 150.461 189.593 150.452 189.547 150.452H181.083C181.037 150.452 180.991 150.461 180.948 150.479C180.906 150.497 180.867 150.523 180.834 150.555C180.801 150.588 180.775 150.627 180.758 150.67C180.74 150.713 180.731 150.758 180.731 150.805V152.583H175.441V150.805C175.441 150.758 175.432 150.713 175.414 150.67C175.397 150.627 175.371 150.588 175.338 150.555C175.305 150.523 175.266 150.497 175.224 150.479C175.181 150.461 175.135 150.452 175.089 150.452H166.625C166.579 150.452 166.533 150.461 166.49 150.479C166.448 150.497 166.409 150.523 166.376 150.555C166.343 150.588 166.317 150.627 166.3 150.67C166.282 150.713 166.273 150.758 166.273 150.805V152.583H160.983V150.805C160.983 150.758 160.974 150.713 160.956 150.67C160.939 150.627 160.913 150.588 160.88 150.555C160.847 150.523 160.808 150.497 160.766 150.479C160.723 150.461 160.677 150.452 160.631 150.452H152.167C152.074 150.452 151.984 150.489 151.918 150.555C151.852 150.622 151.815 150.711 151.815 150.805V152.583H146.525V150.805C146.525 150.758 146.516 150.713 146.499 150.67C146.481 150.627 146.455 150.588 146.422 150.555C146.389 150.523 146.35 150.497 146.308 150.479C146.265 150.461 146.219 150.452 146.173 150.452H137.71C137.616 150.452 137.526 150.489 137.46 150.555C137.394 150.622 137.357 150.711 137.357 150.805V152.583H121.136C118.891 152.583 116.739 153.474 115.151 155.061C113.564 156.648 112.673 158.8 112.673 161.044V164.87C112.673 167.114 113.564 169.266 115.151 170.852C116.739 172.439 118.891 173.331 121.136 173.331H402.537C404.781 173.331 406.934 172.439 408.521 170.852C410.108 169.266 411 167.114 411 164.87V161.044C411 159.933 410.781 158.832 410.356 157.806C409.93 156.779 409.307 155.847 408.521 155.061C407.735 154.275 406.802 153.652 405.775 153.227C404.749 152.802 403.648 152.583 402.537 152.583Z" fill="#3F3D56"/>
</g>
<defs>
<clipPath id="clip0">
<rect width="411" height="176" fill="white"/>
</clipPath>
</defs>
</svg>
