<svg width="156" height="101" viewBox="0 0 156 101" fill="none" xmlns="http://www.w3.org/2000/svg">
<g filter="url(#filter0_d)">
<path d="M144.005 84.5259C144.005 87.4567 143.873 89.8004 136.617 89.5779C105.908 89.5779 110.118 89.5779 98.9623 89.5779C91.385 89.5779 24.607 89.5095 18.6166 89.5095C13.6012 89.5095 9 86.9197 9 79.8581C9 78.1936 14.3447 82.949 17.4018 81.4904C26.4659 77.1659 47.6368 73.999 72.9996 73.4891C74.1534 73.4649 75.3156 73.4472 76.4861 73.4361C77.7256 73.4225 78.9734 73.4159 80.2295 73.4164C90.313 73.4164 99.8814 73.8341 108.476 74.583C108.503 74.5861 108.529 74.5891 108.557 74.5906C109.246 74.6511 109.93 74.7137 110.606 74.7782C111.345 74.8494 112.076 74.9225 112.798 74.9976C112.947 75.0128 113.096 75.0279 113.243 75.0445C113.35 75.0551 113.457 75.0672 113.563 75.0794C113.758 75.099 113.953 75.1202 114.146 75.1429C114.153 75.1426 114.16 75.1431 114.166 75.1444C114.521 75.1838 114.873 75.2231 115.223 75.2624C115.259 75.267 115.296 75.2715 115.333 75.2745C125.498 76.4472 133.898 78.1131 139.605 80.0968C144.827 81.911 144.005 82.3137 144.005 84.5259Z" fill="#FF7171"/>
<path d="M141.581 83.695C140.946 84.3253 140.277 84.9141 139.579 85.4582C137.922 86.7423 136.131 87.803 134.245 88.6177C126.407 88.4099 114.885 87.3503 100.341 86.7852C99.2563 86.3766 98.1467 85.9342 97.0125 85.4582C95.5115 84.828 93.9674 84.1354 92.3802 83.3806C85.7882 80.2419 79.0202 78.2016 72.3163 76.9827C70.8757 76.7209 69.4389 76.4965 68.0059 76.3096C37.7334 72.3204 18.1443 81.583 14.9112 83H11.7283L9 80L42.0979 9L50.0111 31.3862L52.5365 38.532L59.4968 28.0079L63.0908 22.5741L79.4576 43.2497L84.0836 31.9929L116.111 60.7921L117.897 62.3975L119.705 64.0236L120.281 64.5416L137.403 79.9386L141.581 83.695Z" fill="#F2F2F2"/>
<path opacity="0.1" d="M39.0344 23.4018L42.3318 15.4847L46.8975 27.0131L42.9659 18.6793L39.0344 23.4018Z" fill="black"/>
<path opacity="0.1" d="M72.4522 77.0893C70.9967 76.8269 69.545 76.6019 68.097 76.4144L52.467 38.5414L72.4522 77.0893Z" fill="black"/>
<path opacity="0.1" d="M59.6748 27.948L63.2776 24.8514L79.66 45.7466L63.0255 27.9161L59.6748 27.948Z" fill="black"/>
<path opacity="0.1" d="M79.6597 43.2248L112.095 77.7281L107.658 78.8906L79.6597 43.2248Z" fill="black"/>
</g>
<defs>
<filter id="filter0_d" x="0" y="0" width="155.052" height="100.593" filterUnits="userSpaceOnUse" color-interpolation-filters="sRGB">
<feFlood flood-opacity="0" result="BackgroundImageFix"/>
<feColorMatrix in="SourceAlpha" type="matrix" values="0 0 0 0 0 0 0 0 0 0 0 0 0 0 0 0 0 0 127 0"/>
<feOffset dx="1" dy="1"/>
<feGaussianBlur stdDeviation="5"/>
<feColorMatrix type="matrix" values="0 0 0 0 0 0 0 0 0 0 0 0 0 0 0 0 0 0 0.25 0"/>
<feBlend mode="normal" in2="BackgroundImageFix" result="effect1_dropShadow"/>
<feBlend mode="normal" in="SourceGraphic" in2="effect1_dropShadow" result="shape"/>
</filter>
</defs>
</svg>
