<svg width="429" height="101" viewBox="0 0 429 101" fill="none" xmlns="http://www.w3.org/2000/svg">
<path d="M173.363 62V59.5977L175.132 59.2227V47.7266L173.363 47.3516V44.9375H181.086C183.234 44.9375 184.91 45.332 186.113 46.1211C187.316 46.9102 187.918 48.0859 187.918 49.6484C187.918 50.4531 187.726 51.1758 187.343 51.8164C186.961 52.4492 186.371 52.9297 185.574 53.2578C186.597 53.4766 187.339 53.9258 187.8 54.6055C188.261 55.2773 188.492 56.0547 188.492 56.9375C188.492 58.6094 187.933 59.8711 186.816 60.7227C185.699 61.5742 184.078 62 181.953 62H173.363ZM179.246 52.0156H180.91C182.839 52.0156 183.804 51.3828 183.804 50.1172C183.804 49.4062 183.578 48.8906 183.125 48.5703C182.679 48.2422 182 48.0781 181.086 48.0781H179.246V52.0156ZM179.246 58.8711H181.953C183.586 58.8711 184.402 58.2227 184.402 56.9258C184.402 56.1914 184.222 55.6445 183.863 55.2852C183.511 54.918 182.941 54.7344 182.152 54.7344H179.246V58.8711ZM196.746 62.2461C195.503 62.2461 194.418 61.9805 193.488 61.4492C192.566 60.9102 191.847 60.1758 191.332 59.2461C190.824 58.3164 190.57 57.2656 190.57 56.0938V55.6602C190.57 54.3711 190.796 53.2305 191.25 52.2383C191.703 51.2461 192.367 50.4727 193.242 49.918C194.117 49.3555 195.191 49.0781 196.464 49.0859C198.183 49.0859 199.503 49.582 200.425 50.5742C201.347 51.5586 201.808 52.9844 201.808 54.8516V56.9727H194.836L194.824 57.0547C194.91 57.6484 195.168 58.1406 195.597 58.5312C196.027 58.9219 196.644 59.1172 197.449 59.1172C198.464 59.1172 199.527 58.8633 200.636 58.3555L201.574 60.8398C201.003 61.2461 200.308 61.582 199.488 61.8477C198.668 62.1133 197.753 62.2461 196.746 62.2461ZM194.836 54.4297H198.058V54.125C198.058 53.4453 197.953 52.9336 197.742 52.5898C197.531 52.2383 197.136 52.0625 196.558 52.0625C195.933 52.0625 195.496 52.2812 195.246 52.7188C195.003 53.1484 194.851 53.6992 194.789 54.3711L194.836 54.4297ZM204.343 66.875V64.4609L205.914 64.0859V52.1094L204.132 51.7344V49.3203H209.769L209.91 50.75C210.253 50.2188 210.668 49.8086 211.152 49.5195C211.636 49.2305 212.23 49.0859 212.933 49.0859C213.933 49.0859 214.793 49.3633 215.511 49.918C216.23 50.4648 216.781 51.2344 217.164 52.2266C217.554 53.2188 217.75 54.3711 217.75 55.6836V55.9297C217.75 57.1953 217.554 58.3047 217.164 59.2578C216.781 60.2031 216.226 60.9375 215.5 61.4609C214.773 61.9844 213.898 62.2461 212.875 62.2461C211.656 62.2461 210.699 61.7852 210.003 60.8633V64.0859L211.433 64.4609V66.875H204.343ZM211.656 59.1172C212.398 59.1172 212.914 58.8398 213.203 58.2852C213.492 57.7227 213.636 56.9375 213.636 55.9297V55.6836C213.636 54.6445 213.48 53.8125 213.168 53.1875C212.863 52.5547 212.351 52.2383 211.632 52.2383C210.875 52.2383 210.332 52.5508 210.003 53.1758V58.3438C210.332 58.8594 210.882 59.1172 211.656 59.1172ZM219.218 62V59.5977L220.976 59.4219L224.515 55.6836L221.246 51.8984L219.546 51.7344V49.3203H226.636V51.582L225.828 51.7461L227.199 53.6445L228.605 51.7578L227.679 51.582V49.3203H234.464V51.7344L232.976 51.8984L229.847 55.4727L233.257 59.4219L234.968 59.5977V62H227.773V59.75L228.605 59.5742L227.164 57.7578L225.734 59.5977L226.636 59.75V62H219.218ZM240.902 67.1211C240.207 67.1211 239.472 67.0078 238.699 66.7812L239.191 63.8398C239.48 63.918 239.781 63.957 240.093 63.957C240.593 63.957 241.035 63.8633 241.418 63.6758C241.808 63.4961 242.054 63.2148 242.156 62.832L242.273 62.3867L238.195 51.9805L236.496 51.7344V49.3203H244.113V51.7344L242.543 51.9688L244.242 57.1016L244.265 57.1953H244.336L246.339 51.9336L244.886 51.7344V49.3203H251.812V51.7344L250.312 51.9453L245.566 63.8516C245.339 64.4219 245.035 64.9531 244.652 65.4453C244.269 65.9453 243.773 66.3477 243.164 66.6523C242.554 66.9648 241.8 67.1211 240.902 67.1211ZM253.925 62V59.5977L255.695 59.2227V52.1094L253.925 51.7344V49.3203H261.566V51.7344L259.796 52.1094V58.8711H262.632V49.3203H266.746V58.8711H269.57V52.1094L267.8 51.7344V49.3203H275.441V51.7344L273.671 52.1094V59.2227L275.441 59.5977V62H253.925ZM278.023 62V59.5977L279.804 59.2227V52.1094L278.023 51.7344V49.3203H285.242V51.7344L283.894 52.1094V53.8203H285.043L286.472 51.4648C286.949 50.6836 287.464 50.1016 288.019 49.7188C288.574 49.3281 289.265 49.1328 290.093 49.1328C290.578 49.1328 291.007 49.1953 291.382 49.3203C291.757 49.4375 292.101 49.5898 292.414 49.7773L291.687 52.6484C291.421 52.5391 291.203 52.4844 291.031 52.4844C290.515 52.4844 290.066 52.7773 289.683 53.3633L288.546 55.2617L290.832 59.3164L292.613 59.5977V62H286.918L285.089 57.6523H283.894V59.2227L285.242 59.5977V62H278.023ZM299.074 62.2461C297.847 62.2461 296.847 61.8984 296.074 61.2031C295.3 60.5078 294.914 59.582 294.914 58.4258C294.914 57.2383 295.39 56.2656 296.343 55.5078C297.304 54.75 298.753 54.3711 300.691 54.3711H302.015V53.6211C302.015 53.1133 301.871 52.6836 301.582 52.332C301.293 51.9727 300.836 51.793 300.211 51.793C299.687 51.793 299.23 51.9219 298.839 52.1797L298.558 53.7969H295.664L295.605 50.2695C296.324 49.9492 297.074 49.6719 297.855 49.4375C298.644 49.2031 299.523 49.0859 300.492 49.0859C302.218 49.0859 303.589 49.4844 304.605 50.2812C305.621 51.0703 306.128 52.1992 306.128 53.668V58.3438C306.128 58.5234 306.128 58.6992 306.128 58.8711C306.136 59.043 306.156 59.207 306.187 59.3633L307.558 59.5977V62H302.753C302.652 61.8594 302.543 61.6719 302.425 61.4375C302.308 61.2031 302.226 60.9688 302.179 60.7344C301.796 61.2109 301.367 61.582 300.89 61.8477C300.414 62.1133 299.808 62.2461 299.074 62.2461ZM300.339 59.3398C300.636 59.3398 300.933 59.2812 301.23 59.1641C301.535 59.0391 301.796 58.8555 302.015 58.6133V56.7852H300.738C300.183 56.7852 299.753 56.9062 299.449 57.1484C299.152 57.3906 299.003 57.7109 299.003 58.1094C299.003 58.4922 299.128 58.793 299.378 59.0117C299.628 59.2305 299.949 59.3398 300.339 59.3398Z" fill="black"/>
<path d="M309.32 62V59.5977L311.078 59.2227V47.7266L309.32 47.3516V44.9375H316.808V47.3516L315.191 47.7266V51.4648H316.515L319.316 47.4453C320.027 46.4453 320.703 45.7461 321.343 45.3477C321.992 44.9492 322.699 44.75 323.464 44.75C323.941 44.75 324.382 44.8125 324.789 44.9375C325.203 45.0547 325.554 45.207 325.843 45.3945L325.128 48.5469C324.847 48.4531 324.597 48.4062 324.378 48.4062C324.066 48.4062 323.722 48.5078 323.347 48.7109C322.98 48.9141 322.554 49.3242 322.07 49.9414L320.019 52.6953L324.144 59.3047L326.054 59.5977V62H318.578V59.5977L319.351 59.4688L319.339 59.4453L317.066 55.2969H315.191V59.2227L316.808 59.5977V62H309.32ZM334.859 62.2461C333.679 62.2461 332.593 62.0312 331.601 61.6016C330.617 61.1641 329.761 60.5547 329.035 59.7734C328.308 58.9922 327.746 58.0781 327.347 57.0312C326.957 55.9766 326.761 54.832 326.761 53.5977V53.3281C326.761 52.1016 326.957 50.9648 327.347 49.918C327.746 48.8711 328.304 47.957 329.023 47.1758C329.75 46.3945 330.605 45.7852 331.589 45.3477C332.574 44.9102 333.656 44.6914 334.836 44.6914C335.992 44.6914 337.066 44.9102 338.058 45.3477C339.05 45.7852 339.918 46.3945 340.66 47.1758C341.41 47.957 341.992 48.8711 342.406 49.918C342.82 50.9648 343.027 52.1016 343.027 53.3281V53.5977C343.027 54.832 342.82 55.9766 342.406 57.0312C341.992 58.0781 341.414 58.9922 340.671 59.7734C339.929 60.5547 339.062 61.1641 338.07 61.6016C337.078 62.0312 336.007 62.2461 334.859 62.2461ZM334.859 59.1289C336.148 59.1289 337.148 58.625 337.859 57.6172C338.578 56.6016 338.937 55.2617 338.937 53.5977V53.3047C338.937 51.6719 338.578 50.3516 337.859 49.3438C337.14 48.3281 336.132 47.8203 334.836 47.8203C333.468 47.8203 332.464 48.3203 331.824 49.3203C331.191 50.3203 330.875 51.6484 330.875 53.3047V53.5977C330.875 55.2695 331.199 56.6094 331.847 57.6172C332.496 58.625 333.5 59.1289 334.859 59.1289ZM344.238 66.1836L344.027 58.8711H345.246C345.66 58.5898 346.031 58.1836 346.359 57.6523C346.687 57.1211 346.957 56.3984 347.168 55.4844C347.386 54.5703 347.527 53.3984 347.589 51.9688L347.929 47.6914L346.347 47.3516V44.9375H361.5V47.3516L359.742 47.7266V58.8711H361.558L361.183 66.207H357.445V62H348.117V66.1836H344.238ZM349.945 58.8711H355.628V48.0781H351.996L351.714 51.9688C351.644 53.6172 351.457 54.9805 351.152 56.0586C350.847 57.1367 350.445 58.0742 349.945 58.8711ZM370.035 62.2461C368.793 62.2461 367.707 61.9805 366.777 61.4492C365.855 60.9102 365.136 60.1758 364.621 59.2461C364.113 58.3164 363.859 57.2656 363.859 56.0938V55.6602C363.859 54.3711 364.086 53.2305 364.539 52.2383C364.992 51.2461 365.656 50.4727 366.531 49.918C367.406 49.3555 368.48 49.0781 369.753 49.0859C371.472 49.0859 372.793 49.582 373.714 50.5742C374.636 51.5586 375.097 52.9844 375.097 54.8516V56.9727H368.125L368.113 57.0547C368.199 57.6484 368.457 58.1406 368.886 58.5312C369.316 58.9219 369.933 59.1172 370.738 59.1172C371.753 59.1172 372.816 58.8633 373.925 58.3555L374.863 60.8398C374.293 61.2461 373.597 61.582 372.777 61.8477C371.957 62.1133 371.043 62.2461 370.035 62.2461ZM368.125 54.4297H371.347V54.125C371.347 53.4453 371.242 52.9336 371.031 52.5898C370.82 52.2383 370.425 52.0625 369.847 52.0625C369.222 52.0625 368.785 52.2812 368.535 52.7188C368.293 53.1484 368.14 53.6992 368.078 54.3711L368.125 54.4297ZM377.632 66.875V64.4609L379.203 64.0859V52.1094L377.421 51.7344V49.3203H383.058L383.199 50.75C383.543 50.2188 383.957 49.8086 384.441 49.5195C384.925 49.2305 385.519 49.0859 386.222 49.0859C387.222 49.0859 388.082 49.3633 388.8 49.918C389.519 50.4648 390.07 51.2344 390.453 52.2266C390.843 53.2188 391.039 54.3711 391.039 55.6836V55.9297C391.039 57.1953 390.843 58.3047 390.453 59.2578C390.07 60.2031 389.515 60.9375 388.789 61.4609C388.062 61.9844 387.187 62.2461 386.164 62.2461C384.945 62.2461 383.988 61.7852 383.293 60.8633V64.0859L384.722 64.4609V66.875H377.632ZM384.945 59.1172C385.687 59.1172 386.203 58.8398 386.492 58.2852C386.781 57.7227 386.925 56.9375 386.925 55.9297V55.6836C386.925 54.6445 386.769 53.8125 386.457 53.1875C386.152 52.5547 385.64 52.2383 384.921 52.2383C384.164 52.2383 383.621 52.5508 383.293 53.1758V58.3438C383.621 58.8594 384.171 59.1172 384.945 59.1172ZM397.418 62.2461C396.191 62.2461 395.191 61.8984 394.418 61.2031C393.644 60.5078 393.257 59.582 393.257 58.4258C393.257 57.2383 393.734 56.2656 394.687 55.5078C395.648 54.75 397.097 54.3711 399.035 54.3711H400.359V53.6211C400.359 53.1133 400.214 52.6836 399.925 52.332C399.636 51.9727 399.179 51.793 398.554 51.793C398.031 51.793 397.574 51.9219 397.183 52.1797L396.902 53.7969H394.007L393.949 50.2695C394.668 49.9492 395.418 49.6719 396.199 49.4375C396.988 49.2031 397.867 49.0859 398.836 49.0859C400.562 49.0859 401.933 49.4844 402.949 50.2812C403.964 51.0703 404.472 52.1992 404.472 53.668V58.3438C404.472 58.5234 404.472 58.6992 404.472 58.8711C404.48 59.043 404.5 59.207 404.531 59.3633L405.902 59.5977V62H401.097C400.996 61.8594 400.886 61.6719 400.769 61.4375C400.652 61.2031 400.57 60.9688 400.523 60.7344C400.14 61.2109 399.711 61.582 399.234 61.8477C398.757 62.1133 398.152 62.2461 397.418 62.2461ZM398.683 59.3398C398.98 59.3398 399.277 59.2812 399.574 59.1641C399.878 59.0391 400.14 58.8555 400.359 58.6133V56.7852H399.082C398.527 56.7852 398.097 56.9062 397.793 57.1484C397.496 57.3906 397.347 57.7109 397.347 58.1094C397.347 58.4922 397.472 58.793 397.722 59.0117C397.972 59.2305 398.293 59.3398 398.683 59.3398Z" fill="#FF7171"/>
<g filter="url(#filter0_d)">
<path d="M144.005 84.5259C144.005 87.4567 143.873 89.8004 136.617 89.5779C105.908 89.5779 110.118 89.5779 98.9623 89.5779C91.385 89.5779 24.607 89.5095 18.6166 89.5095C13.6012 89.5095 9 86.9197 9 79.8581C9 78.1936 14.3447 82.949 17.4018 81.4904C26.4659 77.1659 47.6368 73.999 72.9996 73.4891C74.1534 73.4649 75.3156 73.4472 76.4861 73.4361C77.7256 73.4225 78.9734 73.4159 80.2295 73.4164C90.313 73.4164 99.8814 73.8341 108.476 74.583C108.503 74.5861 108.529 74.5891 108.557 74.5906C109.246 74.6511 109.93 74.7137 110.606 74.7782C111.345 74.8494 112.076 74.9225 112.798 74.9976C112.947 75.0128 113.096 75.0279 113.243 75.0445C113.35 75.0551 113.457 75.0672 113.563 75.0794C113.758 75.099 113.953 75.1202 114.146 75.1429C114.153 75.1426 114.16 75.1431 114.166 75.1444C114.521 75.1838 114.873 75.2231 115.223 75.2624C115.259 75.267 115.296 75.2715 115.333 75.2745C125.498 76.4472 133.898 78.1131 139.605 80.0968C144.827 81.911 144.005 82.3137 144.005 84.5259Z" fill="#FF7171"/>
<path d="M141.581 83.695C140.946 84.3253 140.277 84.9141 139.579 85.4582C137.922 86.7423 136.131 87.803 134.245 88.6177C126.407 88.4099 114.885 87.3503 100.341 86.7852C99.2563 86.3766 98.1467 85.9342 97.0125 85.4582C95.5115 84.828 93.9674 84.1354 92.3802 83.3806C85.7882 80.2419 79.0202 78.2016 72.3163 76.9827C70.8757 76.7209 69.4389 76.4965 68.0059 76.3096C37.7334 72.3204 18.1443 81.583 14.9112 83H11.7283L9 80L42.0979 9L50.0111 31.3862L52.5365 38.532L59.4968 28.0079L63.0908 22.5741L79.4576 43.2497L84.0836 31.9929L116.111 60.7921L117.897 62.3975L119.705 64.0236L120.281 64.5416L137.403 79.9386L141.581 83.695Z" fill="#F2F2F2"/>
<path opacity="0.1" d="M39.0344 23.4018L42.3318 15.4847L46.8975 27.0131L42.9659 18.6793L39.0344 23.4018Z" fill="black"/>
<path opacity="0.1" d="M72.4522 77.0893C70.9967 76.8269 69.545 76.6019 68.097 76.4144L52.467 38.5414L72.4522 77.0893Z" fill="black"/>
<path opacity="0.1" d="M59.6748 27.948L63.2776 24.8514L79.66 45.7466L63.0255 27.9161L59.6748 27.948Z" fill="black"/>
<path opacity="0.1" d="M79.6597 43.2248L112.095 77.7281L107.658 78.8906L79.6597 43.2248Z" fill="black"/>
</g>
<defs>
<filter id="filter0_d" x="0" y="0" width="155.052" height="100.593" filterUnits="userSpaceOnUse" color-interpolation-filters="sRGB">
<feFlood flood-opacity="0" result="BackgroundImageFix"/>
<feColorMatrix in="SourceAlpha" type="matrix" values="0 0 0 0 0 0 0 0 0 0 0 0 0 0 0 0 0 0 127 0"/>
<feOffset dx="1" dy="1"/>
<feGaussianBlur stdDeviation="5"/>
<feColorMatrix type="matrix" values="0 0 0 0 0 0 0 0 0 0 0 0 0 0 0 0 0 0 0.25 0"/>
<feBlend mode="normal" in2="BackgroundImageFix" result="effect1_dropShadow"/>
<feBlend mode="normal" in="SourceGraphic" in2="effect1_dropShadow" result="shape"/>
</filter>
</defs>
</svg>
