<svg width="58" height="48" viewBox="0 0 58 48" fill="none" xmlns="http://www.w3.org/2000/svg">
<path d="M4.76568 47.1327H53.2461C55.625 47.1327 57.5586 45.1992 57.5586 42.8085V5.19135C57.5586 2.81244 55.625 0.867126 53.2461 0.867126H4.76568C2.38677 0.867126 0.453178 2.80072 0.453178 5.19135V42.8202C0.441459 45.1992 2.38677 47.1327 4.76568 47.1327ZM53.2344 44.2617H4.76568C3.9688 44.2617 3.32427 43.6171 3.32427 42.8085V14.5898H54.6875V42.8202C54.6875 43.6054 54.0313 44.2617 53.2344 44.2617ZM4.76568 3.73822H53.2461C54.043 3.73822 54.6875 4.38275 54.6875 5.19135V11.7187H3.31255V5.19135C3.31255 4.39447 3.9688 3.73822 4.76568 3.73822Z" fill="#FF7171"/>
<path d="M7.30859 9.16401C7.68359 9.16401 8.05859 9.01167 8.32812 8.74214C8.59766 8.47261 8.75 8.10933 8.75 7.72261C8.75 7.34761 8.59766 6.97261 8.32812 6.70308C7.78906 6.16401 6.82812 6.17573 6.30078 6.70308C6.03125 6.97261 5.87891 7.33589 5.87891 7.72261C5.87891 8.09761 6.03125 8.47261 6.30078 8.74214C6.55859 9.01167 6.92187 9.16401 7.30859 9.16401Z" fill="#FF7171"/>
<path d="M12.7344 9.16401C13.1094 9.16401 13.4844 9.01167 13.7422 8.74214C14.0117 8.47261 14.1641 8.10933 14.1641 7.72261C14.1641 7.34761 14.0117 6.97261 13.7422 6.70308C13.2031 6.16401 12.2539 6.17573 11.7148 6.70308C11.4453 6.97261 11.293 7.34761 11.293 7.72261C11.293 8.09761 11.4453 8.47261 11.7148 8.74214C11.9844 9.01167 12.3477 9.16401 12.7344 9.16401Z" fill="#FF7171"/>
<path d="M18.1484 9.16401C18.5234 9.16401 18.8984 9.01167 19.168 8.74214C19.4375 8.47261 19.5898 8.10933 19.5898 7.72261C19.5898 7.34761 19.4375 6.97261 19.168 6.70308C18.6289 6.17573 17.6797 6.16401 17.1406 6.70308C16.8711 6.97261 16.7188 7.34761 16.7188 7.72261C16.7188 8.09761 16.8711 8.47261 17.1406 8.74214C17.4102 9.01167 17.7734 9.16401 18.1484 9.16401Z" fill="#FF7171"/>
<path d="M29.0703 18.5507C19.3555 18.5507 12.6055 28.0078 12.3242 28.4062C11.9727 28.8984 11.9727 29.5663 12.3242 30.0585C12.6055 30.457 19.3555 39.914 29.0703 39.914C38.7969 39.914 45.5352 30.457 45.8164 30.0585C46.168 29.5663 46.168 28.8984 45.8164 28.4062C45.5352 28.0078 38.7969 18.5507 29.0703 18.5507ZM29.0703 37.0546C22.3906 37.0546 17.0937 31.4062 15.3125 29.2382C17.0937 27.082 22.3906 21.4218 29.0703 21.4218C35.75 21.4218 41.0469 27.0703 42.8281 29.2382C41.0469 31.3945 35.75 37.0546 29.0703 37.0546Z" fill="#FF7171"/>
<path d="M29.0703 23.496C26.0469 23.496 23.5859 25.957 23.5859 28.9804C23.5859 32.0038 26.0469 34.4648 29.0703 34.4648C32.0938 34.4648 34.5547 32.0038 34.5547 28.9804C34.5547 25.957 32.0938 23.496 29.0703 23.496ZM29.0703 31.5937C27.6289 31.5937 26.457 30.4218 26.457 28.9804C26.457 27.539 27.6289 26.3671 29.0703 26.3671C30.5117 26.3671 31.6836 27.539 31.6836 28.9804C31.6836 30.4218 30.5117 31.5937 29.0703 31.5937Z" fill="#FF7171"/>
</svg>
