<svg width="58" height="48" viewBox="0 0 58 48" fill="none" xmlns="http://www.w3.org/2000/svg">
<path d="M4.76563 0.867126C2.38672 0.867126 0.441406 2.80072 0.441406 5.17963V42.8085C0.441406 45.1874 2.375 47.121 4.76563 47.121H53.2461C55.625 47.121 57.5586 45.1874 57.5586 42.8085V5.19135C57.5586 2.81244 55.625 0.878845 53.2461 0.878845H4.76563V0.867126ZM53.2344 44.2617H4.76563C3.96875 44.2617 3.3125 43.6171 3.3125 42.8203V14.5898H54.6758V42.8203C54.6875 43.6171 54.0313 44.2617 53.2344 44.2617ZM54.6875 5.19135V11.7187H3.3125V5.19135C3.3125 4.39447 3.95703 3.74994 4.76563 3.74994H53.2461C54.0313 3.73822 54.6875 4.38275 54.6875 5.19135Z" fill="#FF7171"/>
<path d="M6.28906 6.71473C6.01953 6.98427 5.86719 7.34755 5.86719 7.73427C5.86719 8.10927 6.01953 8.48427 6.28906 8.74208C6.55859 9.01161 6.92188 9.16395 7.30859 9.16395C7.68359 9.16395 8.05859 9.01161 8.31641 8.74208C8.58594 8.47255 8.73828 8.10927 8.73828 7.72255C8.73828 7.34755 8.58594 6.97255 8.31641 6.70302C7.78906 6.17567 6.82813 6.17567 6.28906 6.71473Z" fill="#FF7171"/>
<path d="M11.7148 6.71473C11.4453 6.98427 11.293 7.34755 11.293 7.73427C11.293 8.10927 11.4453 8.48427 11.7148 8.74208C11.9844 9.01161 12.3477 9.16395 12.7344 9.16395C13.1094 9.16395 13.4844 9.01161 13.7539 8.74208C14.0234 8.47255 14.1758 8.10927 14.1758 7.72255C14.1758 7.34755 14.0234 6.97255 13.7539 6.70302C13.2148 6.17567 12.2539 6.17567 11.7148 6.71473Z" fill="#FF7171"/>
<path d="M17.1406 6.71478C16.8711 6.98431 16.7188 7.3476 16.7188 7.73431C16.7188 8.10931 16.8711 8.48432 17.1406 8.74213C17.4102 9.01166 17.7734 9.164 18.1602 9.164C18.5352 9.164 18.9102 9.01166 19.1797 8.74213C19.4492 8.4726 19.6016 8.10931 19.6016 7.73431C19.6016 7.35931 19.4492 6.98431 19.1797 6.71478C18.6289 6.17572 17.668 6.17572 17.1406 6.71478Z" fill="#FF7171"/>
<path d="M35.7734 27.3515H30.4414V22.0195C30.4414 21.2226 29.7969 20.5781 29 20.5781C28.2031 20.5781 27.5586 21.2226 27.5586 22.0195V27.3515H22.2266C21.4297 27.3515 20.7852 27.996 20.7852 28.7929C20.7852 29.5898 21.4297 30.2343 22.2266 30.2343H27.5586V35.5663C27.5586 36.3632 28.2031 37.0077 29 37.0077C29.7969 37.0077 30.4414 36.3632 30.4414 35.5663V30.2343H35.7734C36.5703 30.2343 37.2148 29.5898 37.2148 28.7929C37.2148 27.996 36.5586 27.3515 35.7734 27.3515Z" fill="#FF7171"/>
</svg>
