<svg width="280" height="211" viewBox="0 0 280 211" fill="none" xmlns="http://www.w3.org/2000/svg">
<g clip-path="url(#clip0)">
<path d="M161.356 10.2694C163.758 15.3716 158.668 16.8168 152.839 19.5516C147.009 22.2863 142.646 25.275 140.244 20.1727C137.843 15.0705 135.894 4.94355 144.141 1.0748C152.673 -2.92722 158.954 5.1672 161.356 10.2694Z" fill="#2F2E41"/>
<path d="M149.461 20.3035C153.796 20.3035 157.31 16.7958 157.31 12.4689C157.31 8.14195 153.796 4.63428 149.461 4.63428C145.127 4.63428 141.613 8.14195 141.613 12.4689C141.613 16.7958 145.127 20.3035 149.461 20.3035Z" fill="#FFB8B8"/>
<path d="M188.342 47.2137C188.071 46.8597 187.799 46.512 187.524 46.1738C187.17 45.7336 186.813 45.3073 186.454 44.8947C182.386 40.2088 178.06 37.2582 173.296 36.9424H173.289L173.219 36.936L163.725 46.1738L160.498 49.3127L160.568 49.4849L162.31 53.8135H192.822C191.447 51.5358 189.952 49.3327 188.342 47.2137Z" fill="#2F2E41"/>
<path d="M140.927 15.623L143.737 14.3052L143.345 10.2594L145.224 13.6075L146.567 12.9776L146.339 10.6176L147.434 12.5706L157.412 7.8903C156.475 5.89954 154.784 4.36193 152.711 3.61573C150.638 2.86953 148.353 2.97586 146.359 3.91133L144.913 4.58964C142.919 5.52512 141.379 7.21311 140.631 9.28227C139.884 11.3514 139.99 13.6323 140.927 15.623Z" fill="#2F2E41"/>
<path d="M205.949 157.834H42.079C40.6812 157.832 39.341 157.277 38.3526 156.291C37.3642 155.304 36.8082 153.966 36.8066 152.571V54.2742C36.8078 53.2519 37.2151 52.2718 37.9392 51.5489C38.6633 50.826 39.6451 50.4194 40.6692 50.4182H207.292C208.334 50.4194 209.333 50.8331 210.069 51.5684C210.806 52.3038 211.22 53.3009 211.221 54.3409V152.571C211.22 153.966 210.664 155.304 209.675 156.291C208.687 157.277 207.347 157.832 205.949 157.834Z" fill="#F2F2F2"/>
<path d="M47.1912 152.571H200.836C202.192 152.571 203.493 152.033 204.451 151.076C205.41 150.119 205.949 148.82 205.949 147.467V64.037C205.949 62.6834 205.41 61.3852 204.451 60.4281C203.493 59.4709 202.192 58.9332 200.836 58.9332H47.1912C45.8352 58.9332 44.5348 59.4709 43.576 60.4281C42.6173 61.3852 42.0786 62.6834 42.0786 64.037V147.467C42.0786 148.82 42.6173 150.119 43.576 151.076C44.5348 152.033 45.8352 152.571 47.1912 152.571Z" fill="white"/>
<path d="M211.148 53.9731H36.7324V51.2935C36.7344 49.8935 37.2927 48.5514 38.2847 47.5617C39.2767 46.572 40.6215 46.0156 42.024 46.0144H205.856C207.259 46.0156 208.604 46.572 209.596 47.5617C210.588 48.5514 211.146 49.8935 211.148 51.2935V53.9731Z" fill="#FF7171"/>
<path d="M46.3492 51.3679C47.1051 51.3679 47.7179 50.7562 47.7179 50.0016C47.7179 49.247 47.1051 48.6353 46.3492 48.6353C45.5933 48.6353 44.9805 49.247 44.9805 50.0016C44.9805 50.7562 45.5933 51.3679 46.3492 51.3679Z" fill="white"/>
<path d="M51.5445 51.3679C52.3004 51.3679 52.9132 50.7562 52.9132 50.0016C52.9132 49.247 52.3004 48.6353 51.5445 48.6353C50.7886 48.6353 50.1758 49.247 50.1758 50.0016C50.1758 50.7562 50.7886 51.3679 51.5445 51.3679Z" fill="white"/>
<path d="M56.7398 51.3679C57.4957 51.3679 58.1085 50.7562 58.1085 50.0016C58.1085 49.247 57.4957 48.6353 56.7398 48.6353C55.9839 48.6353 55.3711 49.247 55.3711 50.0016C55.3711 50.7562 55.9839 51.3679 56.7398 51.3679Z" fill="white"/>
<path d="M128.808 134.478H115.068C114.263 134.477 113.492 134.157 112.923 133.589C112.354 133.021 112.034 132.251 112.033 131.447V117.731C112.034 116.927 112.354 116.157 112.923 115.589C113.492 115.021 114.263 114.701 115.068 114.7H128.808C129.613 114.701 130.385 115.021 130.954 115.589C131.523 116.157 131.843 116.927 131.844 117.731V131.447C131.843 132.251 131.523 133.021 130.954 133.589C130.385 134.157 129.613 134.477 128.808 134.478ZM115.068 115.338C114.433 115.339 113.824 115.591 113.374 116.04C112.925 116.488 112.672 117.097 112.672 117.731V131.447C112.672 132.081 112.925 132.69 113.374 133.138C113.824 133.587 114.433 133.839 115.068 133.84H128.808C129.444 133.839 130.053 133.587 130.502 133.138C130.951 132.69 131.204 132.081 131.205 131.447V117.731C131.204 117.097 130.951 116.488 130.502 116.04C130.053 115.591 129.444 115.339 128.808 115.338H115.068Z" fill="#CCCCCC"/>
<path d="M126.092 130.65H117.784C117.53 130.649 117.286 130.548 117.107 130.369C116.927 130.19 116.826 129.946 116.826 129.693V119.485C116.826 119.231 116.927 118.988 117.107 118.809C117.286 118.629 117.53 118.528 117.784 118.528H123.804C124.023 118.528 124.234 118.603 124.405 118.739L126.693 120.575C126.805 120.664 126.895 120.778 126.957 120.907C127.019 121.036 127.051 121.177 127.051 121.321V129.693C127.051 129.946 126.949 130.19 126.77 130.369C126.59 130.548 126.346 130.649 126.092 130.65ZM117.784 119.166C117.7 119.166 117.618 119.2 117.558 119.26C117.499 119.32 117.465 119.401 117.465 119.485V129.693C117.465 129.777 117.499 129.858 117.558 129.918C117.618 129.978 117.7 130.012 117.784 130.012H126.092C126.177 130.012 126.258 129.978 126.318 129.918C126.378 129.858 126.412 129.777 126.412 129.693V121.321C126.412 121.273 126.401 121.226 126.381 121.183C126.36 121.14 126.33 121.102 126.292 121.072L124.004 119.236C123.947 119.191 123.877 119.166 123.804 119.166H117.784Z" fill="#CCCCCC"/>
<path d="M124.494 122.994H119.382C119.297 122.994 119.216 122.96 119.156 122.901C119.096 122.841 119.062 122.76 119.062 122.675C119.062 122.59 119.096 122.509 119.156 122.45C119.216 122.39 119.297 122.356 119.382 122.356H124.494C124.579 122.356 124.66 122.39 124.72 122.45C124.78 122.509 124.814 122.59 124.814 122.675C124.814 122.76 124.78 122.841 124.72 122.901C124.66 122.96 124.579 122.994 124.494 122.994Z" fill="#CCCCCC"/>
<path d="M124.494 124.908H119.382C119.297 124.908 119.216 124.874 119.156 124.815C119.096 124.755 119.062 124.674 119.062 124.589C119.062 124.504 119.096 124.423 119.156 124.363C119.216 124.304 119.297 124.27 119.382 124.27H124.494C124.579 124.27 124.66 124.304 124.72 124.363C124.78 124.423 124.814 124.504 124.814 124.589C124.814 124.674 124.78 124.755 124.72 124.815C124.66 124.874 124.579 124.908 124.494 124.908Z" fill="#CCCCCC"/>
<path d="M124.494 126.822H119.382C119.297 126.822 119.216 126.788 119.156 126.728C119.096 126.669 119.062 126.587 119.062 126.503C119.062 126.418 119.096 126.337 119.156 126.277C119.216 126.217 119.297 126.184 119.382 126.184H124.494C124.579 126.184 124.66 126.217 124.72 126.277C124.78 126.337 124.814 126.418 124.814 126.503C124.814 126.587 124.78 126.669 124.72 126.728C124.66 126.788 124.579 126.822 124.494 126.822Z" fill="#CCCCCC"/>
<path d="M161.401 134.478H147.661C146.856 134.477 146.084 134.157 145.515 133.589C144.946 133.021 144.626 132.251 144.625 131.447V117.731C144.626 116.927 144.946 116.157 145.515 115.589C146.084 115.021 146.856 114.701 147.661 114.7H161.401C162.205 114.701 162.977 115.021 163.546 115.589C164.115 116.157 164.435 116.927 164.436 117.731V131.447C164.435 132.251 164.115 133.021 163.546 133.589C162.977 134.157 162.205 134.477 161.401 134.478ZM147.661 115.338C147.025 115.339 146.416 115.591 145.967 116.04C145.517 116.488 145.265 117.097 145.264 117.731V131.447C145.265 132.081 145.517 132.69 145.967 133.138C146.416 133.587 147.025 133.839 147.661 133.84H161.401C162.036 133.839 162.645 133.587 163.094 133.138C163.544 132.69 163.796 132.081 163.797 131.447V117.731C163.796 117.097 163.544 116.488 163.094 116.04C162.645 115.591 162.036 115.339 161.401 115.338H147.661Z" fill="#CCCCCC"/>
<path d="M159.004 128.098H150.057C149.803 128.097 149.559 127.997 149.38 127.817C149.2 127.638 149.099 127.395 149.099 127.141V122.037C149.099 121.783 149.2 121.54 149.38 121.361C149.559 121.181 149.803 121.08 150.057 121.08H159.004C159.258 121.08 159.502 121.181 159.682 121.361C159.861 121.54 159.963 121.783 159.963 122.037V127.141C159.963 127.395 159.861 127.638 159.682 127.817C159.502 127.997 159.258 128.097 159.004 128.098ZM150.057 121.718C149.973 121.718 149.891 121.752 149.831 121.812C149.771 121.871 149.738 121.952 149.738 122.037V127.141C149.738 127.225 149.771 127.306 149.831 127.366C149.891 127.426 149.973 127.46 150.057 127.46H159.004C159.089 127.46 159.17 127.426 159.23 127.366C159.29 127.306 159.324 127.225 159.324 127.141V122.037C159.324 121.952 159.29 121.871 159.23 121.812C159.17 121.752 159.089 121.718 159.004 121.718H150.057Z" fill="#CCCCCC"/>
<path d="M154.531 125.43C154.351 125.431 154.175 125.381 154.023 125.286L149.249 122.308C149.177 122.263 149.126 122.191 149.107 122.109C149.088 122.026 149.103 121.94 149.148 121.868C149.193 121.797 149.264 121.746 149.347 121.726C149.429 121.707 149.516 121.722 149.588 121.766L154.362 124.745C154.412 124.776 154.471 124.793 154.531 124.793C154.591 124.793 154.649 124.776 154.7 124.745L159.474 121.766C159.546 121.722 159.632 121.707 159.715 121.726C159.797 121.746 159.869 121.797 159.914 121.868C159.959 121.94 159.973 122.026 159.954 122.109C159.935 122.191 159.884 122.263 159.813 122.308L155.039 125.286C154.887 125.381 154.71 125.431 154.531 125.43Z" fill="#CCCCCC"/>
<path d="M96.2156 134.478H82.4755C81.6707 134.477 80.8991 134.157 80.3301 133.589C79.761 133.021 79.4409 132.251 79.4399 131.447V117.731C79.4409 116.927 79.761 116.157 80.3301 115.589C80.8991 115.021 81.6707 114.701 82.4755 114.7H96.2156C97.0204 114.701 97.792 115.021 98.361 115.589C98.9301 116.157 99.2502 116.927 99.2512 117.731V131.447C99.2502 132.251 98.9301 133.021 98.361 133.589C97.792 134.157 97.0204 134.477 96.2156 134.478ZM82.4755 115.338C81.8402 115.339 81.231 115.591 80.7817 116.04C80.3324 116.488 80.0797 117.097 80.079 117.731V131.447C80.0797 132.081 80.3324 132.69 80.7817 133.138C81.231 133.587 81.8402 133.839 82.4755 133.84H96.2156C96.8509 133.839 97.4601 133.587 97.9094 133.138C98.3587 132.69 98.6114 132.081 98.6121 131.447V117.731C98.6114 117.097 98.3587 116.488 97.9094 116.04C97.4601 115.591 96.8509 115.339 96.2156 115.338H82.4755Z" fill="#CCCCCC"/>
<path d="M93.8187 128.098H84.8717C84.6175 128.097 84.3739 127.997 84.1942 127.817C84.0144 127.638 83.9134 127.395 83.9131 127.141V122.037C83.9134 121.783 84.0144 121.54 84.1942 121.361C84.3739 121.181 84.6175 121.08 84.8717 121.08H93.8187C94.0728 121.08 94.3165 121.181 94.4962 121.361C94.6759 121.54 94.777 121.783 94.7773 122.037V127.141C94.777 127.395 94.6759 127.638 94.4962 127.817C94.3165 127.997 94.0728 128.097 93.8187 128.098ZM84.8717 121.718C84.787 121.718 84.7058 121.752 84.6458 121.812C84.5859 121.871 84.5522 121.952 84.5522 122.037V127.141C84.5522 127.225 84.5859 127.306 84.6458 127.366C84.7058 127.426 84.787 127.46 84.8717 127.46H93.8187C93.9034 127.46 93.9846 127.426 94.0445 127.366C94.1044 127.306 94.1381 127.225 94.1382 127.141V122.037C94.1381 121.952 94.1044 121.871 94.0445 121.812C93.9846 121.752 93.9034 121.718 93.8187 121.718H84.8717Z" fill="#CCCCCC"/>
<path d="M92.401 128.098H85.9707C85.8585 128.098 85.7483 128.068 85.6511 128.012C85.5539 127.956 85.4732 127.876 85.4171 127.779C85.361 127.682 85.3315 127.572 85.3315 127.46C85.3316 127.348 85.3611 127.238 85.4173 127.141L87.3541 123.792C87.4102 123.695 87.4909 123.614 87.5881 123.558C87.6852 123.502 87.7954 123.473 87.9076 123.473C88.0198 123.473 88.13 123.502 88.2272 123.558C88.3243 123.614 88.405 123.695 88.4611 123.792L89.7121 125.955L90.4368 124.701C90.4929 124.604 90.5736 124.524 90.6708 124.468C90.7679 124.412 90.8781 124.382 90.9903 124.382C91.1025 124.382 91.2127 124.412 91.3099 124.468C91.407 124.524 91.4877 124.604 91.5438 124.701L92.9546 127.141C93.0107 127.238 93.0402 127.348 93.0402 127.46C93.0402 127.572 93.0106 127.682 92.9545 127.779C92.8984 127.876 92.8177 127.956 92.7206 128.012C92.6234 128.068 92.5132 128.098 92.401 128.098H92.401ZM92.401 127.46L90.9903 125.02L89.9889 126.752C89.9609 126.801 89.9205 126.841 89.8719 126.869C89.8233 126.897 89.7682 126.912 89.7121 126.912C89.656 126.912 89.6009 126.897 89.5523 126.869C89.5037 126.841 89.4634 126.801 89.4353 126.752L87.9077 124.111L85.9707 127.46H92.401Z" fill="#CCCCCC"/>
<path d="M92.8603 123.632C93.2132 123.632 93.4993 123.346 93.4993 122.994C93.4993 122.642 93.2132 122.356 92.8603 122.356C92.5073 122.356 92.2212 122.642 92.2212 122.994C92.2212 123.346 92.5073 123.632 92.8603 123.632Z" fill="#CCCCCC"/>
<path d="M245.667 206.75L241.749 206.75L239.886 191.666L245.667 191.666L245.667 206.75Z" fill="#FFB8B8"/>
<path d="M246.666 210.541L234.035 210.54V210.381C234.035 209.736 234.162 209.098 234.409 208.503C234.656 207.907 235.018 207.366 235.475 206.91C235.931 206.455 236.473 206.093 237.07 205.847C237.666 205.6 238.306 205.473 238.951 205.473H238.952L246.666 205.473L246.666 210.541Z" fill="#2F2E41"/>
<path d="M261.644 206.75L257.726 206.75L255.863 191.666L261.644 191.666L261.644 206.75Z" fill="#FFB8B8"/>
<path d="M262.643 210.541L250.011 210.54V210.381C250.011 209.736 250.138 209.098 250.385 208.503C250.633 207.907 250.995 207.366 251.451 206.91C251.908 206.455 252.45 206.093 253.046 205.847C253.643 205.6 254.282 205.473 254.928 205.473H254.928L262.643 205.473L262.643 210.541Z" fill="#2F2E41"/>
<path d="M260.469 200.211L256.841 199.109C256.571 199.027 256.33 198.868 256.15 198.65C255.97 198.433 255.859 198.167 255.829 197.887L252.447 165.884C252.444 165.845 252.427 165.809 252.399 165.783C252.37 165.756 252.333 165.741 252.294 165.741C252.255 165.738 252.216 165.749 252.186 165.774C252.155 165.798 252.136 165.833 252.131 165.872L246.465 196.877C246.431 197.065 246.359 197.245 246.254 197.405C246.149 197.565 246.014 197.702 245.855 197.809C245.696 197.916 245.517 197.99 245.33 198.027C245.142 198.065 244.948 198.064 244.761 198.025L240.124 197.072C239.784 197.001 239.481 196.81 239.27 196.533C239.06 196.257 238.957 195.915 238.979 195.569L242.425 144.75L265.796 142.233L262.323 198.925C262.3 199.29 262.14 199.632 261.874 199.882C261.607 200.133 261.256 200.273 260.89 200.274C260.747 200.274 260.606 200.253 260.469 200.211Z" fill="#2F2E41"/>
<path d="M260.447 100.496C264.782 100.496 268.295 96.988 268.295 92.661C268.295 88.3341 264.782 84.8264 260.447 84.8264C256.113 84.8264 252.599 88.3341 252.599 92.661C252.599 96.988 256.113 100.496 260.447 100.496Z" fill="#FFB8B8"/>
<path d="M242.39 145.049L247.457 113.198C247.726 111.504 248.354 109.888 249.298 108.455C250.242 107.023 251.481 105.807 252.932 104.89C254.383 103.972 256.014 103.374 257.714 103.135C259.415 102.895 261.148 103.02 262.796 103.501C265.679 104.333 268.147 106.208 269.719 108.76C271.291 111.312 271.853 114.357 271.296 117.301L265.995 145.745L242.39 145.049Z" fill="#9FD8DF"/>
<path d="M262.614 150.748C263.006 150.489 263.336 150.148 263.582 149.749C263.827 149.349 263.982 148.9 264.036 148.434C264.089 147.969 264.039 147.497 263.89 147.052C263.741 146.607 263.495 146.201 263.172 145.861L268.411 135.733L262.511 136.361L258.44 145.883C257.904 146.464 257.6 147.22 257.586 148.01C257.572 148.799 257.848 149.566 258.362 150.166C258.877 150.766 259.594 151.156 260.377 151.263C261.161 151.371 261.956 151.187 262.614 150.748V150.748Z" fill="#FFB8B8"/>
<path d="M263.736 144.074C263.446 144.034 263.175 143.906 262.96 143.707L260.956 141.858C260.739 141.658 260.59 141.395 260.527 141.107C260.465 140.819 260.493 140.518 260.607 140.246L264.613 130.766L264.045 112.036C264.126 111.434 264.326 110.853 264.633 110.328C264.939 109.803 265.346 109.344 265.83 108.976C266.315 108.608 266.867 108.339 267.456 108.185C268.045 108.03 268.658 107.993 269.261 108.075C269.864 108.157 270.445 108.357 270.971 108.663C271.496 108.97 271.956 109.376 272.324 109.86C272.692 110.344 272.961 110.896 273.116 111.484C273.27 112.071 273.307 112.684 273.224 113.286L274.196 125.06C274.491 128.634 273.476 132.193 271.34 135.075L265.092 143.507C264.972 143.669 264.819 143.804 264.643 143.903C264.467 144.002 264.272 144.063 264.071 144.082C263.959 144.093 263.847 144.09 263.736 144.074Z" fill="#9FD8DF"/>
<path d="M215.252 88.3925C215.338 88.8536 215.523 89.2903 215.796 89.672C216.069 90.0537 216.423 90.371 216.832 90.6016C217.241 90.8322 217.695 90.9704 218.164 91.0066C218.632 91.0428 219.103 90.976 219.542 90.811L226.842 99.5761L228.563 93.9072L221.367 86.4528C221.04 85.7337 220.461 85.1593 219.738 84.8384C219.016 84.5174 218.2 84.4722 217.447 84.7113C216.693 84.9503 216.053 85.4571 215.649 86.1356C215.244 86.8141 215.103 87.6171 215.252 88.3925Z" fill="#FFB8B8"/>
<path d="M220.97 92.0256C221.121 91.7751 221.345 91.5764 221.611 91.456L224.099 90.3342C224.368 90.2134 224.668 90.1781 224.959 90.2332C225.249 90.2883 225.515 90.431 225.722 90.6421L232.904 98.0209L250.404 104.801C250.928 105.111 251.385 105.521 251.75 106.007C252.115 106.494 252.38 107.047 252.531 107.636C252.682 108.225 252.714 108.838 252.628 109.439C252.541 110.041 252.336 110.619 252.025 111.142C251.714 111.664 251.303 112.12 250.815 112.484C250.328 112.848 249.773 113.112 249.183 113.262C248.593 113.411 247.979 113.443 247.377 113.356C246.774 113.268 246.195 113.063 245.672 112.752L234.432 109.055C231.02 107.933 228.133 105.613 226.307 102.525L220.965 93.494C220.863 93.3204 220.798 93.1271 220.775 92.9267C220.752 92.7264 220.772 92.5234 220.832 92.3312C220.866 92.2242 220.913 92.1217 220.97 92.0256Z" fill="#9FD8DF"/>
<path opacity="0.1" d="M266.813 119.827L266.493 130.035L260.607 140.246L265.522 128.867L266.813 119.827Z" fill="black"/>
<path d="M259.548 94.1333C259.055 94.1973 258.556 94.0805 258.142 93.8046C257.729 93.5288 257.43 93.1126 257.301 92.6334C257.177 92.0818 256.905 91.5745 256.513 91.1658C256.122 90.757 255.627 90.4623 255.08 90.3132C253.641 89.9848 251.881 90.6613 250.826 89.5724C250.6 89.3239 250.437 89.0252 250.35 88.7012C250.262 88.3772 250.253 88.037 250.323 87.7088C250.517 86.6507 251.275 85.8513 252.101 85.212C253.837 83.8728 255.938 83.0888 258.129 82.9629C259.263 82.9301 260.398 82.9865 261.523 83.1314C262.701 83.2056 263.866 83.4182 264.994 83.7647C266.279 84.2489 267.422 85.0487 268.315 86.0902C269.209 87.1317 269.825 88.3813 270.107 89.7235C270.365 91.0698 270.325 92.456 269.991 93.7855C269.657 95.1149 269.036 96.3555 268.172 97.4207C267.137 98.7068 265.803 99.7207 264.286 100.374C263.925 100.544 263.51 100.565 263.134 100.432C262.189 100.057 262.343 98.8888 262.774 98.1094C263.235 97.2753 263.945 96.4678 263.574 95.4527C263.388 94.982 263.031 94.5986 262.574 94.3789C261.635 93.9007 260.584 94.0138 259.574 94.1303L259.548 94.1333Z" fill="#2F2E41"/>
<path d="M212.629 98.5577H115.491C114.093 98.5561 112.753 98.0011 111.764 97.0143C110.776 96.0276 110.22 94.6898 110.218 93.2944V72.5604C110.22 71.165 110.776 69.8271 111.764 68.8404C112.753 67.8537 114.093 67.2987 115.491 67.2971H212.629C214.027 67.2987 215.367 67.8538 216.356 68.8405C217.344 69.8272 217.9 71.165 217.902 72.5604V93.2944C217.9 94.6898 217.344 96.0276 216.356 97.0143C215.367 98.001 214.027 98.5561 212.629 98.5577Z" fill="white"/>
<path d="M212.63 98.7172H115.491C114.051 98.7156 112.67 98.1438 111.651 97.1272C110.633 96.1106 110.06 94.7322 110.059 93.2945V72.5604C110.06 71.1227 110.633 69.7444 111.651 68.7278C112.67 67.7112 114.051 67.1393 115.491 67.1377H212.63C214.07 67.1393 215.45 67.7112 216.469 68.7278C217.487 69.7444 218.06 71.1227 218.062 72.5604V93.2945C218.06 94.7322 217.487 96.1106 216.469 97.1272C215.45 98.1438 214.07 98.7156 212.63 98.7172ZM115.491 67.7757C114.22 67.7771 113.002 68.2817 112.103 69.1787C111.205 70.0757 110.699 71.2919 110.698 72.5604V93.2945C110.699 94.563 111.205 95.7792 112.103 96.6763C113.002 97.5733 114.22 98.0778 115.491 98.0793H212.63C213.9 98.0778 215.119 97.5733 216.017 96.6763C216.916 95.7792 217.421 94.563 217.423 93.2945V72.5604C217.421 71.2919 216.916 70.0757 216.017 69.1787C215.119 68.2817 213.9 67.7771 212.63 67.7757H115.491Z" fill="#3F3D56"/>
<path d="M200.807 93.4539H127.313C125.916 93.4523 124.575 92.8973 123.587 91.9106C122.599 90.9239 122.043 89.5861 122.041 88.1907V77.3452C122.043 75.9497 122.599 74.6119 123.587 73.6252C124.575 72.6385 125.916 72.0835 127.313 72.0819H200.807C202.204 72.0835 203.545 72.6385 204.533 73.6252C205.521 74.6119 206.077 75.9497 206.079 77.3452V88.1907C206.077 89.5861 205.521 90.9239 204.533 91.9106C203.545 92.8973 202.204 93.4523 200.807 93.4539Z" fill="#F2F2F2"/>
<path d="M143.129 87.6084C146.611 87.6084 149.434 84.7903 149.434 81.3141C149.434 77.8378 146.611 75.0198 143.129 75.0198C139.647 75.0198 136.824 77.8378 136.824 81.3141C136.824 84.7903 139.647 87.6084 143.129 87.6084Z" fill="#FF6584"/>
<path d="M196.24 92.8187L187.34 85.3673L178.594 78.0446C178.363 77.8514 178.071 77.7457 177.77 77.7463C177.469 77.7469 177.177 77.8537 176.947 78.0478L168.229 85.4041L166.1 87.201L162.889 84.5128L153.131 76.3434C152.901 76.1501 152.609 76.0445 152.308 76.045C152.006 76.0456 151.715 76.1524 151.485 76.3465L141.759 84.5535L131.88 92.8897C131.83 92.9319 131.794 92.9884 131.777 93.0517C131.76 93.1149 131.764 93.1818 131.786 93.2432C131.809 93.3046 131.85 93.3576 131.903 93.395C131.957 93.4324 132.021 93.4524 132.087 93.4523L152.341 93.4133L158.752 93.401L158.69 93.4539L177.8 93.4172L196.035 93.3821C196.101 93.382 196.165 93.3618 196.218 93.3242C196.272 93.2866 196.313 93.2334 196.335 93.1719C196.357 93.1104 196.36 93.0435 196.343 92.9803C196.326 92.9172 196.29 92.8607 196.24 92.8187Z" fill="#9FD8DF"/>
<path d="M193.017 42.078C192.762 41.664 192.425 41.3063 192.027 41.0266C191.628 40.7469 191.177 40.5511 190.701 40.4512C190.526 40.4146 190.349 40.3922 190.17 40.3842L165.825 18.6549C165.346 18.1643 164.709 17.86 164.026 17.7969C163.891 17.7814 163.755 17.7772 163.62 17.7841C163.058 17.8096 162.516 17.9979 162.06 18.326C161.604 18.6542 161.253 19.1079 161.051 19.6317C160.849 20.1556 160.804 20.7268 160.922 21.2756C161.04 21.8245 161.316 22.3271 161.716 22.722L171.036 30.8338L186.342 44.1514C186.355 44.4023 186.392 44.6512 186.454 44.8947C186.637 45.5999 187.031 46.2329 187.583 46.7097C188.134 47.1866 188.818 47.4847 189.544 47.5646C190.205 47.6417 190.875 47.5312 191.477 47.2456C191.954 47.0229 192.377 46.6997 192.717 46.2982C192.752 46.2567 192.784 46.2185 192.816 46.1738C193.263 45.5925 193.521 44.8891 193.557 44.1573C193.593 43.4255 193.405 42.7002 193.017 42.078H193.017Z" fill="#FFB8B8"/>
<path d="M151.376 63.0195L151.149 53.8136L150.957 46.1739L150.826 40.8277L150.567 30.4064C150.516 29.8485 150.303 29.3175 149.955 28.8782C149.606 28.439 149.137 28.1105 148.605 27.9329C148.073 27.7554 147.5 27.7363 146.957 27.8782C146.414 28.02 145.924 28.3166 145.547 28.7318C145.459 28.8266 145.378 28.9291 145.308 29.038C144.914 29.6004 144.737 30.2856 144.809 30.9678L145.378 46.1739L145.662 53.8136L146.027 63.5586C145.922 63.7017 145.827 63.852 145.742 64.0083C145.515 64.4385 145.378 64.9102 145.339 65.395C145.3 65.8797 145.36 66.3673 145.515 66.8282C145.678 67.3114 145.941 67.7549 146.287 68.1293C146.634 68.5038 147.056 68.8007 147.525 69.0005C147.995 69.2003 148.502 69.2985 149.013 69.2886C149.523 69.2787 150.026 69.1609 150.487 68.943C151.023 68.69 151.489 68.3089 151.843 67.8337C152.196 67.3584 152.427 66.8034 152.515 66.2179C152.603 65.6324 152.545 65.0343 152.346 64.4764C152.147 63.9186 151.814 63.4182 151.376 63.0195H151.376Z" fill="#FFB8B8"/>
<path d="M173.296 36.9424L171.037 30.8339L167.381 20.939C167.117 20.219 166.695 19.5676 166.144 19.0331C165.594 18.4985 164.93 18.0946 164.202 17.8512C164.144 17.832 164.084 17.8129 164.026 17.7969C163.321 17.5832 162.577 17.5244 161.847 17.6246C161.117 17.7249 160.417 17.9817 159.795 18.3775L147.484 26.1735C146.356 26.8858 145.55 28.0078 145.236 29.3024C144.922 30.597 145.124 31.9629 145.8 33.1114C147.339 35.7691 149.017 38.3447 150.826 40.8277C152.261 42.7767 154.932 42.984 155.395 46.1739H164.473L173.663 37.9377L173.296 36.9424Z" fill="#CCCCCC"/>
<path d="M32.3256 111.598C36.4148 111.598 39.7297 108.289 39.7297 104.207C39.7297 100.125 36.4148 96.8154 32.3256 96.8154C28.2363 96.8154 24.9214 100.125 24.9214 104.207C24.9214 108.289 28.2363 111.598 32.3256 111.598Z" fill="#A0616A"/>
<path d="M50.503 99.1189C50.576 99.1769 50.6467 99.2384 50.7152 99.3033C51.0553 99.6232 51.3239 100.011 51.5034 100.442C51.6829 100.873 51.7691 101.336 51.7565 101.803C51.7439 102.269 51.6328 102.727 51.4304 103.148C51.228 103.568 50.9388 103.941 50.5819 104.242C50.4987 104.312 50.4119 104.377 50.3219 104.438L50.823 121.327C50.8373 121.88 50.6726 122.422 50.3534 122.874C50.0342 123.326 49.5776 123.664 49.0512 123.836L49.0206 123.843L35.2842 125.303C34.9108 125.343 34.5331 125.308 34.1732 125.201C33.8132 125.094 33.478 124.917 33.1869 124.68C32.8958 124.444 32.6546 124.151 32.4772 123.821C32.2999 123.49 32.1898 123.128 32.1535 122.755C32.1171 122.382 32.1552 122.005 32.2655 121.647C32.3758 121.289 32.5561 120.955 32.796 120.667C33.0359 120.379 33.3307 120.14 33.6633 119.966C33.9959 119.792 34.3598 119.686 34.7339 119.653L44.5259 118.792L46.2193 104.166C46.1085 104.068 46.0048 103.963 45.9088 103.85C45.3779 103.223 45.0994 102.421 45.1275 101.6C45.1556 100.78 45.4882 99.9986 46.0608 99.4089C46.6334 98.8192 47.4051 98.463 48.226 98.4094C49.0469 98.3558 49.8584 98.6087 50.5031 99.1189H50.503Z" fill="#A0616A"/>
<path d="M44.5202 207.077H48.2162L49.9743 192.846H44.5195L44.5202 207.077Z" fill="#A0616A"/>
<path d="M43.5776 205.872L50.856 205.872H50.8563C51.4654 205.872 52.0686 205.992 52.6314 206.224C53.1941 206.457 53.7055 206.798 54.1362 207.228C54.5669 207.658 54.9086 208.169 55.1417 208.73C55.3748 209.292 55.4947 209.894 55.4947 210.502V210.653L43.5779 210.653L43.5776 205.872Z" fill="#2F2E41"/>
<path d="M7.78564 201.976L10.9612 203.863L19.7654 192.534L15.0784 189.748L7.78564 201.976Z" fill="#A0616A"/>
<path d="M7.59313 200.459L13.847 204.176L13.8472 204.177C14.3706 204.488 14.8275 204.899 15.1917 205.386C15.556 205.873 15.8206 206.428 15.9703 207.017C16.12 207.606 16.152 208.219 16.0643 208.821C15.9767 209.423 15.7712 210.002 15.4595 210.524L15.3824 210.653L5.14307 204.567L7.59313 200.459Z" fill="#2F2E41"/>
<path d="M49.0885 202.051H44.95C44.6149 202.051 44.2915 201.928 44.0423 201.704C43.7932 201.48 43.6359 201.172 43.6011 200.839L39.4288 161.688C39.4183 161.589 39.3756 161.497 39.3073 161.425C39.2389 161.353 39.1488 161.306 39.0508 161.29C38.9528 161.274 38.8523 161.291 38.7649 161.338C38.6774 161.385 38.6079 161.46 38.567 161.55L31.0402 178.188L17.7144 199.88C17.542 200.158 17.2749 200.364 16.9622 200.462C16.6495 200.56 16.3121 200.541 16.0117 200.411L10.6881 198.073C10.5121 197.995 10.3546 197.882 10.2259 197.739C10.0973 197.596 10.0006 197.428 9.94213 197.245C9.88367 197.062 9.86483 196.869 9.88686 196.678C9.90888 196.487 9.97126 196.303 10.0699 196.138L22.3199 175.662L26.0769 158.41C24.8953 150.928 29.9609 139.805 30.0123 139.693L30.0374 139.639L43.9907 134.194L44.0607 134.28C49.5634 152.307 52.9166 171.707 50.4407 200.81C50.4102 201.147 50.2548 201.462 50.0047 201.691C49.7547 201.92 49.4281 202.049 49.0885 202.051Z" fill="#2F2E41"/>
<path d="M29.475 141.461L29.41 141.325C29.379 141.26 26.2763 134.727 23.8846 127.745C23.425 126.395 23.2512 124.965 23.3743 123.544C23.4975 122.123 23.9148 120.743 24.5999 119.492C25.294 118.228 26.2434 117.121 27.3882 116.243C28.533 115.364 29.8481 114.732 31.2503 114.387C33.6845 113.805 36.2473 114.115 38.4718 115.26C40.6963 116.406 42.4345 118.312 43.3696 120.63C45.2667 125.366 44.6621 130.421 44.0931 134.396L44.0818 134.476L44.0092 134.51L29.475 141.461Z" fill="#3F3D56"/>
<path d="M41.3028 100.032H29.5459V94.9155C32.1264 93.8921 34.6516 93.0217 36.178 94.9155C37.5372 94.9155 38.8407 95.4545 39.8018 96.414C40.7629 97.3734 41.3028 98.6747 41.3028 100.032V100.032Z" fill="#2F2E41"/>
<path d="M28.8952 94.0127C21.8667 94.0127 19.8994 102.807 19.8994 107.769C19.8994 110.536 21.153 111.526 23.1227 111.861L23.8184 108.157L25.4477 112.02C26.001 112.023 26.5823 112.012 27.1849 112.001L27.7374 110.865L28.9693 111.981C33.9032 111.988 37.8909 112.706 37.8909 107.769C37.8909 102.807 36.1656 94.0127 28.8952 94.0127Z" fill="#2F2E41"/>
<path d="M62.824 106.054H49.0839C48.2791 106.053 47.5075 105.733 46.9385 105.165C46.3694 104.597 46.0493 103.827 46.0483 103.024V89.3072C46.0493 88.5038 46.3694 87.7335 46.9385 87.1654C47.5075 86.5973 48.2791 86.2778 49.0839 86.2769H62.824C63.6288 86.2778 64.4004 86.5973 64.9694 87.1654C65.5385 87.7335 65.8586 88.5038 65.8596 89.3072V103.024C65.8586 103.827 65.5385 104.597 64.9694 105.165C64.4004 105.733 63.6288 106.053 62.824 106.054Z" fill="white"/>
<path d="M62.824 106.054H49.0839C48.2791 106.053 47.5075 105.733 46.9385 105.165C46.3694 104.597 46.0493 103.827 46.0483 103.024V89.3072C46.0493 88.5038 46.3694 87.7335 46.9385 87.1654C47.5075 86.5973 48.2791 86.2778 49.0839 86.2769H62.824C63.6288 86.2778 64.4004 86.5973 64.9694 87.1654C65.5385 87.7335 65.8586 88.5038 65.8596 89.3072V103.024C65.8586 103.827 65.5385 104.597 64.9694 105.165C64.4004 105.733 63.6288 106.053 62.824 106.054ZM49.0839 86.9148C48.4485 86.9155 47.8394 87.1678 47.3901 87.6163C46.9408 88.0648 46.6881 88.6729 46.6874 89.3072V103.024C46.6881 103.658 46.9408 104.266 47.3901 104.714C47.8394 105.163 48.4485 105.415 49.0839 105.416H62.824C63.4593 105.415 64.0685 105.163 64.5178 104.714C64.9671 104.266 65.2198 103.658 65.2205 103.024V89.3072C65.2198 88.6729 64.9671 88.0648 64.5178 87.6163C64.0685 87.1678 63.4593 86.9155 62.824 86.9148H49.0839Z" fill="#3F3D56"/>
<path d="M60.4276 100.472H51.4806C51.2264 100.471 50.9828 100.37 50.803 100.191C50.6233 100.012 50.5223 99.7684 50.522 99.5146V92.816C50.5223 92.5623 50.6233 92.319 50.803 92.1396C50.9828 91.9602 51.2264 91.8593 51.4806 91.859H53.9993C54.1631 91.8584 54.3243 91.9 54.4673 91.9797C54.6103 92.0595 54.7303 92.1747 54.8157 92.3143L55.5182 93.4539H60.4276C60.6817 93.4542 60.9254 93.5551 61.1051 93.7345C61.2848 93.9139 61.3859 94.1572 61.3862 94.4109V99.5146C61.3859 99.7684 61.2848 100.012 61.1051 100.191C60.9254 100.37 60.6817 100.471 60.4276 100.472Z" fill="#FF7171"/>
<path d="M60.1367 103.856C60.1814 103.937 60.2227 104.021 60.2605 104.108C60.4497 104.534 60.5464 104.996 60.5444 105.463C60.5424 105.929 60.4416 106.39 60.2488 106.815C60.0559 107.24 59.7753 107.619 59.4253 107.928C59.0753 108.237 58.6638 108.469 58.2179 108.608C58.1141 108.64 58.0087 108.667 57.9021 108.688L51.7992 124.447C51.5974 124.962 51.2347 125.399 50.7648 125.692C50.2949 125.985 49.7429 126.119 49.1907 126.074L49.1601 126.068L35.9324 122.093C35.5727 121.985 35.2381 121.806 34.9478 121.569C34.6575 121.331 34.4173 121.038 34.2411 120.707C34.0649 120.375 33.9561 120.013 33.9211 119.639C33.8861 119.266 33.9255 118.89 34.037 118.532C34.1486 118.174 34.3301 117.841 34.5711 117.554C34.812 117.266 35.1077 117.029 35.441 116.856C35.7742 116.683 36.1385 116.578 36.5128 116.546C36.887 116.515 37.2638 116.557 37.6214 116.672L46.9807 119.672L54.2267 106.848C54.1626 106.715 54.108 106.577 54.0633 106.437C53.8178 105.653 53.8729 104.806 54.2178 104.06C54.5628 103.315 55.1729 102.724 55.9299 102.402C56.6868 102.081 57.5364 102.051 58.3138 102.32C59.0912 102.588 59.7409 103.136 60.1367 103.856H60.1367Z" fill="#A0616A"/>
</g>
<defs>
<clipPath id="clip0">
<rect width="280" height="211" fill="white"/>
</clipPath>
</defs>
</svg>
