<svg width="318" height="217" viewBox="0 0 318 217" fill="none" xmlns="http://www.w3.org/2000/svg">
<path d="M293.42 32.602H181.849V30.3088H131.258V32.602H19.2268C17.225 32.602 15.3053 33.3951 13.8898 34.8066C12.4744 36.2182 11.6792 38.1328 11.6792 40.1291V192.488C11.6792 194.484 12.4744 196.398 13.8898 197.81C15.3053 199.222 17.225 200.015 19.2268 200.015H293.42C295.422 200.015 297.342 199.222 298.757 197.81C300.173 196.398 300.968 194.484 300.968 192.488V40.1282C300.968 38.1321 300.172 36.2178 298.757 34.8063C297.341 33.3949 295.422 32.602 293.42 32.602Z" fill="#3F3D56"/>
<path d="M290.849 45.9031H21.7979V197.262H290.849V45.9031Z" fill="#E6E6E6"/>
<path d="M279.53 53.9073H33.208V184.738H279.53V53.9073Z" fill="white"/>
<path d="M156.094 41.7756C157.618 41.7756 158.853 40.5435 158.853 39.0236C158.853 37.5036 157.618 36.2715 156.094 36.2715C154.569 36.2715 153.334 37.5036 153.334 39.0236C153.334 40.5435 154.569 41.7756 156.094 41.7756Z" fill="#6C63FF"/>
<path d="M308.522 194.51H282.264V192.623C282.264 192.524 282.225 192.429 282.154 192.359C282.084 192.288 281.988 192.249 281.889 192.249H272.886C272.787 192.249 272.691 192.288 272.621 192.359C272.551 192.429 272.511 192.524 272.511 192.623V194.51H266.885V192.623C266.885 192.524 266.845 192.429 266.775 192.359C266.704 192.288 266.609 192.249 266.509 192.249H257.507C257.407 192.249 257.312 192.288 257.241 192.359C257.171 192.429 257.131 192.524 257.131 192.623V194.51H251.505V192.623C251.505 192.524 251.466 192.429 251.395 192.359C251.325 192.288 251.229 192.249 251.13 192.249H242.127C242.028 192.249 241.932 192.288 241.862 192.359C241.792 192.429 241.752 192.524 241.752 192.623V194.51H236.126V192.623C236.126 192.524 236.086 192.429 236.016 192.359C235.945 192.288 235.85 192.249 235.75 192.249H226.748C226.649 192.249 226.553 192.288 226.483 192.359C226.412 192.429 226.373 192.524 226.373 192.623V194.51H220.746V192.623C220.746 192.524 220.707 192.429 220.636 192.359C220.566 192.288 220.47 192.249 220.371 192.249H211.369C211.269 192.249 211.174 192.288 211.103 192.359C211.033 192.429 210.993 192.524 210.993 192.623V194.51H205.367V192.623C205.367 192.524 205.327 192.429 205.257 192.359C205.186 192.288 205.091 192.249 204.991 192.249H195.991C195.891 192.249 195.796 192.288 195.725 192.359C195.655 192.429 195.616 192.524 195.616 192.623V194.51H189.987V192.623C189.987 192.524 189.947 192.429 189.877 192.359C189.807 192.288 189.711 192.249 189.612 192.249H119.092C118.992 192.249 118.897 192.288 118.826 192.359C118.756 192.429 118.716 192.524 118.716 192.623V194.51H113.09V192.623C113.09 192.524 113.05 192.429 112.98 192.359C112.91 192.288 112.814 192.249 112.715 192.249H103.712C103.612 192.249 103.517 192.288 103.447 192.359C103.376 192.429 103.337 192.524 103.337 192.623V194.51H97.7104V192.623C97.7104 192.524 97.6708 192.429 97.6005 192.359C97.5301 192.288 97.4347 192.249 97.3351 192.249H88.3329C88.2334 192.249 88.138 192.288 88.0676 192.359C87.9972 192.429 87.9577 192.524 87.9577 192.623V194.51H82.3309V192.623C82.3309 192.524 82.2913 192.429 82.221 192.359C82.1506 192.288 82.0551 192.249 81.9556 192.249H72.9534C72.8539 192.249 72.7584 192.288 72.6881 192.359C72.6177 192.429 72.5782 192.524 72.5782 192.623V194.51H66.9526V192.623C66.9526 192.524 66.9131 192.429 66.8427 192.359C66.7724 192.288 66.6769 192.249 66.5774 192.249H57.5739C57.4744 192.249 57.3789 192.288 57.3085 192.359C57.2382 192.429 57.1986 192.524 57.1986 192.623V194.51H51.5723V192.623C51.5723 192.524 51.5327 192.429 51.4623 192.359C51.392 192.288 51.2965 192.249 51.197 192.249H42.1944C42.0949 192.249 41.9994 192.288 41.929 192.359C41.8587 192.429 41.8191 192.524 41.8191 192.623V194.51H36.1927V192.623C36.1927 192.524 36.1532 192.429 36.0828 192.359C36.0125 192.288 35.917 192.249 35.8175 192.249H26.8131C26.7136 192.249 26.6182 192.288 26.5478 192.359C26.4774 192.429 26.4379 192.524 26.4379 192.623V194.51H9.18478C6.79713 194.51 4.50727 195.456 2.81895 197.14C1.13062 198.823 0.182129 201.107 0.182129 203.488V207.548C0.182129 209.929 1.13062 212.212 2.81895 213.896C4.50727 215.58 6.79713 216.526 9.18478 216.526H308.522C310.909 216.526 313.199 215.58 314.887 213.896C316.576 212.213 317.524 209.929 317.524 207.548V203.489C317.524 201.107 316.576 198.824 314.887 197.14C313.199 195.456 310.909 194.51 308.522 194.51V194.51Z" fill="#3F3D56"/>
<path d="M210.832 63.0835H101.907V177.272H210.832V63.0835Z" fill="#E6E6E6"/>
<path d="M169.512 95.4083C177.507 95.4083 183.988 88.9447 183.988 80.9714C183.988 72.9981 177.507 66.5344 169.512 66.5344C161.517 66.5344 155.036 72.9981 155.036 80.9714C155.036 88.9447 161.517 95.4083 169.512 95.4083Z" fill="#A0616A"/>
<path d="M136.204 177.507L145.553 118.815C146.05 115.694 147.208 112.715 148.949 110.075C150.69 107.436 152.975 105.196 155.652 103.506C158.329 101.815 161.336 100.713 164.473 100.271C167.611 99.8302 170.806 100.06 173.847 100.946C179.165 102.48 183.718 105.935 186.617 110.638C189.516 115.34 190.553 120.951 189.526 126.376L179.749 178.791L136.204 177.507Z" fill="#9FD8DF"/>
<path d="M175.578 175.712C175.044 175.637 174.545 175.401 174.148 175.035L170.451 171.628C170.051 171.258 169.776 170.775 169.661 170.244C169.546 169.712 169.597 169.159 169.808 168.658L177.197 151.189L176.149 116.674C176.455 114.435 177.641 112.409 179.445 111.041C181.249 109.674 183.524 109.077 185.77 109.383C188.015 109.688 190.047 110.871 191.418 112.67C192.789 114.469 193.387 116.738 193.081 118.977L194.873 140.674C195.418 147.26 193.546 153.818 189.605 159.129L178.081 174.666C177.859 174.965 177.577 175.214 177.253 175.396C176.928 175.579 176.569 175.691 176.198 175.727C175.992 175.746 175.784 175.741 175.578 175.712Z" fill="#9FD8DF"/>
<path d="M86.1469 73.1056C86.3047 73.9553 86.6473 74.7601 87.1507 75.4634C87.654 76.1667 88.3059 76.7514 89.0603 77.1764C89.8148 77.6013 90.6535 77.856 91.5174 77.9227C92.3812 77.9894 93.2493 77.8664 94.0603 77.5624L107.526 93.7139L110.699 83.2676L97.4259 69.5311C96.8203 68.2105 95.751 67.1566 94.4197 66.5683C93.0884 65.98 91.5872 65.898 90.1995 66.3378C88.8117 66.7776 87.6334 67.7088 86.8869 68.9556C86.1404 70.2024 85.8773 71.6786 86.1473 73.1056H86.1469Z" fill="#A0616A"/>
<path d="M96.6951 79.8004C96.9731 79.3388 97.3855 78.9727 97.8774 78.7509L102.466 76.6839C102.963 76.4613 103.517 76.3963 104.053 76.4978C104.588 76.5993 105.079 76.8624 105.46 77.2515L118.709 90.8484L150.988 103.343C151.954 103.914 152.797 104.669 153.47 105.566C154.142 106.462 154.631 107.482 154.908 108.566C155.186 109.651 155.246 110.78 155.086 111.888C154.926 112.996 154.548 114.061 153.975 115.024C153.401 115.986 152.643 116.827 151.744 117.497C150.845 118.167 149.822 118.654 148.734 118.93C147.646 119.206 146.515 119.265 145.404 119.104C144.293 118.944 143.224 118.567 142.26 117.994L121.527 111.18C115.234 109.113 109.908 104.837 106.54 99.147L96.6865 82.5063C96.4972 82.1862 96.3776 81.8301 96.3354 81.4609C96.2933 81.0918 96.3294 80.7179 96.4416 80.3636C96.504 80.1667 96.5895 79.9777 96.6963 79.8008L96.6951 79.8004Z" fill="#9FD8DF"/>
<path opacity="0.1" d="M181.254 131.032L180.665 149.841L169.807 168.659L178.873 147.69L181.254 131.032Z" fill="black"/>
<path d="M159.709 73.7352C161.202 75.4976 163.729 75.9946 166.06 76.1986C170.794 76.6126 177.678 75.942 182.304 74.8758C182.634 78.0675 181.734 81.5086 183.619 84.1341C184.502 80.9555 185.016 77.6861 185.15 74.3904C185.207 72.9791 185.185 71.5147 184.609 70.2172C184.033 68.9196 182.777 67.8183 181.33 67.8068C182.405 66.9938 183.664 66.4571 184.996 66.2441L180.416 63.9488L181.592 62.7444L173.3 62.2385L175.701 60.7168C172.087 60.222 168.43 60.1073 164.791 60.3747C163.102 60.4987 161.335 60.7361 159.966 61.7125C158.597 62.6888 157.806 64.6292 158.656 66.0628C157.592 66.237 156.59 66.6793 155.745 67.3477C154.901 68.0161 154.241 68.8885 153.829 69.8823C153.219 71.4253 153.274 73.1395 153.463 74.7839C153.775 77.4138 154.388 79.9995 155.29 82.4905" fill="#2F2E41"/>
<path d="M221.595 37.5685L89.6843 67.9396C89.0365 68.0879 88.3561 67.9739 87.7925 67.6227C87.2288 67.2714 86.8279 66.7116 86.6776 66.0659L79.1232 33.4336C78.9745 32.7876 79.0888 32.1091 79.441 31.547C79.7932 30.9848 80.3546 30.585 81.002 30.4351L212.913 0.064104C213.56 -0.0842327 214.241 0.0297273 214.804 0.380982C215.368 0.732237 215.769 1.2921 215.919 1.93778L223.474 34.5701C223.622 35.2161 223.508 35.8946 223.156 36.4567C222.804 37.0188 222.242 37.4187 221.595 37.5685Z" fill="white"/>
<path d="M221.595 37.5685L89.6843 67.9396C89.0365 68.0879 88.3561 67.9739 87.7925 67.6227C87.2288 67.2714 86.8279 66.7116 86.6776 66.0659L79.1232 33.4336C78.9745 32.7876 79.0888 32.1091 79.441 31.547C79.7932 30.9848 80.3546 30.585 81.002 30.4351L212.913 0.064104C213.56 -0.0842327 214.241 0.0297273 214.804 0.380982C215.368 0.732237 215.769 1.2921 215.919 1.93778L223.474 34.5701C223.622 35.2161 223.508 35.8946 223.156 36.4567C222.804 37.0188 222.242 37.4187 221.595 37.5685ZM81.2277 31.4098C80.8392 31.4997 80.5023 31.7396 80.2909 32.0769C80.0795 32.4143 80.011 32.8214 80.1003 33.2091L87.6546 65.8414C87.7446 66.2289 87.9852 66.5649 88.3235 66.7757C88.6618 66.9865 89.0701 67.0549 89.4588 66.9657L221.369 36.5947C221.758 36.5049 222.095 36.265 222.306 35.9276C222.518 35.5903 222.586 35.1831 222.497 34.7954L214.942 2.16269C214.852 1.77517 214.612 1.43912 214.273 1.22831C213.935 1.01751 213.527 0.94919 213.138 1.03834L81.2277 31.4098Z" fill="#E6E6E6"/>
<path d="M126.999 31.3087C126.781 31.3584 126.575 31.4505 126.393 31.5796C126.211 31.7087 126.056 31.8724 125.937 32.0612C125.818 32.2501 125.738 32.4604 125.701 32.6802C125.663 32.9001 125.67 33.1251 125.72 33.3424C125.77 33.5598 125.862 33.7652 125.992 33.9469C126.121 34.1286 126.285 34.2831 126.475 34.4016C126.664 34.52 126.875 34.6001 127.095 34.6372C127.316 34.6743 127.541 34.6678 127.759 34.6179L127.765 34.6166L205.948 16.6158C206.387 16.5139 206.768 16.2424 207.007 15.8608C207.245 15.4793 207.323 15.0188 207.221 14.5806C207.12 14.1424 206.848 13.7623 206.466 13.5237C206.083 13.285 205.622 13.2074 205.182 13.3079L126.999 31.3087Z" fill="#E6E6E6"/>
<path d="M129.297 41.2328C129.079 41.2825 128.873 41.3746 128.691 41.5037C128.508 41.6328 128.353 41.7964 128.234 41.9853C128.116 42.1741 128.035 42.3845 127.998 42.6043C127.961 42.8242 127.967 43.0492 128.017 43.2665C128.067 43.4838 128.159 43.6892 128.289 43.871C128.418 44.0527 128.583 44.2072 128.772 44.3256C128.961 44.4441 129.172 44.5241 129.393 44.5613C129.613 44.5984 129.839 44.5918 130.057 44.542L130.063 44.5407L163.705 36.7949C164.145 36.6943 164.527 36.4235 164.766 36.0422C165.006 35.6609 165.084 35.2002 164.983 34.7615C164.883 34.3227 164.611 33.9419 164.229 33.7026C163.847 33.4634 163.385 33.3854 162.945 33.4857L162.939 33.487L129.297 41.2328Z" fill="#E6E6E6"/>
<path d="M105.625 53.3038C111.266 53.3038 115.838 48.744 115.838 43.1192C115.838 37.4944 111.266 32.9346 105.625 32.9346C99.9853 32.9346 95.4131 37.4944 95.4131 43.1192C95.4131 48.744 99.9853 53.3038 105.625 53.3038Z" fill="#FF7171"/>
<path d="M105.338 48.9945C105.004 49.0719 104.653 49.0389 104.34 48.9004L104.32 48.8918L100.211 47.0314C100.02 46.9452 99.8482 46.8223 99.705 46.6698C99.5619 46.5172 99.4503 46.3381 99.3766 46.1425C99.303 45.947 99.2687 45.7388 99.2758 45.5301C99.2829 45.3213 99.3312 45.1159 99.4179 44.9258C99.5046 44.7356 99.6281 44.5644 99.7812 44.4219C99.9343 44.2793 100.114 44.1683 100.31 44.0951C100.507 44.0219 100.715 43.9881 100.925 43.9954C101.134 44.0028 101.34 44.0512 101.53 44.1379L104.193 45.3469L107.929 37.1612C108.103 36.778 108.424 36.4797 108.819 36.332C109.215 36.1844 109.653 36.1994 110.037 36.3737L110.015 36.4272L110.038 36.3735C110.422 36.5484 110.721 36.868 110.869 37.2624C111.017 37.6567 111.002 38.0934 110.828 38.4768L106.434 48.1061C106.332 48.3279 106.181 48.5234 105.991 48.6773C105.801 48.8312 105.578 48.9395 105.34 48.9937L105.338 48.9945Z" fill="white"/>
</svg>
