<svg width="15" height="14" viewBox="0 0 15 14" fill="none" xmlns="http://www.w3.org/2000/svg">
<g clip-path="url(#clip0)">
<path d="M7.49967 0.0666504C3.81634 0.0666504 0.833008 3.24991 0.833008 7.17592C0.833008 10.3176 2.74301 12.9817 5.39134 13.9211C5.72467 13.988 5.8469 13.7679 5.8469 13.5792C5.8469 13.4104 5.84134 12.9631 5.83856 12.3704C3.98412 12.7991 3.59301 11.4166 3.59301 11.4166C3.28967 10.5961 2.85134 10.3767 2.85134 10.3767C2.24745 9.93595 2.89801 9.945 2.89801 9.945C3.56745 9.99443 3.91912 10.6775 3.91912 10.6775C4.51356 11.7645 5.47967 11.4504 5.86079 11.2689C5.92079 10.8089 6.09245 10.496 6.28301 10.3182C4.80245 10.1403 3.24634 9.529 3.24634 6.80515C3.24634 6.02923 3.50467 5.39499 3.93245 4.8976C3.85745 4.71794 3.63245 3.99508 3.99079 3.01599C3.99079 3.01599 4.54912 2.82547 5.82412 3.74488C6.35745 3.58692 6.92412 3.50855 7.49079 3.50493C8.05745 3.50855 8.62412 3.58692 9.15745 3.74488C10.4241 2.82547 10.9825 3.01599 10.9825 3.01599C11.3408 3.99508 11.1158 4.71794 11.0491 4.8976C11.4741 5.39499 11.7325 6.02923 11.7325 6.80515C11.7325 9.53624 10.1741 10.1373 8.69078 10.3122C8.92412 10.5256 9.14079 10.9615 9.14079 11.6277C9.14079 12.579 9.13245 13.3435 9.13245 13.5744C9.13245 13.7607 9.24912 13.9831 9.59079 13.912C12.258 12.9787 14.1663 10.3128 14.1663 7.17592C14.1663 3.24991 11.1813 0.0666504 7.49967 0.0666504Z" fill="#F3F4ED"/>
</g>
<defs>
<clipPath id="clip0">
<rect width="13.3333" height="13.8667" fill="white" transform="translate(0.833008 0.0666504)"/>
</clipPath>
</defs>
</svg>
