<svg width="71" height="70" viewBox="0 0 71 70" fill="none" xmlns="http://www.w3.org/2000/svg">
<path d="M70.3786 66.4302L53.1245 49.4191C57.7529 44.1729 60.5551 37.3282 60.5551 29.847C60.5551 13.3792 46.9691 0 30.2817 0C13.5786 0 0.00830078 13.3947 0.00830078 29.847C0.00830078 46.2993 13.5943 59.694 30.2817 59.694C37.8697 59.694 44.8123 56.9313 50.1334 52.3681L67.3875 69.3792C67.7968 69.7827 68.3478 70 68.883 70C69.4183 70 69.9693 69.7982 70.3786 69.3792C71.1972 68.5721 71.1972 67.2373 70.3786 66.4302ZM4.24311 29.847C4.24311 15.6918 15.9243 4.19069 30.266 4.19069C44.6234 4.19069 56.2888 15.7073 56.2888 29.847C56.2888 43.9867 44.6234 55.5188 30.266 55.5188C15.9243 55.5188 4.24311 44.0022 4.24311 29.847Z" fill="#2E2E2E"/>
</svg>
