<svg width="75" height="74" viewBox="0 0 75 74" fill="none" xmlns="http://www.w3.org/2000/svg">
<path d="M71.161 29.2319L65.8968 28.3508C65.3485 26.604 64.6434 24.919 63.7817 23.3113L66.8838 19.0293C68.1999 17.2052 67.9962 14.7164 66.3825 13.1397L61.7136 8.53306C60.8363 7.66738 59.6769 7.18817 58.4392 7.18817C57.4678 7.18817 56.5434 7.48188 55.76 8.03839L51.4045 11.0992C49.7125 10.218 47.942 9.49148 46.109 8.95043L45.2316 3.81823C44.8556 1.60768 42.9285 0 40.6567 0H34.0608C31.789 0 29.8619 1.60768 29.4859 3.81823L28.5772 9.0741C26.8225 9.61515 25.1147 10.3262 23.4853 11.1919L19.1768 8.13114C18.3935 7.57463 17.4534 7.28092 16.482 7.28092C15.2443 7.28092 14.0693 7.76013 13.2076 8.62581L8.52303 13.2324C6.92496 14.8092 6.70562 17.298 8.02168 19.1221L11.1551 23.4659C10.2934 25.089 9.60408 26.774 9.07139 28.5208L3.86983 29.3865C1.6294 29.7575 0 31.6589 0 33.9003V40.4084C0 42.6498 1.6294 44.5512 3.86983 44.9222L9.19673 45.8188C9.74508 47.5501 10.4658 49.2351 11.3432 50.8428L8.25669 55.0784C6.94063 56.9025 7.1443 59.3913 8.75804 60.9681L13.4269 65.5747C14.3043 66.4404 15.4637 66.9196 16.7014 66.9196C17.6728 66.9196 18.5971 66.6259 19.3805 66.0694L23.783 62.9777C25.3654 63.797 27.0262 64.4617 28.7339 64.9873L29.6113 70.1813C29.9873 72.3919 31.9144 73.9995 34.1861 73.9995H40.7977C43.0695 73.9995 44.9966 72.3919 45.3726 70.1813L46.2656 64.9873C48.036 64.4462 49.7438 63.7506 51.3732 62.9004L55.713 65.9611C56.4964 66.5176 57.4364 66.8114 58.4078 66.8114C59.6455 66.8114 60.8049 66.3322 61.6823 65.4665L66.3512 60.8599C67.9492 59.2831 68.1686 56.7943 66.8525 54.9702L63.7504 50.6728C64.6121 49.0496 65.3328 47.3646 65.8655 45.6333L71.1297 44.7676C73.3701 44.3966 74.9995 42.4952 74.9995 40.2538V33.7458C75.0309 31.5043 73.4015 29.6029 71.161 29.2319ZM70.8007 40.2538C70.8007 40.4547 70.6597 40.6248 70.456 40.6557L63.8757 41.7378C63.0454 41.8769 62.3873 42.4798 62.1836 43.2682C61.5883 45.5406 60.6796 47.7202 59.4575 49.7452C59.0345 50.4563 59.0659 51.3375 59.5515 52.0176L63.4214 57.3972C63.531 57.5518 63.5154 57.7836 63.3744 57.9228L58.7055 62.5294C58.5958 62.6376 58.4862 62.653 58.4078 62.653C58.3138 62.653 58.2355 62.6221 58.1728 62.5757L52.7362 58.7575C52.0626 58.2783 51.1538 58.2474 50.4331 58.6648C48.3807 59.8705 46.1716 60.7671 43.8685 61.3545C43.0538 61.5555 42.4428 62.2202 42.3175 63.024L41.2051 69.5166C41.1738 69.7175 41.0014 69.8567 40.7977 69.8567H34.2018C33.9981 69.8567 33.8258 69.7175 33.7944 69.5166L32.6977 63.024C32.5567 62.2047 31.9457 61.5555 31.1467 61.3545C28.9062 60.7826 26.7441 59.9014 24.7231 58.7575C24.394 58.572 24.018 58.4793 23.6577 58.4793C23.2347 58.4793 22.796 58.6029 22.4356 58.8657L16.9521 62.7149C16.8737 62.7612 16.7954 62.7922 16.717 62.7922C16.6544 62.7922 16.529 62.7767 16.4194 62.6685L11.7505 58.0619C11.6095 57.9228 11.5938 57.7063 11.7035 57.5363L15.5577 52.2031C16.0434 51.523 16.0747 50.6264 15.6517 49.9153C14.4296 47.9057 13.4896 45.7261 12.8942 43.4537C12.6749 42.6653 12.0168 42.0624 11.2021 41.9233L4.57486 40.8103C4.37119 40.7794 4.23018 40.6093 4.23018 40.4084V33.9003C4.23018 33.6994 4.37119 33.5293 4.57486 33.4984L11.1081 32.4163C11.9385 32.2772 12.6122 31.6743 12.8159 30.8705C13.3956 28.5981 14.2886 26.403 15.495 24.378C15.918 23.6669 15.871 22.7857 15.3853 22.121L11.4842 16.7106C11.3745 16.556 11.3902 16.3241 11.5312 16.185L16.2 11.5784C16.3097 11.4702 16.4194 11.4547 16.4977 11.4547C16.5917 11.4547 16.67 11.4856 16.7327 11.532L22.1379 15.3348C22.8273 15.814 23.736 15.8449 24.4567 15.4275C26.4935 14.2218 28.7026 13.2943 31.0057 12.7068C31.8047 12.4904 32.4157 11.8412 32.5567 11.0373L33.6848 4.49841C33.7161 4.29745 33.8884 4.15832 34.0921 4.15832H40.6881C40.8917 4.15832 41.0641 4.29745 41.0954 4.49841L42.1921 10.9446C42.3331 11.7639 42.9442 12.4286 43.7589 12.6295C46.1246 13.217 48.3807 14.129 50.4802 15.3502C51.2009 15.7676 52.0939 15.7367 52.7832 15.2575L58.1885 11.4238C58.2668 11.3774 58.3452 11.3465 58.4235 11.3465C58.4862 11.3465 58.6115 11.362 58.7212 11.4702L63.39 16.0768C63.531 16.2159 63.5467 16.4323 63.437 16.6024L59.5672 21.9664C59.0815 22.6311 59.0502 23.5277 59.4732 24.2388C60.6953 26.2639 61.604 28.4435 62.1993 30.7159C62.403 31.5198 63.0767 32.1226 63.8914 32.2463L70.4717 33.3438C70.6753 33.3748 70.8164 33.5448 70.8164 33.7458V40.2538H70.8007V40.2538Z" fill="#2E2E2E"/>
<path d="M37.5076 21.0226C28.5772 21.0226 21.3232 28.1798 21.3232 36.9911C21.3232 45.8025 28.5772 52.9597 37.5076 52.9597C46.438 52.9597 53.692 45.8025 53.692 36.9911C53.692 28.1798 46.438 21.0226 37.5076 21.0226ZM37.5076 48.7859C30.9116 48.7859 25.5534 43.4991 25.5534 36.9911C25.5534 30.4831 30.9116 25.1964 37.5076 25.1964C44.1035 25.1964 49.4618 30.4831 49.4618 36.9911C49.4618 43.4991 44.1035 48.7859 37.5076 48.7859Z" fill="#2E2E2E"/>
</svg>
