<svg width="15" height="14" viewBox="0 0 15 14" fill="none" xmlns="http://www.w3.org/2000/svg">
<path d="M5.17726 12.2061C9.89448 12.2061 12.4741 8.14165 12.4741 4.6173C12.4741 4.50187 12.4718 4.38691 12.4669 4.27258C12.9676 3.89607 13.4028 3.42622 13.7461 2.89142C13.2866 3.10392 12.7921 3.24679 12.2734 3.31142C12.8028 2.98109 13.2094 2.45877 13.4011 1.83612C12.9056 2.14164 12.3568 2.36361 11.7726 2.4835C11.3046 1.96507 10.6383 1.64087 9.90052 1.64087C8.48434 1.64087 7.33578 2.83529 7.33578 4.30764C7.33578 4.51705 7.35833 4.72057 7.40229 4.91583C5.27082 4.80429 3.38069 3.74303 2.11594 2.12916C1.89578 2.52325 1.76874 2.98117 1.76874 3.46979C1.76874 4.39502 2.22151 5.21205 2.90995 5.68985C2.48921 5.67641 2.094 5.55628 1.74848 5.35634C1.7481 5.36755 1.7481 5.37844 1.7481 5.39037C1.7481 6.6821 2.63208 7.7606 3.80571 8.00499C3.59015 8.06597 3.36334 8.0988 3.12942 8.0988C2.96446 8.0988 2.80362 8.08195 2.64737 8.0507C2.97386 9.11045 3.92069 9.88161 5.04318 9.90323C4.16538 10.6187 3.05963 11.0449 1.85787 11.0449C1.65117 11.0449 1.44683 11.0326 1.24609 11.008C2.38112 11.7646 3.72889 12.2061 5.17733 12.2061" fill="#F3F4ED"/>
</svg>
