<svg width="15" height="10" viewBox="0 0 15 10" fill="none" xmlns="http://www.w3.org/2000/svg">
<path fill-rule="evenodd" clip-rule="evenodd" d="M14.3995 1.37934C14.2127 1.23553 13.5414 1.23553 12.877 1.23553C12.1986 1.2499 11.5202 1.2499 11.3609 1.31475C11.216 1.37218 10.8906 2.19286 10.4685 3.03476C9.98363 3.98543 9.39569 4.90655 9.02171 4.89168C8.5304 4.89168 8.64827 3.32985 8.68279 2.17127C8.68948 1.41524 8.57191 1.17037 8.4681 1.10604C8.212 0.918652 7.50618 0.739141 7.50618 0.739141C7.50618 0.739141 5.38787 0.573239 5.09056 1.52341C5.49876 1.58109 6.191 1.45109 5.92108 4.39509C5.90037 4.53941 5.59569 5.74851 4.61282 4.11437C4.36361 3.70441 3.42264 1.24985 3.09032 1.23553C2.00321 1.21374 0.923957 1.16347 0.550471 1.37934C0.1972 1.59546 1.02083 3.27963 2.41214 5.5401C3.53997 7.39702 4.73753 8.83682 6.81395 9.19656C7.20833 9.24007 8.21908 9.28268 8.54447 9.12475C8.75868 9.01654 8.4887 7.41881 9.22952 7.26011C9.55491 7.19557 10.821 8.93046 11.2985 9.12475C11.5899 9.24703 12.2264 9.29731 12.8769 9.26836C13.583 9.24703 14.3854 9.34067 14.4616 8.83682C14.6349 7.73548 12.3235 6.29537 12.2609 5.61907C12.2055 5.12964 13.1055 4.23 13.562 3.53881C14.1293 2.70377 14.7528 1.69621 14.3995 1.37934Z" fill="#F3F4ED"/>
</svg>
