<svg width="15" height="14" viewBox="0 0 15 14" fill="none" xmlns="http://www.w3.org/2000/svg">
<path d="M13.4856 3.75067C13.3416 3.19375 12.9193 2.75472 12.3839 2.60476C11.4057 2.32642 7.49301 2.32642 7.49301 2.32642C7.49301 2.32642 3.58043 2.32642 2.60226 2.59421C2.07713 2.74401 1.64462 3.19382 1.50058 3.75067C1.24316 4.76789 1.24316 6.87746 1.24316 6.87746C1.24316 6.87746 1.24316 8.99766 1.50058 10.0042C1.64478 10.5611 2.06683 11.0001 2.60234 11.1501C3.59073 11.4285 7.49316 11.4285 7.49316 11.4285C7.49316 11.4285 11.4057 11.4285 12.3839 11.1607C12.9194 11.0108 13.3416 10.5718 13.4857 10.0149C13.7431 8.99766 13.7431 6.88817 13.7431 6.88817C13.7431 6.88817 13.7534 4.76789 13.4856 3.75067V3.75067ZM6.24728 8.82635V4.92856L9.50091 6.87746L6.24728 8.82635Z" fill="#F3F4ED"/>
</svg>
